<svg width="148" height="294" viewBox="0 0 148 294" fill="none" xmlns="http://www.w3.org/2000/svg">
<path fill-rule="evenodd" clip-rule="evenodd" d="M2.93434 96.623C6.46962 103.769 18.258 105.71 19.3935 96.623C20.5289 87.5355 23.2768 73.1147 25.5143 64.1606C29.9747 46.321 30.5768 26.7897 40.6039 11.0335C43.2164 6.92727 47.2434 -3.15396 54.1226 0.973117C56.7372 2.54187 56.8997 6.89809 57.2664 9.46059C58.4872 18.0168 57.1309 26.346 55.0643 34.6106C51.3539 49.4585 47.9434 65.4085 43.1184 79.8793C41.7059 84.1189 38.0893 96.623 37.1455 100.313C35.618 106.285 45.4747 108.954 48.1497 111.629C48.1497 111.629 53.0518 107.983 53.4935 107.542C58.131 102.904 61.8247 97.5105 66.6955 93.0813C69.9018 90.1668 71.7955 86.598 74.5559 83.3355C83.9455 72.2397 97.3121 60.7501 110.079 53.7855C114.42 51.4189 121.389 45.3627 126.739 47.4981C132.487 49.7939 127.785 57.3439 127.008 58.7522C123.566 64.998 115.468 71.1418 109.502 77.9605C98.1976 90.8813 88.8684 97.5667 72.983 110.685C69.7163 113.385 63.7496 118.058 63.7496 122.631C63.7496 127.204 67.0101 133.633 67.0101 145.894C67.0101 147.63 70.8101 145.367 71.4121 145.265C76.208 144.467 81.0476 144.069 85.8726 143.379C100.862 141.238 116.135 140.444 131.141 141.808C137.645 142.398 144.662 143.071 147.802 149.352C148.725 151.2 146.185 154.644 145.145 154.99C139.55 156.854 130.235 156.088 124.475 156.983C114.854 158.477 98.7225 160.829 84.6142 162.242C79.8038 162.723 75.6267 162.931 71.0975 164.442C70.3809 164.679 67.2184 165.388 67.0101 166.013C66.633 167.144 60.4892 181.269 63.7496 184.801C67.0101 188.333 84.6856 205.911 93.1017 212.225C103.75 220.21 111.952 231.279 119.823 241.775C122.048 244.74 127.385 251.908 121.395 253.406C114.631 255.096 104.716 245.923 100.333 242.09C92.1041 234.889 56.008 198.077 48.1497 195.877C44.593 194.881 39.6184 197 38.0893 197.765C33.7955 199.91 40.7059 214.25 41.5476 216.94C47.0872 234.669 52.4393 254.198 55.0643 272.581C55.8601 278.148 56.008 283.6 56.008 289.244C56.008 291.3 55.6247 294.333 52.8643 293.644C47.2393 292.237 44.8622 284.423 42.1768 280.127C28.582 258.375 31.3698 233.106 25.5143 209.71C24.7096 206.495 11.3685 208.137 11.3685 208.137C11.3685 208.137 11.3685 212.767 11.3685 213.481C11.3685 218.646 10.5372 223.467 10.1122 228.571C9.53745 235.466 -5.05049 299.858 -14.7232 290.185C-18.7419 286.167 -18.5794 276.769 -17.5523 271.639C-14.5023 256.387 -11.8482 241.048 -9.06483 225.742C-8.09818 220.421 -7.91068 214.944 -6.86484 209.71C-6.74817 209.133 -6.23569 205.623 -6.23569 205.623C-6.23569 205.623 -13.1565 202.746 -15.9815 201.535C-18.6356 200.398 -20.7356 197.41 -22.2669 195.877C-22.2669 195.877 -23.6856 197.848 -23.8398 198.077C-24.871 199.623 -25.8898 200.975 -26.9835 202.479C-30.4148 207.198 -33.6648 212.112 -37.3564 216.625C-48.3335 230.04 -61.0835 240.665 -73.1939 252.777C-76.3751 255.956 -84.4481 266.314 -90.1689 264.408C-92.4876 263.635 -91.7418 258.154 -91.7418 256.55C-91.7418 250.235 -86.3231 241.7 -81.996 237.373C-73.5314 228.908 -66.4564 217.944 -57.1627 210.337C-49.4606 204.035 -41.546 195.352 -34.5273 188.333C-31.856 185.662 -29.8127 172.837 -37.3564 170.1C-45.1901 167.257 -54.5521 171.985 -62.5064 171.985C-81.773 171.985 -101.261 174.713 -120.348 173.244C-125.504 172.848 -135.173 173.365 -139.525 170.1C-143.011 167.485 -139.6 163.531 -136.696 162.242C-128.906 158.779 -122.029 158.594 -113.746 157.84C-105.888 157.125 -98.0126 156.921 -90.1689 156.269C-81.5879 155.552 -50.3427 160.746 -43.9564 154.99C-40.9401 152.271 -42.4357 138.426 -41.1294 133.633C-41.1294 133.633 -45.5919 131.7 -47.1023 130.49C-54.871 124.275 -63.1627 118.181 -71.3085 112.258C-84.0793 102.969 -95.4543 90.8334 -108.717 82.3939C-114.593 78.6534 -122.205 70.0137 -126.636 64.4751C-127.958 62.8209 -130.929 58.4293 -128.208 56.6147C-119.848 51.0418 -109.929 58.2939 -103.058 62.5876C-92.6585 69.0876 -82.4376 75.9314 -72.5647 83.3355C-65.7231 88.4689 -57.2523 92.9918 -51.1898 99.0543C-46.6856 103.558 -42.1773 108.065 -37.671 112.571C-36.796 113.448 -35.0201 116.025 -32.6419 117.288C-24.5488 121.584 -13.4648 103.769 -13.4648 103.769C-13.4648 103.769 -15.2252 100.879 -15.9815 99.3688C-17.3398 96.6501 -18.3982 93.7418 -19.4378 90.8813C-24.6857 76.4522 -30.7481 60.1168 -33.271 44.9835C-34.4856 37.696 -34.5273 30.1356 -34.5273 22.6647C-34.5273 18.2543 -34.8148 13.5523 -29.1835 14.4918C-21.596 15.7564 -15.1003 27.5377 -12.5232 33.9814C-8.5836 43.8293 -7.49609 54.1855 -5.29193 64.4751C-2.86485 75.8022 -1.51411 87.6314 2.93434 96.623Z" fill="#FF9D56"/>
</svg>
