<svg width="119" height="35" viewBox="0 0 119 35" fill="none" xmlns="http://www.w3.org/2000/svg">
<path fill-rule="evenodd" clip-rule="evenodd" d="M114.294 25.0248C110.063 22.0639 109.464 21.4395 106.316 16.7199C102.618 11.1311 102.732 11.1956 100.931 14.3604C100.188 15.6769 99.5417 16.7155 99.4845 16.6832C99.4272 16.6509 97.4409 15.651 95.0782 14.4083C83.7716 8.5264 82.2266 7.7603 76.5807 5.43479C66.2287 1.17812 56.7201 0.642583 48.4466 3.88308C47.9666 4.06503 47.0933 3.8741 45.745 3.29442C40.1228 0.846379 31.6241 0.126095 22.7934 1.33151C13.8976 2.54542 5.6643 5.6878 2.06066 8.65031C-0.682741 10.8908 -1.76091 15.0218 5.90669 11.3036C16.3795 6.22504 30.4626 3.92327 40.7273 5.57978C44.5459 6.19501 44.5459 6.19501 42.6668 8.45524C35.6847 16.8166 42.2436 31.2188 54.514 34.4297C68.3027 37.9992 69.6716 19.7388 56.3755 9.27785C55.1065 8.29012 54.0336 7.38285 53.9679 7.28538C53.8035 7.0417 56.8655 6.43001 59.2123 6.22981C67.9966 5.48118 74.9289 7.50624 90.4367 15.4117C98.8977 19.7031 98.2826 19.0539 96.6778 22.2991C93.8145 27.9887 95.164 30.3048 100.981 29.6782C104.526 29.3085 107.656 29.3244 113.586 29.757C119.433 30.1738 119.646 28.7541 114.294 25.0248ZM62.3954 20.463C63.4957 24.9327 60.1058 29.7365 55.4133 30.3489C50.4766 31.0196 42.9359 25.0439 42.6409 20.2438C42.3283 15.2073 47.9212 7.78294 51.0021 9.14403C56.9597 11.8266 61.3285 16.148 62.3954 20.463Z" fill="black"/>
</svg>
