<svg width="227" height="275" viewBox="0 0 227 275" fill="none" xmlns="http://www.w3.org/2000/svg">
<path fill-rule="evenodd" clip-rule="evenodd" d="M41.3876 107.905C36.6397 98.301 34.3531 95.1805 30.9891 86.5305C24.0985 68.8125 15.2346 51.8658 8.45948 34.2507C6.57954 29.3629 1.34986 14.7205 -1.93903 11.4321C-2.00672 11.3639 -2.00672 11.2114 -1.93903 11.1432C-0.543156 9.74788 6.58295 9.08521 8.74844 8.5437C15.2744 6.91234 20.4626 3.55292 26.0785 0.74525C26.7816 0.393723 29.3777 4.86518 29.5449 5.3663C31.8042 12.1437 34.9537 18.4951 38.2102 25.0075C48.5734 45.7351 58.7399 66.6447 69.1162 87.3974C70.2624 89.6897 78.0148 107.905 80.9584 107.905C81.1967 107.905 80.4185 103.044 80.381 102.706C80.0448 99.6821 80.0921 96.5092 80.0921 93.4627C80.0921 84.3269 79.8452 75.1326 80.381 66.023C81.2604 51.0712 82.1136 36.2609 82.1136 21.2527C82.1136 18.5782 80.7217 3.52903 81.8252 1.3226C82.0579 0.857306 84.1699 2.14681 84.4247 2.18947C88.7386 2.90845 93.3682 3.19912 97.7111 3.63369C100.626 3.92493 111.438 0.896553 113.598 3.05577C114.685 4.14335 113.886 24.6156 113.886 27.3186C113.886 48.098 113.89 68.9775 115.042 89.7079C115.258 93.6117 111.604 111.557 114.487 114.439C114.554 114.507 119.912 105.661 120.819 104.15C124.423 98.1423 129.829 92.7238 134.394 87.3974C146.629 73.123 159.526 58.5101 172.81 45.2266C177.149 40.8871 181.063 35.8099 185.519 31.6512C188.157 29.1883 193.318 24.1412 193.318 24.1412C197.348 33.1343 212.758 38.9855 219.891 45.2266C221.842 46.9336 224.326 48.8118 226.534 50.1366C227.85 50.926 219.679 59.164 217.291 62.2683C210.762 70.7561 200.146 78.0876 191.584 84.5089C172.917 98.5098 153.987 111.645 135.838 126.391C134.48 127.494 118.796 140.532 118.796 140.544C118.796 141.025 119.76 140.544 120.241 140.544C122.257 140.544 124.291 140.92 126.307 141.121C131.02 141.593 135.793 142.521 140.46 143.144C157.547 145.422 174.156 150.515 191.295 152.964C193.259 153.245 208.486 153.69 209.204 154.408C209.49 154.694 208.732 156.98 208.626 157.297C206.387 164.016 206.086 171.331 204.004 178.093C203.064 181.151 202.32 184.208 201.694 187.336C201.591 187.848 200.902 192.428 200.539 192.247C191.609 187.782 182.858 186.392 172.81 184.159C159.872 181.284 147.157 176.44 134.394 172.894C126.656 170.745 118.682 167.946 110.998 165.384C109.412 164.856 99.7332 161.259 99.7332 161.918C99.7332 164.815 103.101 170.182 103.488 174.05C104.855 187.722 106.818 202.126 110.709 215.353C113.091 223.452 116.749 231.576 118.219 239.905C119.168 245.283 126.307 258.102 126.307 265.41C122.923 268.739 95.5797 276.478 93.6674 274.566C93.1737 274.072 93.809 271.519 93.6674 270.811C92.482 264.884 91.3136 258.856 89.9126 252.903C84.6027 230.335 81.8309 207.515 77.4926 184.736C76.7486 180.831 77.6348 159.237 75.194 156.796C75.0302 156.632 71.3107 160.62 71.1378 161.052C70.2163 163.356 69.4382 165.086 67.9609 167.117C64.287 172.168 59.8474 177.077 55.8293 181.848C39.9525 200.702 21.4893 219.48 2.39364 234.995C-3.11647 239.472 -9.09358 244.658 -13.7812 250.015C-14.4052 250.727 -20.2441 258.283 -20.4244 258.102C-23.1075 255.419 -37.4172 233.359 -39.1993 229.796C-39.726 228.742 -44.1599 221.52 -43.8209 220.841C-41.3915 215.983 -34.3933 212.682 -30.245 209.288C-12.9217 195.114 6.41459 181.936 25.2122 169.717C32.9765 164.67 40.5224 159.081 48.3198 154.119C49.1406 153.597 57.2735 150.429 57.2735 149.498C57.2735 149.464 50.1377 147.312 49.764 147.187C41.0167 144.272 30.5602 144.2 21.4575 143.721C1.29526 142.66 -19.5643 140.93 -39.7766 142.277C-41.0058 142.359 -61.1231 143.749 -61.7289 143.144C-62.9581 141.914 -59.9587 134.582 -59.7067 133.323C-58.3467 126.522 -54.8599 105.721 -52.1972 100.395C-51.8116 99.6246 -40.7993 99.2515 -36.8887 98.9506C-19.1781 97.5883 -2.42764 101.248 15.1027 102.417C20.3198 102.764 28.6154 102.963 33.2996 105.305C35.2103 106.26 37.0675 106.369 39.0765 107.039C39.4827 107.174 42.2533 107.905 41.3876 107.905Z" fill="#55CCFF"/>
</svg>
