<svg width="155" height="284" viewBox="0 0 155 284" fill="none" xmlns="http://www.w3.org/2000/svg">
<path fill-rule="evenodd" clip-rule="evenodd" d="M30.5844 1.43772C19.2941 4.46041 2.22532 14.5948 -13.3322 27.4853C-125.791 120.919 -113.878 256.759 9.07062 281.829C106.416 301.654 202.784 125.809 127.308 66.0678C80.1906 28.7302 6.49252 70.6906 -7.19809 142.522C-18.844 203.863 41.5191 248.58 81.7019 208.487C123.129 167.148 122.685 109.362 80.8129 109.007C48.2755 108.74 29.0731 159.057 57.61 169.725C74.501 176.037 94.4146 156.39 81.1685 146.522C76.8124 143.233 73.8787 143.944 72.3674 148.389C69.4337 157.635 59.6547 164.213 58.0545 158.079C53.3428 140.655 81.0796 109.273 92.0143 119.675C107.572 134.432 94.4146 176.748 66.0555 202.974C24.0947 241.823 -12.1765 177.816 17.8717 117.809C52.4538 48.7329 125.174 40.7315 138.42 104.562C152.733 173.281 80.3684 274.716 19.0274 271.427C-59.5604 267.249 -99.8322 186.973 -59.2937 107.141C-38.1353 65.3575 7.29261 20.2845 40.9857 7.66072C54.4985 2.59342 45.7863 -2.56278 30.5844 1.43772Z" fill="black"/>
</svg>
