<svg width="55" height="35" viewBox="0 0 55 35" fill="none" xmlns="http://www.w3.org/2000/svg">
<path fill-rule="evenodd" clip-rule="evenodd" d="M3.18364 21.2769C11.5168 4.5686 24.085 2.33321 42.3811 14.2933C45.2501 16.1826 45.2336 16.2154 43.6616 13.2939C41.8767 9.97842 38.8502 1.28104 39.3919 0.937061C40.8691 0.0361864 42.819 2.53125 44.8645 7.86475C46.7954 12.9357 49.612 17.9585 52.0046 20.5528C56.1179 25.0352 55.7387 27.0198 51.0812 25.5061C47.3749 24.305 44.5863 24.22 37.2853 25.1973C31.3459 25.9956 30.2306 25.7649 28.6743 23.6308C26.5609 20.7252 29.1538 19.563 39.309 18.8673C42.5737 18.6572 42.3936 18.3617 37.0154 15.6662C22.1598 8.22059 10.1783 14.6889 4.77995 32.9914C3.94052 35.8942 -2.86496 33.427 3.18364 21.2769Z" fill="black"/>
</svg>
