<svg width="431" height="160" viewBox="0 0 431 160" fill="none" xmlns="http://www.w3.org/2000/svg">
<path fill-rule="evenodd" clip-rule="evenodd" d="M367.999 1.11522C321.815 11.9917 336.019 22.1376 361.506 14.6702C403.551 2.33275 428.631 21.4071 416.294 56.4715C407.528 81.3088 365.402 110.773 322.139 122.298C277.01 134.311 198.197 135.123 145.194 123.597C140.081 122.461 92.5976 113.532 84.3185 111.828C49.6597 104.604 30.8288 103.63 17.355 108.662C-0.826536 115.48 -6.10246 142.753 8.18306 156.064C14.5141 161.989 15.9752 161.015 12.0791 153.629C-3.91091 123.272 30.6665 107.364 85.1302 120.026C112.646 126.438 133.831 129.441 148.603 132.85C281.069 163.45 430.498 117.428 430.174 45.6762C430.092 18.6474 396.327 -5.54052 367.999 1.11522Z" fill="black"/>
</svg>
