<svg width="298" height="224" viewBox="0 0 298 224" fill="none" xmlns="http://www.w3.org/2000/svg">
<path fill-rule="evenodd" clip-rule="evenodd" d="M281.566 0.31619C144.207 10.6768 -44.9546 159.621 9.63258 213.762C38.8204 242.727 118.473 204.962 140.308 151.934C157.91 109.156 90.6225 111.496 59.8754 154.609C43.9449 177.001 57.9816 199.058 82.2673 189.701C87.6147 187.584 86.2778 189.255 77.8112 195.159C53.3027 212.204 26.7886 218.999 20.7728 209.976C-1.39626 177.001 69.9017 97.905 164.928 49.5563C206.147 28.6126 267.641 5.99794 288.585 3.8813C304.738 2.21026 298.388 -1.02064 281.566 0.31619ZM125.492 143.246C123.598 148.259 118.362 156.28 118.362 154.386C118.362 146.922 103.1 140.795 93.2962 144.471C89.3971 145.919 97.1953 139.792 104.436 135.67C127.942 122.302 131.062 128.652 125.492 143.246ZM101.206 160.513C95.747 168.423 80.9305 179.897 71.3499 179.563C65.6684 179.34 66.3368 169.314 73.0209 160.068C75.249 156.948 78.8139 152.826 80.2621 153.829C81.8217 155.054 79.0367 159.288 79.0367 159.288C77.2542 164.412 81.1533 172.099 94.076 160.068C102.988 151.935 106.219 153.272 101.206 160.513Z" fill="black"/>
</svg>
