<svg width="318" height="300" viewBox="0 0 318 300" fill="none" xmlns="http://www.w3.org/2000/svg">
<rect x="313.355" y="55.6494" width="240" height="296.245" rx="26.1139" transform="rotate(94.2868 313.355 55.6494)" fill="#8BDCFF"/>
<path fill-rule="evenodd" clip-rule="evenodd" d="M183.868 166.822C184.101 172.293 183.563 179.369 181.848 188.516C181.489 193.622 179.937 200.234 178.506 206.334C177.472 210.738 176.501 214.874 176.087 217.984C172.833 241.793 160.926 247.463 130.961 241.237C125.694 240.142 120.938 238.964 116.673 237.907C111.573 236.643 107.177 235.554 103.456 234.991C71.5077 230.187 52.2514 220.811 42.5078 213.783C34.3881 207.927 32.5588 205.153 33.7949 199.043C36.0869 187.161 41.3165 163.327 47.9084 141.883C48.8515 138.821 49.6356 135.964 50.3495 133.362C53.8253 120.696 55.639 114.086 66.0519 119.353C70.0644 118.629 69.274 116.42 64.7194 115.476C57.8651 114.15 52.0719 115.101 48.4488 125.406C48.1999 126.107 47.8889 126.971 47.5256 127.982C41.3189 145.242 19.8479 204.952 32.0572 214.059C40.5379 220.389 55.5062 227.886 62 229.505C66.5096 230.629 64.6399 239.132 59.793 239.36C48.6789 239.75 54.1853 243.787 67.7595 247.746C73.959 249.508 80.8467 251.524 87.8106 253.562C111.798 260.584 136.69 267.871 137.475 265.913C137.978 264.659 137.371 264.426 135.411 263.677C133.426 262.918 130.054 261.629 125.043 258.209C124.051 257.961 123.712 256.631 124.139 254.918C124.229 254.557 124.324 254.108 124.431 253.608C125.042 250.733 126.015 246.159 128.397 246.752C137.806 249.098 144.325 248.788 148.537 248.588C149.695 248.533 150.679 248.486 151.5 248.505C168.005 249.037 174.148 239.499 177.423 234.413C177.825 233.789 178.184 233.232 178.514 232.768C182.677 214.333 185.59 195.936 187.561 183.485C188.644 176.641 189.443 171.594 190.01 169.323C190.668 166.586 190.936 163.764 190.766 160.983L183.868 166.822ZM121.623 129.239L125.18 125.413C105.226 120.092 85.9723 115.33 81.5145 114.969C73.0012 114.267 76.2936 115.565 82.2405 117.908C83.1129 118.252 84.0425 118.619 85.0002 119.005C90.615 121.262 100.384 123.966 121.623 129.239ZM118.358 252.782C118.998 249.644 119.826 245.588 117.149 244.081C115.796 243.36 113.338 242.46 111.85 242.281C110.655 242.076 106.182 241.356 100.589 240.456C88.9762 238.587 72.5332 235.94 70.5701 235.516C70.6826 235.065 68.1843 242.01 68.1168 242.28L117.965 254.948C118.043 254.324 118.194 253.583 118.358 252.782Z" fill="black"/>
<path fill-rule="evenodd" clip-rule="evenodd" d="M194.589 133.322C217.544 145.885 224.359 137.162 232.642 122.789C243.116 104.614 242.843 65.9822 221.125 55.7441C207.315 49.2334 197.714 63.8105 185.935 69.4797C169.143 77.5605 158.339 80.0555 140.369 83.9834C127.661 86.7608 126.629 108.325 135.734 117.512C140.681 122.504 149.148 121.886 155.508 122.93C168.856 125.12 182.536 126.726 194.589 133.322V133.322Z" stroke="black" stroke-width="3.43415" stroke-miterlimit="1.5" stroke-linecap="round" stroke-linejoin="round"/>
<path d="M229.869 115.509C235.094 98.8174 236.664 71.8456 218.918 61.6909C208.658 56.7089 199.48 70.8988 196.106 78.7095C189.088 94.9586 190.285 122.745 208.397 131.763C219.139 137.113 227.215 123.987 229.869 115.509Z" stroke="black" stroke-width="3.43415" stroke-miterlimit="1.5" stroke-linecap="round" stroke-linejoin="round"/>
<path fill-rule="evenodd" clip-rule="evenodd" d="M215.644 88.5734C210.976 88.9374 210.523 96.7954 210.611 101.669C210.649 103.801 211.954 108.406 213.894 108.292C219.96 107.932 220.754 88.8107 215.644 88.5734Z" stroke="black" stroke-width="3.43415" stroke-miterlimit="1.5" stroke-linecap="round" stroke-linejoin="round"/>
<path d="M161.074 123.827C154.399 116.336 152.902 102.002 153.552 92.6013C153.848 88.3215 154.788 83.7929 157.116 80.1209" stroke="black" stroke-width="3.43415" stroke-miterlimit="1.5" stroke-linecap="round" stroke-linejoin="round"/>
<path d="M137.453 97.7217C136.935 100.786 136.983 104.01 138.037 106.954" stroke="black" stroke-width="3.43415" stroke-miterlimit="1.5" stroke-linecap="round" stroke-linejoin="round"/>
<path d="M144.809 96.4766C144.41 99.8049 144.774 103.083 146.075 106.183" stroke="black" stroke-width="3.43415" stroke-miterlimit="1.5" stroke-linecap="round" stroke-linejoin="round"/>
<path d="M167.678 124.92C164.99 124.382 161.705 123.905 158.611 123.417C158.944 126.209 159.523 129.727 160.614 132.34C161.083 133.46 161.586 134.632 162.613 135.356C163.022 135.644 163.516 135.833 163.996 135.963C165.421 136.35 169.042 137.2 169.864 135.355C170.398 134.156 169.889 132.559 169.534 131.38C168.892 129.252 168.341 127.095 167.815 124.936" stroke="black" stroke-width="3.43415" stroke-miterlimit="1.5" stroke-linecap="round" stroke-linejoin="round"/>
<path d="M229.561 141.45C235.653 145.801 241.868 149.995 247.807 154.563C247.113 150.056 248.027 144.694 248.222 140.184C256.745 142.261 265.415 144.485 274.034 146.035C270.652 139.507 268.328 131.595 266.174 124.647C274.769 125.319 283.431 125.402 292.046 125.5C286.202 117.343 280.487 108.907 274.087 101.189C282.103 95.8335 289.86 90.046 298.084 85.0187C288.68 81.5016 279.45 77.4945 270.023 74.0413C275.514 67.2066 281.705 60.8379 287.425 54.1957C275.758 53.6451 264.092 54.3195 252.424 53.4113C254.543 47.0366 256.833 40.7231 258.592 34.2359C251.361 37.5227 244.186 40.8673 236.762 43.7046C236.582 39.6772 236.362 35.6675 236.002 31.6506C232.034 36.2907 228.527 41.2991 225.054 46.3145" stroke="black" stroke-width="3.43415" stroke-miterlimit="1.5" stroke-linecap="round" stroke-linejoin="round"/>
<path d="M158.608 123.421C158.941 126.212 159.52 129.728 160.611 132.34C161.079 133.46 161.582 134.632 162.61 135.356C163.019 135.644 163.512 135.833 163.992 135.963C165.024 136.243 167.206 136.766 168.645 136.333C168.992 137.129 169.39 137.973 169.802 138.846C171.659 142.789 173.802 147.339 172.937 150.772C172.298 153.306 169.327 154.567 166.938 154.766C161.759 155.198 157.44 153.04 154.266 148.988C148.679 141.856 147.775 131.777 147.523 123.086C147.522 123.06 147.521 123.031 147.52 123C147.512 122.732 147.499 122.31 147.52 122.04C150.864 122.268 155.003 122.856 158.608 123.421Z" stroke="black" stroke-width="3.43415" stroke-miterlimit="1.5" stroke-linecap="round" stroke-linejoin="round"/>
<path d="M215.545 88.5819C210.973 89.0519 210.527 96.8304 210.614 101.669C210.65 103.659 211.789 107.802 213.518 108.253C213.518 108.27 213.519 108.286 213.519 108.303C209.361 108.845 205.929 109.566 202.637 110.257C199.679 110.879 196.835 111.476 193.68 111.898C192.424 107.53 191.974 100.5 192.105 98.422C192.132 97.9867 192.157 97.5645 192.182 97.1511C192.378 93.8774 192.54 91.1567 193.473 86.8494C196.303 87.029 199.276 87.3175 202.28 87.6091C206.758 88.0436 211.304 88.4848 215.545 88.5819Z" stroke="black" stroke-width="3.43415" stroke-miterlimit="1.5" stroke-linecap="round" stroke-linejoin="round"/>
<path d="M58.9337 196.173C62.8867 196.326 122.959 212.523 131.727 215.796C146.22 221.17 132.066 219.889 109.58 213.762C68.9167 202.653 48.7703 195.667 58.9337 196.173Z" fill="black"/>
<path d="M63.0964 185.689C71.433 187.478 101.503 196.597 105.399 198.475C114.107 202.719 97.0691 199.699 69.9193 192.187C53.7075 187.702 48.2174 182.466 63.0964 185.689Z" fill="black"/>
<path d="M58.01 175.953C61.3268 175.365 82.4436 180.361 87.2076 182.902C89.956 184.368 88.484 185.89 84.9077 185.136C65.0006 181.087 52.9009 176.939 58.01 175.953Z" fill="black"/>
<path fill-rule="evenodd" clip-rule="evenodd" d="M282.765 270.24C281.244 270.903 279.06 272.034 277.89 272.736C271.494 276.519 263.85 277.299 261.432 274.452C259.95 272.697 258 272.463 258 274.023C258 276.597 261.978 278.508 267.36 278.508H271.065L269.115 281.238C263.538 288.999 263.031 296.214 267.867 298.671C271.572 300.582 276.915 299.529 287.367 294.732C290.331 293.367 290.565 293.289 290.292 294.03C288.342 299.139 300.198 299.919 305.541 295.044C307.764 293.016 305.853 292.392 302.577 294.069C296.571 297.15 294.192 294.654 298.404 289.662C300.003 287.79 298.404 285.021 287.874 289.935C273.873 296.448 271.533 297.111 271.104 294.732C269.934 287.829 277.188 277.377 286.236 272.97C294.114 269.109 288.225 267.822 282.765 270.24Z" fill="black"/>
</svg>
