<svg width="80" height="112" viewBox="0 0 80 112" fill="none" xmlns="http://www.w3.org/2000/svg">
<path d="M44.1937 66.9115C45.066 66.4273 59.3431 67.3608 66.7156 68.3911C79.8928 70.2038 81.4354 70.0409 82.4754 66.7565C83.8314 62.4691 77.8045 53.0628 65.5183 40.2405C58.3299 32.732 56.596 31.4016 53.9228 31.2411C52.7279 31.1438 52.0609 31.6146 51.1921 32.8913C51.1636 32.9406 37.3565 53.5476 36.5853 53.6288C32.318 54.0627 42.2936 67.9215 44.1937 66.9115ZM43.6303 58.4211C43.4841 57.8754 55.7501 38.6834 56.0957 38.8829C56.2933 38.997 74.8298 58.7863 74.2026 59.8727C73.6531 60.9382 43.9016 59.4334 43.6303 58.4211Z" fill="black"/>
<path d="M108.405 66.7803C112.801 50.1562 110.353 45.3846 90.6413 32.4234C79.1379 24.8601 60.3165 13.6643 55.7062 11.7268C51.4701 9.93962 44.8169 9.25912 42.3999 10.3659C41.5069 10.7723 39.4376 11.6189 37.6877 12.2548C32.6715 14.0999 32.6574 17.3183 37.5787 20.884C38.9254 21.859 40.7929 21.8177 42.106 20.798C43.3621 19.877 44.7323 18.7584 45.996 17.7101C48.4456 15.6344 50.6739 15.538 55.0657 17.2835C66.9916 22.0617 88.8213 37.6283 92.4191 39.8372C104.015 47.1249 105.698 48.8868 104.529 52.6235C97.2335 75.4098 90.3912 83.8391 87.3299 86.7465C75.161 98.3564 67.8252 93.726 24.4427 68.6134C22.0721 67.2447 20.4202 64.974 19.76 62.3537C16.6275 49.4167 23.3458 35.3847 32.16 27.3034C33.8645 25.7197 30.7829 20.4502 28.5237 21.0557C24.317 22.183 5.93008 46.7304 13.2223 62.7275C17.285 71.6582 56.9363 97.6457 65.6518 100.571C71.8597 102.706 84.3842 100.06 89.865 95.5852C96.1343 90.3154 106.355 74.552 108.405 66.7803Z" fill="black"/>
</svg>
