<svg width="32" height="32" viewBox="0 0 32 32" fill="none" xmlns="http://www.w3.org/2000/svg">
<path d="M28 14.7129C28.8284 14.7129 29.5 15.3845 29.5 16.2129C29.5 17.0413 28.8284 17.7129 28 17.7129V14.7129ZM2.56187 17.2736C1.97608 16.6878 1.97608 15.738 2.56187 15.1522L12.1078 5.60629C12.6936 5.0205 13.6433 5.0205 14.2291 5.60629C14.8149 6.19207 14.8149 7.14182 14.2291 7.72761L5.74385 16.2129L14.2291 24.6982C14.8149 25.284 14.8149 26.2337 14.2291 26.8195C13.6433 27.4053 12.6936 27.4053 12.1078 26.8195L2.56187 17.2736ZM28 17.7129H3.62253V14.7129H28V17.7129Z" fill="black"/>
</svg>
