<svg width="55" height="46" viewBox="0 0 55 46" fill="none" xmlns="http://www.w3.org/2000/svg">
<path fill-rule="evenodd" clip-rule="evenodd" d="M24.1043 0.986941C23.2517 -0.473279 21.1292 -0.291724 20.6221 1.38938C20.2574 2.59851 19.9965 3.79951 19.7235 5.08897C19.5555 5.88249 18.7885 6.41853 17.9605 6.33478C17.1832 6.25616 16.3992 6.20577 15.6171 6.18531C14.1467 6.14685 12.8438 6.75 13.6353 8.95907C14.0713 10.1841 14.5387 11.3958 15.0034 12.6008L15.1093 12.8753C15.2958 13.3591 15.2182 13.914 14.9136 14.3587C14.2704 15.2979 13.4026 16.2188 12.8545 17.25C11.3437 19.25 13.1866 20.023 14.5663 20.2015C14.7392 20.2239 14.9122 20.2456 15.0844 20.2672L15.1525 20.2757C15.9061 20.3702 16.4471 21.0401 16.4201 21.8292C16.4191 21.8573 16.4182 21.8854 16.4173 21.9135C16.6097 21.8373 16.836 21.7542 17.0966 21.6659C17.0521 20.6305 16.3095 19.7357 15.2456 19.6023L15.1754 19.5935C15.0037 19.572 14.8328 19.5506 14.6621 19.5285C13.754 19.411 13.2768 18.4673 13.7129 17.6468C14.2494 16.6375 14.8428 15.6544 15.4708 14.7374C15.8943 14.1191 16.6437 13.4558 16.3716 12.75L16.2663 12.477C15.8009 11.2703 14.8698 10.6495 14.3716 9.25C14.0398 8.31807 14.6221 6.83837 15.5903 6.8637C16.3552 6.88371 17.1225 6.93302 17.8834 7.00998C20.3864 7.75 20.1405 6.38248 20.3864 5.22112C20.6596 3.93035 21.0163 3.42801 21.3716 2.25C21.7677 1.6594 22.9386 0.342741 23.5181 1.33532C23.8494 1.90277 24.1699 2.48473 24.4745 3.07385C24.8943 3.88561 25.7198 5.32666 26.5545 5.39296C27.3893 5.45927 28.2822 4.15436 28.8391 3.4135C29.2259 2.89885 29.6253 2.38418 30.0241 1.88058C30.8119 0.885728 32.2776 1.27143 32.4274 2.46579C32.5016 3.05688 32.3187 3.65393 32.3716 4.25C32.3716 5.25334 31.602 6.10499 34.9792 6.47237C35.7681 6.5582 36.4976 6.73955 37.2577 6.93394C37.8865 7.09477 38.121 7.61488 38.3716 8.25C38.6219 8.88449 38.867 9.57413 38.4889 10.0887C38.1704 10.5222 37.8606 10.9498 37.5389 11.3938C36.9965 12.1425 36.4202 12.938 35.7115 13.8865C35.4731 14.3781 35.4652 14.5151 35.7705 14.3555C35.7578 14.3621 35.7453 14.3697 35.7331 14.3781C35.5784 14.4857 35.3716 14.25 35.6437 14.8507C36.4128 15.9719 37.0362 17.1704 37.8438 18.25C38.3438 19.25 38.0854 20.5771 36.8594 20.6577C36.6751 20.6698 36.491 20.6816 36.3071 20.6929C36.8307 20.8589 37.2642 21.0252 37.5963 21.1748C38.899 20.6434 39.4642 18.9427 38.56 17.734C37.756 16.659 36.9663 15.5727 36.2039 14.4613C36.1843 14.4328 36.161 14.4083 36.1352 14.388C36.1798 14.3647 36.22 14.3313 36.2522 14.2883C36.9626 13.3374 37.2985 13.0026 37.8438 12.25C38.1647 11.807 38.7199 10.9119 39.0328 10.4861C39.5836 9.73661 39.5944 8.78258 39.2809 7.9881C38.9677 7.19424 38.3087 6.50007 37.4337 6.27628C36.6758 6.08246 35.9037 5.88935 35.0613 5.79771C34.1354 5.69699 33.367 5.03208 33.2912 4.1776C33.2378 3.57473 33.1751 2.97275 33.0998 2.37226C32.8686 0.529181 30.6227 0.0395921 29.4953 1.46335C29.0938 1.97042 28.6907 2.48979 28.2997 3.01008C27.9093 3.52935 27.2633 3.76779 26.6171 3.71646C25.9707 3.66511 25.373 3.32752 25.0772 2.75542C24.7672 2.15598 24.4412 1.56403 24.1043 0.986941Z" fill="black"/>
<path fill-rule="evenodd" clip-rule="evenodd" d="M25.5527 11.4655C23.4183 11.8893 22.47 15.2567 24.1228 16.4396C26.2872 17.989 29.0825 15.9449 28.6342 13.4821C28.4748 12.6094 27.7841 11.7685 27.2502 11.8004C27.1186 11.8082 27.2559 11.925 27.427 11.9491C27.9712 12.0318 28.0781 13.4124 28.0781 14.1825C27.3316 16.3698 26.2463 16.7271 24.6597 15.3834C23.5627 14.1825 24.5383 11.7286 26.6456 11.7286C26.7803 11.7892 26.8058 11.7901 26.8669 11.7399C27.1044 11.5542 26.1284 11.3503 25.5527 11.4655Z" fill="black"/>
<path fill-rule="evenodd" clip-rule="evenodd" d="M30.7445 19.7528C29.531 16.9033 27.1487 16.3907 24.1177 18.1336C23.2362 18.6411 22.2727 19.5082 21.6778 20.5771C21.3607 20.6347 21.0541 20.693 20.7578 20.7517C21.0986 19.4411 21.7856 18.1832 22.5892 17.5109C25.1482 15.3768 29.2615 16.0058 30.8017 18.7688C30.9899 19.1071 31.1557 19.4432 31.2998 19.7806C31.1169 19.7697 30.9318 19.7604 30.7445 19.7528Z" fill="black"/>
<path fill-rule="evenodd" clip-rule="evenodd" d="M20.7235 20.6974C20.4689 20.7513 20.224 20.8053 19.9887 20.8592C18.9086 19.4474 17.8028 16.7861 17.8449 14.7495C17.8938 12.4252 19.6574 9.31558 21.1017 8.37433C25.474 5.52394 31.7039 7.4185 32.8334 10.7492C34.0139 12.8715 33.8024 14.2606 33.4631 16.4889C33.3872 16.9872 33.3049 17.5274 33.2304 18.1273C33.1497 18.7742 32.9949 19.3715 32.7777 19.9175C32.517 19.8807 32.249 19.847 31.9739 19.817C32.1295 19.464 32.2594 19.0874 32.3603 18.6877C32.6233 17.6427 32.7357 15.5301 32.5831 14.4772C31.4994 9.62431 28.8744 6.12432 22.8659 9.08741C20.9402 10.1962 18.8519 12.4435 19.069 15.2135C19.2079 16.9639 19.9524 19.3373 20.7235 20.6974Z" fill="black"/>
<path d="M50.5319 37.4662C49.8624 36.8533 49.8624 36.8533 50.4373 36.671C53.3481 35.7517 54.021 35.0227 52.7693 34.2111C50.8555 32.9687 48.4362 32.8859 47.1117 32.9853C46.4932 33.0267 46.8762 32.9239 46.8471 32.75C46.6724 31.6567 46.6651 31.549 46.767 30.8367C46.9635 29.3707 44.5138 27.5769 42.7455 27.5769C42.4981 27.5769 42.4981 27.5603 42.7237 26.5333C42.942 25.5808 43.0293 24.4875 42.9129 24.1645C42.5636 23.154 37.9354 20.9509 34.6098 20.2054C32.6741 19.7747 28.2223 19.0846 26.2575 19.2503C21.7021 19.6395 17.3196 21.3153 14.2706 22.5825C12.5678 23.2865 12.2912 23.9574 13.9722 23.2948C20.8854 20.5947 27.8654 20.0325 33.8471 21.25C34.1745 21.3163 35.5123 21.6837 35.8471 21.75C36.8004 21.9488 41.3192 22.8227 42.0979 23.8829C42.3235 24.1893 42.3817 24.6613 42.2434 25.266C42.0615 26.0528 42.0033 29.0429 42.1343 30.8484C42.2652 32.654 42.076 32.77 39.3763 32.5298C37.1131 32.3227 36.5528 32.6623 37.1131 33.6645C37.2587 33.9295 37.346 33.8963 37.3751 33.5899C37.426 32.9604 37.9568 33.0019 39.7251 33.151C42.2575 33.3663 42.6218 32.9605 42.8401 31.4282C42.9638 30.5668 42.9202 29.457 42.7237 28.4217C42.6145 27.8419 44.2701 28.8389 45.3471 29.75C45.7982 30.131 45.831 29.6309 45.8965 31.3454C45.9256 32.1654 45.9911 33.0599 46.042 33.3332C46.2094 34.2857 46.2822 35.7931 46.093 36.0913C45.8746 36.4143 45.7728 36.6876 45.9984 36.6876C46.304 36.6876 47.3352 35.6272 47.2697 35.2711C47.2333 35.064 46.9958 34.0749 46.9012 33.3957C49.0116 33.3957 52.1183 35.1553 52.242 35.2796C52.2493 35.2879 49.4622 36.4143 49.4477 36.4143C49.4258 36.406 48.6108 36.497 49.7824 37.6069C50.7794 38.5677 52.4385 40.6466 52.4385 40.9448C52.4385 40.9697 52.1402 40.8206 51.7763 40.6135C49.8988 39.5285 48.2106 39.1309 44.1791 38.7996C41.8359 38.6009 41.2028 38.5098 40.2859 38.5098C38.8814 38.5015 38.4739 38.0128 38.3648 36.1907C38.3429 35.8014 38.292 35.3707 38.2556 35.2216C38.1683 34.882 38.7613 34.8644 40.5078 34.5C41.694 34.2598 44.8158 34.9555 45.2961 35.5684C45.82 36.2476 44.5448 35.7485 42.5 35.5C41.503 35.3758 41.5812 35.8428 41.6613 35.9836C41.7995 36.2486 47.1772 37.3999 45.489 35.1388C44.7904 34.2029 42.9732 33.3662 41.5033 33.5899C40.208 33.7886 40.1285 33.7432 39.0078 34C37.9745 34.2485 36.8948 34.294 36.662 33.8053C36.5237 33.5071 36.5601 30.4426 36.6983 30.5089C36.7711 30.542 37.3314 30.7076 37.9573 30.8816C41.2101 31.8009 41.6322 31.9086 40.3223 32.0411C39.449 32.1322 39.7256 32.3227 40.7298 32.3393C42.3599 32.3641 42.1925 31.3049 40.3223 30.75C39.9293 30.634 39.1309 30.3577 38.8471 30.25C32.0212 27.5002 24.633 28.9185 17.6253 30.8566C15.9588 31.3039 10.5084 32.2979 11.7746 33.5237C12.0584 33.797 12.0875 33.7969 12.1748 33.4656C12.2912 33.0184 12.7861 32.9108 15.6459 32.008C16.7302 31.6601 16.6283 31.6187 16.7593 32.4801C16.883 33.2918 16.9194 33.2255 16.3882 33.0764C15.8133 32.9025 15.1365 33.0185 14.387 33.4077C13.783 33.7225 12.4804 34.2443 12.2548 34.2443C12.0511 34.2443 12.0001 34.3851 12.1675 34.4845C12.5241 34.6998 13.1567 34.8489 14.4374 34.2443C16.5187 33.2586 17.5307 33.6396 16.2135 35.0974C15.6605 35.7103 12.4102 36.5 11.5078 36.5C10.3071 36.5 8.04873 38.5594 8.55812 39.0316C8.82737 39.28 9.05296 39.2303 9.04568 38.9239C9.02385 38.4601 9.89709 37.9962 11.9347 37.3916C13.3027 36.9775 13.2227 36.9692 13.3318 37.5324L13.4119 37.9382H13.1354C12.1457 37.9382 12.495 38.5511 13.3901 38.3937C13.31 38.9321 13.2009 39.0398 12.022 39.9343C11.207 40.5473 11.9347 40.4133 12.2548 40.1911C12.6041 40.0089 12.9898 39.8183 13.1135 39.7603C14.416 39.1499 14.1541 38.5677 13.7685 37.4247L13.5793 36.8781C15.122 36.3646 15.4858 36.1243 16.0243 35.9504C16.279 35.8758 18.0765 34.6832 17.5161 33.358C17.3124 32.8777 17.1357 31.883 17.2158 31.7919C17.2958 31.7008 18.3906 31.7094 22.3489 31.0969C30.0573 29.9041 31.5075 29.7503 36.1453 30.3515C36.0725 31.304 36.0434 31.3537 36.1234 33.151C36.1453 33.5899 36.3199 34.004 36.6183 34.2939C36.8366 34.5009 37.0986 34.6667 37.5425 34.7992C37.7753 34.8655 37.8699 34.9317 37.8481 35.0063C37.4988 36.0416 38.212 38.4269 38.9906 38.7996C39.9658 39.6669 42.3307 39.5947 44.0918 39.5947C47.2575 39.9586 51.1286 40.7792 53.2026 42.3777C54.7089 43.529 55.0033 40.5 50.5319 37.4662Z" fill="black"/>
<path d="M10.9616 40.4315C9.97189 40.3155 6.7918 41.8892 4.55048 43.5871C4.14297 43.9019 3.92467 44.0261 3.91012 43.9516C3.8519 43.6534 4.50684 41.9306 5.32914 40.2162C5.54017 39.7772 5.5256 39.7358 5.05988 39.5867C4.44861 39.3879 1.93804 39.7441 1.24673 40.1333C0.191557 40.7297 6.45708 36.0004 6.82822 36.431C6.8646 36.4725 6.94465 36.8203 7.00287 37.2013C7.25756 38.9075 7.50172 41 9.30968 39.8269C10.0592 39.595 11.9731 38.6259 12.024 38.452C12.0604 38.336 12.0313 38.3443 10.6268 38.8164C8.91672 39.3879 8.87306 39.4045 8.65475 39.3548C8.32728 39.2885 8.05803 38.9406 7.92705 38.4271C7.86155 38.1787 8.13271 37.4058 8.00172 37C7.09935 34.2916 7.27939 32.4969 9.35334 31.3207C10.001 30.948 9.98644 30.9397 10.0447 31.8177C10.132 33.2092 10.5468 34.1119 11.2381 34.4432C11.6893 34.6586 11.7402 34.4929 11.3472 34.054C10.554 33.1843 11.0711 33.0478 10.8455 27.25C10.78 25.6266 10.5468 25.4733 11.9003 24.1564C12.2787 23.7837 12.1186 23.6843 11.4782 23.8748C10.212 24.264 9.60076 26.0696 10.0592 28.0823C10.1902 28.6621 10.2193 29.2915 10.1393 30.0452C10.0665 30.7492 9.98644 30.8238 9.12048 30.9812C7.57047 31.2628 5.59112 33.118 6.6099 35.727C6.79183 36.1991 6.57663 35.8592 6.00173 36C5.44867 36.1325 3.22609 36.6732 0.96293 39.5867C0.000926018 40.5 -0.295989 41.3177 1.29768 40.6965C1.96717 40.4398 2.57843 40.2659 3.22609 40.1582C4.44863 39.9511 4.3977 39.9511 4.21577 40.241C3.68455 41.0941 2.72396 45.0283 2.88405 45.7157C2.94227 45.9642 3.24063 45.9891 3.46622 45.7654C5.30002 43.9681 5.79488 44.0276 6.6099 43.3236C7.0538 42.9426 8.12637 42.6129 9.50172 42C11.5102 41.0972 11.5292 40.4895 10.9616 40.4315Z" fill="black"/>
<path d="M45.6642 36.9778C45.5477 36.8204 45.4895 36.8204 45.1766 36.986C44.5217 37.3422 41.7928 36.4146 40.0682 36.6962C39.093 36.8618 38.7437 37.3836 39.1731 37.9799C39.3259 38.187 40.3156 38.3362 40.3156 38.1705C40.3156 38.0794 40.221 38.1622 39.7189 37.9551C39.3259 37.7894 39.4569 37.5078 39.7916 37.3753C41.6031 37.3753 46.2754 37.806 45.6642 36.9778Z" fill="black"/>
<path fill-rule="evenodd" clip-rule="evenodd" d="M37.3175 26.9125L37.2553 27.2834C37.2425 27.2642 37.229 27.246 37.2146 27.2285C36.642 26.5288 33.6519 26.0768 32.7296 25.9373C32.6749 25.9291 32.6275 25.9219 32.5883 25.9159C32.4624 25.8977 32.1423 25.8322 31.8276 25.7678C31.5276 25.7064 31.2324 25.6459 31.115 25.6285C26.7192 24.9712 21.6653 25.646 16.7415 27.8727C15.5445 28.4185 15.72 27.9202 16.9313 27.3434C19.1001 26.3058 22.2227 24.9203 25.5202 24.4637C26.9426 24.2684 30.2059 24.6005 31.6298 24.8399C33.5992 25.1742 36.2183 26.1632 37.3175 26.9125Z" fill="black"/>
</svg>
