<svg width="32" height="32" viewBox="0 0 32 32" fill="none" xmlns="http://www.w3.org/2000/svg">
<path fill-rule="evenodd" clip-rule="evenodd" d="M25.9114 5.71171C24.4811 6.6875 23.7726 7.26229 22.0082 8.8797C20.4977 10.2565 20.5245 10.2431 20.0968 9.80203C19.2146 8.85297 15.9797 7.99747 15.0574 8.49206C14.6162 8.71929 14.6698 9.17377 15.1376 9.17377C16.4074 9.18714 17.5837 9.77529 18.5863 10.6174C19.4818 11.3793 19.4818 11.3392 18.212 12.5957C16.8486 13.9324 14.9103 16.1379 13.8276 17.5682L12.9988 18.6643L12.3037 17.6351C10.6596 15.1755 8.88181 13.9592 7.78572 14.5339C7.3847 14.7478 7.45154 14.8815 8.65457 16.1514C9.71057 17.2608 10.8067 18.8381 11.5819 20.3753C12.2102 21.6185 13.7608 21.6185 14.8168 19.8273C15.5788 18.5306 17.5436 16.0578 19.161 14.3735L20.6047 12.863L20.9522 13.6384C24.0534 20.5759 16.4876 28.6094 10.1249 25.134C3.62857 21.5784 5.09894 10.1763 12.1835 9.1604C13.5737 8.9599 13.6003 8.49204 12.2235 8.31828C8.6679 7.83706 4.12316 12.0476 3.64194 16.245C2.73298 24.2518 10.6329 29.4649 18.359 25.9761C23.0509 23.8641 25.243 16.2716 22.3423 12.2615C22.1286 11.9675 21.9548 11.6868 21.9548 11.6199C21.9548 11.3392 24.3475 9.2005 26.8872 7.24891C29.7477 5.04336 28.264 4.10766 25.9114 5.71171Z" fill="black"/>
</svg>
