<svg width="102" height="93" viewBox="0 0 102 93" fill="none" xmlns="http://www.w3.org/2000/svg">
<path d="M52.7238 64.4116C51.5684 62.0793 68.878 58.9329 75.407 59.3487C77.478 59.4871 77.6141 61.2377 75.6334 61.8343C72.8981 62.72 53.8791 66.7439 52.7238 64.4116Z" fill="black"/>
<path d="M18.3776 36.7194C19.0316 35.8366 31.1229 33.9908 33.0285 34.4791C36.1734 35.2565 33.7178 37.805 29.1819 38.4422C20.9747 39.5703 16.6786 38.894 18.3776 36.7194Z" fill="black"/>
<path d="M17.615 28.5475C19.2218 27.9088 29.9208 27.2772 30.8333 27.8473C32.8804 29.1607 25.2056 31.5475 19.7112 32.2221C16.4304 32.625 14.7427 29.6625 17.615 28.5475Z" fill="black"/>
<path d="M51.6511 55.3022C52.305 54.4195 64.3963 52.5737 66.3019 53.0619C69.4468 53.8394 66.9913 56.3879 62.4553 57.0251C54.2481 58.1532 49.952 57.4769 51.6511 55.3022Z" fill="black"/>
<path d="M50.8885 47.1304C52.4952 46.4917 58.7046 46.4114 59.6171 46.9814C61.6642 48.2949 58.479 50.1304 52.9847 50.805C49.7039 51.2079 48.0161 48.2454 50.8885 47.1304Z" fill="black"/>
<path d="M39.5583 52.1856C41.801 53.0217 41.9577 53.2905 41.7426 56.568C41.0446 67.6425 53.1686 84.2627 73.6447 76.7275C78.7661 74.8641 79.8305 74.8155 84.2853 76.5734C88.8668 78.3566 88.8261 78.3616 87.7706 74.458C86.4591 69.4747 86.4656 68.8564 87.9559 66.2452C95.2237 53.7057 90.02 37.4705 76.7939 31.3159C59.4174 23.2016 47.3095 29.5035 42.9758 41.8063C41.7573 45.2895 40.6867 45.956 36.9075 45.6793C35.2053 45.559 35.0908 44.6265 36.4196 41.7059C46.571 19.4698 79.0384 19.7635 91.7421 35.407C99.0137 44.3504 100.774 57.3454 92.8751 68.769C91.5129 70.747 91.5848 72.6727 93.1751 77.5806C94.7705 82.5295 92.793 83.1839 84.0432 80.6363L78.5797 79.0435L74.8574 80.5709C67.3368 83.6755 59.1032 83.6574 50.9325 80.4628C47.5202 79.1531 41.0117 73.4084 37.025 63.7324C33.6637 55.4613 34.7336 50.4322 39.5583 52.1856Z" fill="black"/>
<path fill-rule="evenodd" clip-rule="evenodd" d="M34.9888 61.4105C34.5419 61.3795 34.0888 61.3392 33.6295 61.2892C28.2094 60.7202 27.1649 60.9305 23.2677 63.7139C21.1573 65.2064 20.1677 65.9128 19.7153 65.6595C19.3073 65.4311 19.3363 64.4219 19.3741 62.5046C19.4412 57.3519 19.2852 56.7536 17.2075 54.5805C7.12204 44.1718 8.24351 27.1598 19.5878 17.9884C34.4851 5.91139 47.7579 9.09697 54.9392 19.9859C56.9642 23.0709 58.1642 23.4585 61.7642 22.2758C63.3868 21.7473 63.2723 20.8147 61.2764 18.3024C46.0471 -0.817415 14.6151 7.32219 6.07329 25.5743C1.18135 36.0112 2.61727 49.046 13.0449 58.2194C14.8452 59.8092 15.2414 61.695 14.8856 66.8419C14.5348 72.0297 16.6119 72.1863 24.4855 67.5976L29.4014 64.7304L33.3826 65.3118C34.2494 65.4403 35.1155 65.5317 35.9799 65.586C35.6691 64.4396 35.3128 63.0202 34.9888 61.4105Z" fill="black"/>
</svg>
