<svg width="109" height="110" viewBox="0 0 109 110" fill="none" xmlns="http://www.w3.org/2000/svg">
<g clip-path="url(#clip0_409_15185)">
<rect width="94.8132" height="94.8132" transform="translate(0.304688 15.6919) rotate(-9)" fill="#55CCFF"/>
<path fill-rule="evenodd" clip-rule="evenodd" d="M20.5615 24.4699C15.3157 26.2031 19.5063 29.2019 24.0579 29.1179C27.8681 29.0452 35.0136 27.9135 50.3842 25.426C69.1205 22.4053 77.1792 21.3412 78.4522 21.6704C81.6169 22.5492 83.7317 27.5223 86.7827 41.4235C87.8807 46.3452 89.6829 53.7032 90.805 57.7718C94.3626 70.8498 93.2215 72.3575 76.2923 75.7288C69.7572 77.0293 61.2954 78.9003 57.5211 79.8696C39.8757 84.416 28.6937 85.8685 22.0864 84.3672C16.5803 83.1161 16.5769 81.4182 15.872 77.9735C14.4434 71.2994 12.4254 57.553 11.122 44.9673C10.035 34.4175 10.38 32.2397 13.4997 30.1532C15.4233 28.8931 14.5262 27.9205 11.9536 28.4341C8.10288 29.2564 5.30469 31.0265 5.69465 37.175C6.1507 44.7462 8.02925 86.4345 16.8636 88.5916C22.6614 90.0088 32.4898 90.7345 36.218 90.144C38.8071 89.7339 39.1629 92.6501 36.6969 93.8368C31.0128 96.4887 35.863 99.9668 43.7828 99.0309C59.8132 97.0228 82.9095 92.0377 82.8787 90.5033C82.848 88.9689 78.941 86.0844 77.1805 86.3633C76.6109 86.4535 76.1417 85.8377 75.9858 84.8539C75.7644 83.4558 75.4528 81.4881 77.058 81.2339C83.9448 80.1431 87.572 79.2502 89.5694 78.4561C99.3221 74.6821 98.6538 67.7815 97.9188 63.8108C94.9729 47.5574 89.4493 32.4554 88.867 28.779C87.8065 22.4182 83.0861 16.7432 74.9315 16.867C71.677 16.4271 25.7554 22.7449 20.5615 24.4699ZM67.5147 83.6479C69.6761 83.8894 69.1946 85.8765 69.6723 87.5525L45.8153 91.7556C45.7907 91.6002 45.5572 87.444 45.5982 87.7029C47.247 87.3887 62.3202 84.3644 64.3668 83.881C65.1789 83.6462 66.6534 83.572 67.5147 83.6479Z" fill="black"/>
<path d="M49.457 41.9062L62.3276 6.3694L85.2513 2.73864L90.7997 9.35947L70.2556 50.1114L52.7015 62.3912L49.457 41.9062Z" fill="#55CCFF"/>
<path d="M25.1346 72.4518C26.9405 71.036 58.8609 65.4719 63.8126 65.7044C71.9873 66.0478 65.2843 70.2729 53.3152 72.2816C31.6612 75.8807 20.4549 75.9609 25.1346 72.4518Z" fill="black"/>
<path d="M23.9621 61.0009C28.2439 59.7014 44.5481 58.0792 46.8854 58.6693C52.1246 60.0426 43.579 63.4296 29.0908 65.7243C20.4396 67.0945 16.3106 63.2861 23.9621 61.0009Z" fill="black"/>
<path d="M18.5608 51.8579C19.845 49.8469 30.8404 47.0886 33.7774 48.0921C35.4718 48.6711 35.3087 51.013 33.4761 51.5857C23.3236 54.9448 16.6086 55.048 18.5608 51.8579Z" fill="black"/>
</g>
<defs>
<clipPath id="clip0_409_15185">
<rect width="94.8132" height="94.8132" fill="white" transform="translate(0.304688 15.6919) rotate(-9)"/>
</clipPath>
</defs>
</svg>
