<svg width="22" height="21" viewBox="0 0 22 21" fill="none" xmlns="http://www.w3.org/2000/svg">
<path d="M9.99486 0.927614C10.2307 0.211005 11.2444 0.211007 11.4802 0.927615L13.4055 6.77769C13.5111 7.09841 13.8106 7.31514 14.1482 7.31514H20.3571C21.1169 7.31514 21.4302 8.28947 20.8128 8.73235L15.807 12.323C15.5295 12.5221 15.4133 12.8783 15.52 13.2028L17.4361 19.0249C17.6726 19.7435 16.8524 20.3456 16.2377 19.9047L11.1933 16.2863C10.9209 16.0909 10.5542 16.0909 10.2818 16.2863L5.23739 19.9047C4.62267 20.3456 3.80248 19.7435 4.03897 19.0249L5.95506 13.2028C6.06184 12.8783 5.94564 12.5221 5.66809 12.323L0.662316 8.73235C0.0448878 8.28947 0.358199 7.31514 1.11804 7.31514H7.32689C7.66453 7.31514 7.96403 7.09841 8.06958 6.77769L9.99486 0.927614Z" fill="#D8D8D8"/>
</svg>
