<svg width="48" height="25" viewBox="0 0 48 25" fill="none" xmlns="http://www.w3.org/2000/svg">
<path fill-rule="evenodd" clip-rule="evenodd" d="M0 4.37351C0 2.19156 1.75501 0.140915 3.91991 0.140915L14.1457 0L24.3716 0.422746C25.8776 0.422746 27.0985 1.65323 27.0985 3.17111V3.17111C26.4676 2.82339 25.9656 2.06844 25.2659 1.89764C24.5793 1.73005 23.6195 1.76898 23.0601 1.76898H15.6111H13.5139V1.76898C12.4915 1.95634 11.4521 2.03505 10.4131 2.00379L2.60841 1.76898C1.00826 1.76898 1.02258 2.76077 1.02258 4.37351L1.30221 10.8021L1.02258 16.3976C1.02258 18.0103 2.31976 19.3177 3.9199 19.3177V19.3177C4.99884 19.1306 6.09677 19.0775 7.18873 19.1597L10.2982 19.3937L23.1786 19.3177C24.7787 19.3177 26.0759 18.0103 26.0759 16.3976L25.7962 10.0976L26.0216 6.46427C26.0548 5.92866 26.3916 5.45932 26.8884 5.25644L27.0985 5.17066L27.3555 13.3386L27.0985 16.7411H27.0838C26.9111 18.7622 25.2286 20.3484 23.1786 20.3484L13.6537 20.912L3.9199 20.3484C1.755 20.3484 0 18.5795 0 16.3976V15.5932V4.37351Z" fill="#55CCFF"/>
<path fill-rule="evenodd" clip-rule="evenodd" d="M47.7204 7.46509C47.7204 5.28314 46.4182 2.95066 43.8005 3.51432H40.7777L33.0879 3.19238L25.538 3.51432H23.5806H24.5418C22.3769 3.51432 20.6219 5.28314 20.6219 7.46509L20.3423 12.211L20.6219 18.9739V18.9739C21.2736 18.435 21.6697 17.6478 21.714 16.8033L22.2038 7.46509C22.2038 5.85234 22.9417 4.54496 24.5418 4.54496L30.2914 4.82679L43.8005 4.54496C45.4006 4.54496 46.6978 5.85235 46.6978 7.46509V9.11082L46.4182 11.7882L46.37 14.3247L46.2305 18.6931C46.2305 20.3058 45.9508 22.075 43.8005 22.7528L34.6256 22.519L30.3309 22.7653L23.9997 22.3569C22.8702 22.3569 21.6445 22.1118 21.6445 20.9734L21.3985 21.2052C21.1194 21.4682 21.0539 21.8876 21.2357 22.2252C21.5879 22.8792 21.7075 23.0888 22.0986 23.2636C23.114 23.7171 24.25 23.8272 25.3587 23.9138L27.0759 24.0478L43.8005 23.7835C45.5314 23.3433 46.6978 23.3433 47.7204 19.8327L48 13.6489L47.7204 7.46509Z" fill="#FF9D56"/>
<path opacity="0.2" fill-rule="evenodd" clip-rule="evenodd" d="M33.437 6.61459C32.5019 6.69728 32.3058 6.78824 32.5622 7.01978C32.6301 7.08594 33.2786 7.11075 34.6888 7.09421C37.2151 7.0694 37.6148 7.11902 37.924 7.48286C38.2483 7.86325 38.8667 7.97902 38.8667 7.65652C38.8667 7.50767 38.3312 6.97017 38.0748 6.86267C37.562 6.64767 34.7416 6.49882 33.437 6.61459ZM30.8805 7.25133C29.4627 8.80595 30.2923 15.5537 31.8533 15.1733C32.1474 15.0989 32.1399 14.9831 31.8232 14.8425C31.2123 14.5614 30.8332 12.7067 30.9304 12.0668C31.0209 11.3556 30.7343 11.4604 30.6966 9.87268C30.6438 7.69786 31.2802 7.3919 31.71 7.23479C31.9589 7.15209 31.8232 6.99498 31.4838 6.9619C31.2048 6.93709 31.1369 6.97017 30.8805 7.25133ZM38.4051 8.36768C38.1864 9.06229 38.5906 9.45922 38.5906 13.3788C38.5679 13.4533 38.2106 14.6415 37.2302 14.873C36.8456 14.964 36.1593 14.9888 34.6963 15.0053C32.2454 15.0467 32.1248 14.7433 32.3963 15.0906C32.8261 15.6612 37.2905 15.7852 38.2407 15.256C38.844 14.9169 39.1005 13.5525 39.1005 10.65C39.0854 8.91345 38.7067 7.40844 38.4051 8.36768Z" fill="#FF9D56"/>
<path opacity="0.2" d="M29.1375 17.2637C32.9139 17.1261 39.0657 17.002 41.2459 17.002C42.2461 17.9813 34.2563 18.0816 31.8606 18.1117L31.7926 18.1125C29.5709 18.1125 27.8679 18.1943 29.1375 17.2637Z" fill="#FF9D56"/>
<path opacity="0.2" d="M30.742 19.5221C33.5014 19.3827 37.9964 19.2568 39.5894 19.2568C40.3202 20.2493 34.4823 20.351 32.7317 20.3814L32.6821 20.3823C31.0587 20.3823 29.8144 20.4651 30.742 19.5221Z" fill="#FF9D56"/>
<g opacity="0.2">
<path d="M13.2164 15.5767C14.3034 15.4373 16.0742 15.3115 16.7018 15.3115C16.9925 16.3136 14.6451 16.4075 13.9807 16.437C13.3412 16.437 12.851 16.5198 13.2164 15.5767Z" fill="#96DFF0"/>
<path d="M13.2536 13.8863C14.6751 13.7469 16.9907 13.6211 17.8113 13.6211C18.1915 14.6231 15.1219 14.7171 14.253 14.7466C13.4167 14.7466 12.7757 14.8294 13.2536 13.8863Z" fill="#96DFF0"/>
<path d="M13.2947 12.1949C15.0506 12.0555 17.9111 11.9297 18.9248 11.9297C19.3944 12.9317 15.6026 13.0257 14.5292 13.0552C13.4961 13.0552 12.7043 13.138 13.2947 12.1949Z" fill="#96DFF0"/>
<path d="M13.27 10.2222C15.2066 10.0828 18.3613 9.95704 19.4793 9.95703C19.9971 10.9591 15.8153 11.053 14.6316 11.0825C13.4922 11.0825 12.619 11.1653 13.27 10.2222Z" fill="#96DFF0"/>
</g>
<path opacity="0.2" fill-rule="evenodd" clip-rule="evenodd" d="M6.31198 8.58822C5.37686 8.67092 5.18078 8.76188 5.43718 8.99342C5.50506 9.05957 6.15362 9.08438 7.56383 9.06784C10.0901 9.04303 10.4898 9.09265 10.799 9.4565C11.1233 9.83688 11.7417 9.95265 11.7417 9.63015C11.7417 9.4813 11.2062 8.9438 10.9498 8.8363C10.437 8.6213 7.61661 8.47245 6.31198 8.58822ZM3.7555 9.22496C2.33775 10.7796 3.16728 17.5273 4.72831 17.1469C5.02242 17.0725 5.01489 16.9567 4.69816 16.8161C4.08732 16.535 3.70818 14.6803 3.80544 14.0404C3.89594 13.3293 3.60931 13.434 3.5716 11.8463C3.51881 9.6715 4.15519 9.36553 4.58504 9.20842C4.8339 9.12573 4.69816 8.96861 4.3588 8.93553C4.07977 8.91073 4.0119 8.9438 3.7555 9.22496ZM11.2801 10.3413C11.0614 11.0359 11.4656 11.4329 11.4656 15.3525C11.4429 15.4269 11.0856 16.6151 10.1052 16.8467C9.72061 16.9376 9.03434 16.9624 7.57134 16.979C5.12044 17.0203 4.99978 16.7169 5.27126 17.0642C5.70111 17.6348 10.1655 17.7588 11.1157 17.2296C11.719 16.8906 11.9755 15.5261 11.9755 12.6236C11.9604 10.8871 11.5817 9.38207 11.2801 10.3413Z" fill="#96DFF0"/>
<path opacity="0.2" d="M7.32893 4.29979C11.1053 4.16224 17.2571 4.03809 19.4373 4.03809C20.4375 5.01739 12.4477 5.11772 10.052 5.14781L9.98405 5.14866C7.76227 5.14866 6.05934 5.2304 7.32893 4.29979Z" fill="#96DFF0"/>
</svg>
