<svg width="169" height="48" viewBox="0 0 169 48" fill="none" xmlns="http://www.w3.org/2000/svg">
<path opacity="0.9" fill-rule="evenodd" clip-rule="evenodd" d="M22.9244 47.5397C56.5496 48.0145 85.9696 47.9829 115.423 47.7012C129.287 47.5687 151.57 48.0293 158.987 44.9139C169.723 40.4046 169.117 20.6556 168.591 14.1491C168.371 11.43 167.635 7.81305 161.668 6.40003C150.95 3.86198 136.315 4.20793 124.876 4.08488C93.7142 3.75001 57.1271 3.91652 25.8928 4.33097C20.4601 4.4029 12.9156 4.5486 8.38976 6.25907C0.0739779 9.40285 0.610811 27.1049 1.02322 32.2998C1.50428 38.3647 3.96533 47.5397 22.9244 47.5397Z" fill="white"/>
<path fill-rule="evenodd" clip-rule="evenodd" d="M23.0963 44.1491C56.7214 44.6239 86.1415 44.5923 115.595 44.3106C129.459 44.1781 151.742 44.6386 159.159 41.5233C169.895 37.0139 169.289 17.265 168.762 10.7585C168.543 8.0394 167.807 4.42242 161.84 3.00941C151.122 0.471358 136.487 0.8173 125.048 0.694258C93.8861 0.359382 57.299 0.525899 26.0647 0.940344C20.632 1.01227 13.0874 1.15797 8.56164 2.86845C0.245853 6.01223 0.782686 23.7143 1.1951 28.9092C1.67615 34.9741 4.13721 44.1491 23.0963 44.1491Z" fill="#FF9D56"/>
</svg>
