<svg width="149" height="49" viewBox="0 0 149 49" fill="none" xmlns="http://www.w3.org/2000/svg">
<path opacity="0.9" fill-rule="evenodd" clip-rule="evenodd" d="M20.2939 48.0719C49.916 48.5467 75.8337 48.5151 101.781 48.2335C113.994 48.1009 133.624 48.5615 140.159 45.4462C149.617 40.9368 149.083 21.1878 148.619 14.6813C148.426 11.9623 147.777 8.34527 142.52 6.93226C133.079 4.39421 120.185 4.74015 110.109 4.61711C82.6564 4.28223 50.4249 4.44875 22.9089 4.8632C18.123 4.93512 11.4766 5.08082 7.48957 6.7913C0.163757 9.93508 0.636681 27.6371 0.999995 32.8321C1.42378 38.897 3.59186 48.0719 20.2939 48.0719Z" fill="#05060B"/>
<path fill-rule="evenodd" clip-rule="evenodd" d="M20.4658 43.6335C50.0879 44.1083 76.0056 44.0766 101.953 43.795C114.166 43.6624 133.796 44.123 140.331 41.0077C149.789 36.4983 149.255 16.7493 148.791 10.2428C148.598 7.52377 147.949 3.9068 142.692 2.49378C133.25 -0.0442668 120.357 0.301675 110.28 0.178633C82.8282 -0.156243 50.5967 0.0102738 23.0808 0.424719C18.2949 0.496648 11.6484 0.642348 7.66144 2.35282C0.335632 5.4966 0.808556 23.1987 1.17187 28.3936C1.59566 34.4585 3.76373 43.6335 20.4658 43.6335Z" fill="#FF9D56"/>
</svg>
