<svg width="32" height="32" viewBox="0 0 32 32" fill="none" xmlns="http://www.w3.org/2000/svg">
<path d="M4 14.7129C3.17157 14.7129 2.5 15.3845 2.5 16.2129C2.5 17.0413 3.17157 17.7129 4 17.7129V14.7129ZM29.4381 17.2736C30.0239 16.6878 30.0239 15.738 29.4381 15.1522L19.8922 5.60629C19.3064 5.0205 18.3567 5.0205 17.7709 5.60629C17.1851 6.19207 17.1851 7.14182 17.7709 7.72761L26.2562 16.2129L17.7709 24.6982C17.1851 25.284 17.1851 26.2337 17.7709 26.8195C18.3567 27.4053 19.3064 27.4053 19.8922 26.8195L29.4381 17.2736ZM4 17.7129H28.3775V14.7129H4V17.7129Z" fill="black"/>
</svg>
