<svg width="473" height="48" viewBox="0 0 473 48" fill="none" xmlns="http://www.w3.org/2000/svg">
<path fill-rule="evenodd" clip-rule="evenodd" d="M79.1786 1.37337C48.2854 2.18718 57.8455 3.89459 75.9034 3.67119C102.282 3.35205 188.765 1.97974 257.014 2.15527C348.365 2.39463 379.17 2.31484 413.692 3.19248C442.55 3.94246 446.94 2.81481 454.553 5.70304C461.812 8.47957 466.294 7.80469 467.151 18C466.708 18.5745 467.512 21.9415 466.981 24C466.981 40.2229 451.313 39.8512 437.416 41.7661C427.147 43.1703 430.245 41.1065 337.123 42.0639C253.384 42.9256 97.5906 45.7021 69.4415 45.8298C37.9287 45.9734 26.0132 45.0479 19.1972 42.6224C1.05121 36.1119 3.58222 15.0805 12.3453 8.57001C16.0631 5.8254 33.5027 4.34139 44.2135 3.27226C50.3213 2.64994 50.7639 2.45845 46.6921 2.1074C25.8901 0.288292 8.80622 4.94776 3.76063 13.8199C-3.23238 26.2026 1.37071 36.8459 2.96405 38.1863C10.234 45 37.0435 48.0159 73.6904 47.9999C109.098 47.984 231.874 45.5266 320.305 44.5372C433.875 43.2766 437.061 45.7394 450.251 43.5373C458.129 42.2129 463.971 40.2183 466.981 37.4098C472.115 32.511 470.534 23.7 471.967 18.5C472.942 8.20004 470.161 9 465.947 5.70304C455.148 2.46375 438.566 1.6606 418.118 1.19785C391.563 0.607434 384.216 0.192549 323.403 0.0968061C305.611 0.0489349 147.869 -0.445734 79.1786 1.37337Z" fill="black"/>
</svg>
