<svg width="351" height="154" viewBox="0 0 351 154" fill="none" xmlns="http://www.w3.org/2000/svg">
<g filter="url(#filter0_d_284_2146)">
<path d="M274.666 136.99C286.745 135.422 299.049 133.609 310.355 127.375C317.263 123.697 323.584 118.286 328.944 111.461C334.304 104.637 338.593 96.5392 341.556 87.6505C344.402 78.6946 345.511 69.0509 344.783 59.5887C344.055 50.1265 341.513 41.143 337.385 33.4478C325.113 11.7887 301.822 7.10115 280.836 4.86317C214.252 -2.02281 147.111 -1.59534 80.127 6.14024C64.2643 7.89784 48.2472 10.0973 33.0515 17.0813C25.5298 20.078 18.5794 25.2763 12.7508 32.2646C0.508179 48.1761 -0.820435 72.8227 0.33197 94.7306C0.48111 106.346 2.50427 117.694 6.27176 128.049C16.4047 152.554 40.9082 146.373 59.4812 147.101C83.7835 148.005 108.105 148.227 132.445 147.767C179.905 146.763 227.312 143.17 274.666 136.99Z" fill="#C6FF2A"/>
</g>
<defs>
<filter id="filter0_d_284_2146" x="0" y="0" width="351" height="154" filterUnits="userSpaceOnUse" color-interpolation-filters="sRGB">
<feFlood flood-opacity="0" result="BackgroundImageFix"/>
<feColorMatrix in="SourceAlpha" type="matrix" values="0 0 0 0 0 0 0 0 0 0 0 0 0 0 0 0 0 0 127 0" result="hardAlpha"/>
<feOffset dx="6" dy="6"/>
<feComposite in2="hardAlpha" operator="out"/>
<feColorMatrix type="matrix" values="0 0 0 0 0 0 0 0 0 0 0 0 0 0 0 0 0 0 1 0"/>
<feBlend mode="normal" in2="BackgroundImageFix" result="effect1_dropShadow_284_2146"/>
<feBlend mode="normal" in="SourceGraphic" in2="effect1_dropShadow_284_2146" result="shape"/>
</filter>
</defs>
</svg>
