<svg width="32" height="32" viewBox="0 0 32 32" fill="none" xmlns="http://www.w3.org/2000/svg">
<path d="M15.0168 5.30409C15.2189 4.21378 16.7811 4.21378 16.9832 5.30409L17.5529 8.3769C17.6975 9.15683 18.649 9.46602 19.2244 8.92002L21.4914 6.76889C22.2958 6.00561 23.5597 6.92389 23.0824 7.92477L21.737 10.7455C21.3956 11.4615 21.9837 12.271 22.7701 12.1675L25.8686 11.7597C26.968 11.615 27.4507 13.1008 26.4763 13.6299L23.7299 15.1212C23.0328 15.4997 23.0328 16.5003 23.7299 16.8788L26.4763 18.3701C27.4507 18.8992 26.968 20.385 25.8686 20.2403L22.7701 19.8325C21.9837 19.729 21.3956 20.5385 21.737 21.2545L23.0824 24.0752C23.5597 25.0761 22.2958 25.9944 21.4914 25.2311L19.2244 23.08C18.649 22.534 17.6975 22.8432 17.5529 23.6231L16.9832 26.6959C16.7811 27.7862 15.2189 27.7862 15.0168 26.6959L14.4471 23.6231C14.3025 22.8432 13.3509 22.534 12.7755 23.08L10.5086 25.2311C9.70418 25.9944 8.44029 25.0761 8.91764 24.0752L10.263 21.2545C10.6044 20.5385 10.0163 19.729 9.22986 19.8325L6.13142 20.2403C5.03202 20.385 4.54926 18.8992 5.52374 18.3701L8.27013 16.8788C8.96721 16.5003 8.96721 15.4997 8.27013 15.1212L5.52374 13.6299C4.54926 13.1008 5.03202 11.615 6.13142 11.7597L9.22986 12.1675C10.0163 12.271 10.6044 11.4615 10.263 10.7455L8.91763 7.92476C8.44028 6.92389 9.70418 6.00561 10.5086 6.76889L12.7756 8.92002C13.351 9.46602 14.3025 9.15683 14.4471 8.37689L15.0168 5.30409Z" fill="#D8D8D8"/>
<path d="M15.0673 2.86498C15.3552 1.97883 16.6121 1.98803 16.887 2.8783C16.9152 2.96953 16.9295 3.06446 16.9295 3.15993V15.5844V17.8885V22.1157C16.9295 22.4801 16.4793 22.6516 16.2369 22.3795C16.1014 22.2273 15.8726 22.2027 15.7078 22.3224L9.08349 27.1353C8.29977 27.7047 7.2453 26.9385 7.54465 26.0172L9.9613 18.5795C10.0952 18.1675 9.94852 17.7161 9.59803 17.4615L3.27115 12.8647C2.48743 12.2953 2.89021 11.0557 3.85893 11.0557H11.6794C12.1126 11.0557 12.4966 10.7768 12.6304 10.3647L15.0673 2.86498Z" fill="#FFBD00"/>
</svg>
