<svg width="96" height="90" viewBox="0 0 96 90" fill="none" xmlns="http://www.w3.org/2000/svg">
<path d="M13.3085 77.0266C2.80847 75.0266 1.80797 39.0266 7.30847 22.0266C11.7074 8.43102 17.1382 3.6957 19.3062 3.0266C20.3062 2.35994 29.3062 1.9266 57.3062 5.5266C78.9549 8.31001 88.9754 15.567 91.8062 22.0266C93.5519 26.0104 91.1154 30.0007 91.3062 31.5266C91.8062 35.5266 85.3062 80.5266 76.3062 85.5266C67.3062 90.5266 23.8085 79.0266 13.3085 77.0266Z" fill="#FBFF47"/>
<path fill-rule="evenodd" clip-rule="evenodd" d="M41.7925 0.664906C32.1896 -0.241039 30.0561 0.248814 32.2753 2.84459C32.8548 3.57662 39.3812 4.96363 53.687 7.32866C79.3071 11.61 83.2732 12.7817 85.8114 16.6934C88.4754 20.7848 94.5482 22.9578 95.0733 19.9799C95.3157 18.6055 90.7695 12.6863 88.3484 11.2359C83.5061 8.33507 55.1908 1.92515 41.7925 0.664906ZM14.8707 1.9802C-2.01567 13.8042 -4.60295 77.5928 11.8224 76.8674C14.9215 76.7052 15.0337 75.6228 12.0556 73.7592C6.32839 70.0725 5.50925 52.2698 7.53595 46.5346C9.61013 40.1295 6.53735 40.5851 8.74062 25.8571C11.7471 5.6809 18.6888 3.99185 23.297 3.3085C25.9514 2.98923 24.8328 1.2961 21.4505 0.384797C18.6657 -0.342438 17.9246 -0.158183 14.8707 1.9802ZM89.2418 25.7226C85.8965 31.7461 89.3424 36.1328 82.9605 72.3262C82.6103 72.9731 77.0573 83.307 66.7539 83.6947C62.7115 83.848 55.7225 82.8518 40.8823 80.3925C15.9988 76.3986 15.2711 73.3814 17.4545 77.0732C20.8779 83.1092 65.8795 92.2252 76.3622 89.0348C83.0228 86.9812 87.8408 74.8401 92.5666 48.0387C95.2413 31.9767 93.8579 17.4037 89.2418 25.7226Z" fill="black"/>
<path d="M48.2618 63.4751C25.6568 63.1471 17.0709 39.686 32.1621 29.8626C41.4882 23.8732 45.8288 26.07 48.5418 27.8206C51.6904 29.8071 49.3364 30.9824 45.9431 30.3841C30.9045 27.7324 25.9543 49.2838 38.9067 56.1002C51.5643 62.7851 66.8044 46.706 57.2357 36.0331C55.3754 33.9557 55.9652 32.8669 58.6644 33.3429C72.3148 35.7498 62.4608 63.6728 48.2618 63.4751Z" fill="black"/>
<path d="M48.0843 35.4071L76.3068 7.02656L84.3074 6.52661L90.3074 18.0266L65.2911 50.1185L44.4377 56.088L48.0843 35.4071Z" fill="#FBFF47"/>
<path fill-rule="evenodd" clip-rule="evenodd" d="M79.7395 5.74815C77.4365 5.87697 75.6349 6.99507 72.0136 10.6075C70.9875 11.6371 69.9998 12.4483 69.8087 12.4146C69.2354 12.3135 67.4785 13.0171 66.6098 14.2716C66.157 14.9238 65.3653 15.7413 64.8467 16.1285C62.9664 17.852 65.0269 18.2998 60.7377 22.1887C54.2277 28.1351 51.4961 31.1725 50.9775 32.9954C50.3547 35.2505 44.3852 46.7536 44.779 48.9909C45.0377 50.5566 46.7322 51.1652 49.4063 50.8483C54.2065 50.287 63.4296 45.72 65.2218 44.6566C67.5182 43.2878 74.8581 34.3909 75.5455 34.484C76.3148 34.5914 78.0331 34.1062 78.3543 33.8813C79.8319 32.8469 84.4725 27.4435 85.0744 25.9449C85.3265 25.3138 85.2412 24.6794 85.376 23.9149C85.4579 23.4507 86.3284 22.5064 87.9599 21.0766C91.2181 18.2447 91.2598 18.1677 90.2539 14.612C88.4207 8.40493 84.9929 5.49208 79.7395 5.74815ZM82.7284 9.71364C84.9754 10.701 85.8829 12.888 86.7633 15.7178C87.5988 18.4832 88.5744 17.2719 83.4969 21.6412C83.3684 21.731 83.1658 20.9634 82.8044 20.1395C81.4307 16.9132 78.6889 14.2619 74.5885 13.0886C73.0066 12.6406 72.5135 13.2011 75.9998 9.87468C77.2187 8.71009 77.7484 9.05879 78.267 8.67164C79.1342 8.06446 80.6356 8.80974 82.7284 9.71364ZM75.1751 15.1907C78.7535 17.0886 79.9517 18.1162 81.4365 22.6289C82.3891 25.5277 82.3055 25.2034 80.3529 26.8579C79.59 27.5116 79.5355 27.502 79.431 26.9768C79.0984 25.0319 78.7256 23.9528 77.4341 22.1766C75.0005 19.2138 73.9196 20.7144 75.7686 23.7993C77.8729 27.3516 78.2797 28.2378 76.865 30.353C76.0286 31.5851 75.5098 31.9721 75.4743 31.3747C74.876 24.7097 71.5575 21.3376 67.3656 20.2042C65.6197 19.7275 65.4461 19.2746 66.6218 18.3558C67.3379 17.8063 68.1586 18.2609 70.2401 18.9094C71.1717 19.2144 71.4574 17.9135 70.4406 17.4527C69.1109 16.8521 68.7285 16.3062 70.082 14.8558C71.3203 13.582 72.2679 13.6364 75.1751 15.1907ZM72.3774 16.0487C71.8009 16.2849 71.5439 16.9434 73.2079 17.8843C74.7948 18.7835 75.7456 18.5006 75.8804 17.7362C75.9334 17.4359 75.7968 16.9332 75.0885 16.6395C74.149 16.2203 72.7115 15.9105 72.3774 16.0487ZM68.5414 22.157C68.8079 22.4011 68.8306 22.4332 67.5555 23.7568C64.421 27.0047 63.1604 28.2462 62.2739 28.9627C61.7825 29.3547 60.6088 30.5834 59.6549 31.6821C56.5669 35.3041 54.2658 36.2216 53.7209 34.0422C53.5186 33.2746 54.7295 32.6435 55.2498 32.0876C56.7416 30.4927 63.8855 21.4205 65.5139 21.2853C66.8598 21.1567 68.1301 21.7749 68.5414 22.157ZM71.4519 24.3311C73.1016 26.7898 73.1387 28.1759 71.2133 29.8351C67.6243 32.9465 61.8801 38.3805 59.7876 39.3911C58.3729 40.0707 59.2191 37.5171 59.8631 35.9417C60.7171 33.8118 63.0984 31.1632 68.1424 26.5067C71.0441 23.7808 70.5796 23.0514 71.4519 24.3311ZM73.075 31.571C73.051 32.186 73.2343 33.0629 72.42 33.8485C71.8403 34.4218 69.9005 36.6416 68.3478 38.4229C65.6565 41.5519 62.5169 43.3912 62.4044 42.7522C62.2614 41.9668 64.4338 38.7464 66.2323 37.0084C70.7254 32.7615 73.1436 29.1057 73.075 31.571ZM56.3537 37.6312C56.0552 39.8027 57.1748 40.9572 59.4056 40.7595C60.8333 40.6453 60.8382 40.6178 60.0658 41.8049C59.7191 42.3349 59.4382 43.1299 59.4156 43.5765C59.398 44.4743 59.0785 44.5305 56.7404 45.4977C56.4062 45.6357 56.0383 45.4864 55.9003 45.1525C55.1019 43.2943 53.722 42.1783 52.05 41.602C50.3781 41.0257 50.4344 41.3454 51.4345 38.7065L52.2807 36.4627C52.6356 36.5253 53.8932 37.0566 55.2181 36.7272C55.7755 36.6003 56.3601 36.4782 56.3601 36.4782C56.3601 36.4782 56.4596 37.0305 56.3537 37.6312Z" fill="black"/>
</svg>
