<svg width="357" height="154" viewBox="0 0 357 154" fill="none" xmlns="http://www.w3.org/2000/svg">
<g filter="url(#filter0_d_284_2149)">
<path d="M276.964 5.89417C289.245 7.04169 301.763 8.42906 313.423 14.3163C320.542 17.7812 327.128 23.0183 332.79 29.7165C338.452 36.4146 343.073 44.4368 346.379 53.3058C349.57 62.2469 351.026 71.9453 350.616 81.5265C350.206 91.1078 347.943 100.271 344.031 108.191C332.357 130.505 308.943 136.078 287.777 139.095C220.615 148.449 152.637 150.438 84.5641 145.042C68.4461 143.839 52.1567 142.196 36.5333 135.691C28.8159 132.936 21.6006 127.937 15.4589 121.091C2.5162 105.465 0.319238 80.6242 0.728426 58.4598C0.477841 46.7253 2.13348 35.1924 5.58916 24.6005C14.9992 -0.509874 40.0167 4.84818 58.7921 3.44292C83.3611 1.65357 107.973 0.5525 132.627 0.139257C180.704 -0.55756 228.816 1.36067 276.964 5.89417Z" fill="#FFAA52"/>
</g>
<defs>
<filter id="filter0_d_284_2149" x="0.683594" y="0" width="356" height="154" filterUnits="userSpaceOnUse" color-interpolation-filters="sRGB">
<feFlood flood-opacity="0" result="BackgroundImageFix"/>
<feColorMatrix in="SourceAlpha" type="matrix" values="0 0 0 0 0 0 0 0 0 0 0 0 0 0 0 0 0 0 127 0" result="hardAlpha"/>
<feOffset dx="6" dy="6"/>
<feComposite in2="hardAlpha" operator="out"/>
<feColorMatrix type="matrix" values="0 0 0 0 0 0 0 0 0 0 0 0 0 0 0 0 0 0 1 0"/>
<feBlend mode="normal" in2="BackgroundImageFix" result="effect1_dropShadow_284_2149"/>
<feBlend mode="normal" in="SourceGraphic" in2="effect1_dropShadow_284_2149" result="shape"/>
</filter>
</defs>
</svg>
