<svg width="118" height="118" viewBox="0 0 118 118" fill="none" xmlns="http://www.w3.org/2000/svg">
<path fill-rule="evenodd" clip-rule="evenodd" d="M80.4132 81.3331C79.3238 72.3878 83.6777 64.9354 93.5269 53.3155C101.164 44.3136 101.504 41.6985 103.556 35.6456C104.058 34.1695 104.638 32.0915 104.749 31.3609C104.769 31.2104 104.911 31.4543 105.133 32.0272C105.87 33.9489 106.866 35.0492 107.587 34.7108C108.469 34.3035 108.492 34.101 107.865 33.0384C107.105 31.7638 105.426 26.3602 105.177 24.4103C105.075 23.5832 104.03 23.1282 102.708 27.2167C102.072 29.1815 101.177 30.8483 99.573 33.0897C97.8261 35.5316 97.511 36.0775 97.7738 36.2292C98.4208 36.6028 99.9033 34.9921 102.266 31.3426L103.183 29.9176C103.178 29.9277 102.888 34.5856 99.8641 40.8731C98.543 43.6282 96.6203 46.2113 91.113 52.6687C83.648 61.4195 80.3427 67.2612 78.8619 74.3317C78.0721 78.0809 78.2199 83.8947 79.117 84.0217C80.2124 84.1555 80.6479 83.2612 80.4132 81.3331Z" fill="black"/>
<path fill-rule="evenodd" clip-rule="evenodd" d="M61.111 17.5818C64.7445 16.5063 65.8083 16.5069 71.4267 17.3862C89.4696 20.2493 88.3882 23.0612 83.4987 35.775C83.4479 35.9071 83.3967 36.0403 83.3451 36.1745C83.3475 36.1752 83.3726 36.1807 83.4187 36.191C84.2243 36.3706 91.4694 37.9857 97.5236 39.917L96.0672 42.2751C95.9495 42.255 95.8315 42.2368 95.7132 42.2204C88.443 41.2307 83.159 39.0309 82.446 38.7341C82.3965 38.7135 82.369 38.702 82.3644 38.7008C82.3637 38.7035 82.3217 38.8458 82.2425 39.1144C80.7451 44.1918 65.9427 94.3842 65.0768 98.9634L85.6801 104.484C85.7869 104.513 85.9024 104.545 86.0244 104.579C86.956 104.838 88.2701 105.205 89.0231 104.903C89.6912 104.673 89.9677 103.295 90.1534 102.369C90.2005 102.135 90.2417 101.929 90.282 101.779C95.7142 81.3166 97.0257 74.9635 98.7916 66.4095C99.6671 62.169 100.654 57.3876 102.31 50.0783C102.614 48.7906 102.554 47.6608 102.227 46.6876C102.938 45.4272 103.722 44.011 104.436 42.708C104.95 43.0179 105.349 43.3227 105.602 43.6183C106.58 44.7909 106.352 46.2095 101.84 64.7502C98.9732 76.5843 96.9905 84.9369 95.5733 90.907C93.4446 99.8744 92.5918 103.467 91.9345 105.409C91.2662 107.336 88.6691 108.233 86.1436 107.443L82.4978 106.295C75.9017 104.243 66.0986 102.243 64.9917 102.686C64.8212 102.754 64.6503 103.96 64.6349 105.436C64.632 109.304 63.9559 109.158 50.7689 106.318C49.4043 106.024 47.9056 105.701 46.2598 105.351L46.2598 105.351C45.8344 105.237 45.4091 105.123 45.0117 104.902C37.0122 100.994 18.8924 93.1224 9.98427 89.4836C3.56447 86.8956 3.79161 86.6353 4.82484 85.4515C5.2824 84.9273 5.89803 84.2219 6.16451 83.0531C6.17167 83.0264 8.81289 69.9651 11.4491 56.9287C14.0752 43.9419 16.6964 30.9799 16.7035 30.9535C16.9601 29.7128 17.9824 28.7349 19.4725 28.2804C30.6864 25.0606 38.5307 23.2184 45.282 21.6329C50.8771 20.3189 55.7214 19.1812 61.111 17.5818ZM72.1067 64.5353C77.6821 45.6186 83.4565 26.0261 81.3883 24.2101C77.6872 20.9989 68.9009 17.7247 68.393 25.8708C67.1637 30.1863 65.6951 37.5866 64.4813 43.7028C63.666 47.8109 62.9657 51.3396 62.5301 52.9652C61.9096 58.0481 59.6388 65.6727 58.0581 70.98C57.3594 73.3259 56.7956 75.2191 56.5687 76.24C55.202 82.1914 54.2219 83.5795 52.8898 81.4579C52.5789 80.988 53.6153 77.1345 55.1633 71.3783C56.5781 66.1177 58.4203 59.268 60.052 51.9595C61.7256 44.5624 62.4776 39.0364 63.4404 31.9621C63.9024 28.567 64.413 24.8153 65.0973 20.329C54.5559 22.0529 42.9135 24.8481 34.0507 26.9759C28.2743 28.3628 23.6785 29.4662 21.3379 29.8047C19.8635 30.0432 18.5461 35.753 13.6244 57.0839C11.9143 64.4954 9.76915 73.7928 7.03107 85.4017C13.2299 87.8029 27.463 93.5057 36.087 97.9221C45.1785 102.578 46.6344 101.467 49.5348 93.1945C50.7329 89.7798 51.0133 87.7472 51.171 86.6035C51.3522 85.2902 51.3716 85.1492 52.4332 85.4336C54.1352 85.8897 54.0923 86.9026 52 95.5621C51.6234 97.076 50.7679 98.584 50.0573 99.8365C48.9145 101.851 48.1465 103.204 50.3483 102.86C50.476 102.951 54.4365 103.842 60.3811 104.922C60.6925 103.972 61.0682 103.056 61.4895 102.029C62.7612 98.9289 64.449 94.8143 66.0439 85.6656C67.6936 79.5086 69.8844 72.0757 72.1067 64.5353Z" fill="black"/>
<path d="M32.0078 64.9635C32.2983 64.6547 38.3306 63.2483 41.5248 62.7478C47.2297 61.8415 47.8434 61.5809 47.7987 60.0976C47.7399 58.1616 43.8921 55.0433 36.9656 51.3032C32.9121 49.1122 32.0037 48.7818 30.8763 49.051C30.3687 49.1608 30.1611 49.4384 29.9866 50.0732C29.9819 50.0971 27.254 60.3168 26.9471 60.447C25.247 61.161 31.3688 65.6179 32.0078 64.9635ZM30.5492 61.5371C30.41 61.3307 32.7057 51.8872 32.8773 51.926C32.9754 51.9482 43.4897 57.7739 43.3875 58.3C43.3144 58.8078 30.8074 61.9201 30.5492 61.5371Z" fill="black"/>
</svg>
