<svg width="287" height="287" viewBox="0 0 287 287" fill="none" xmlns="http://www.w3.org/2000/svg">
<path d="M151.624 1.62984C145.135 -0.54328 141.165 -0.54328 134.676 1.62984C118.847 6.93118 119.534 40.4803 124.425 73.5807C112.041 42.4971 95.7945 13.136 79.443 16.4964C72.7402 17.8738 69.3061 19.8668 64.7849 25.0034C53.9118 37.3562 70.7005 65.3958 91.1499 91.2639C65.2369 70.8714 37.1605 54.1443 24.8315 65.0445C19.705 69.577 17.7195 73.0154 16.3568 79.7212C13.055 95.9688 42.0304 112.041 72.9049 124.326C40.025 119.525 6.89511 118.955 1.62984 134.676C-0.54328 141.165 -0.54328 145.135 1.62984 151.624C6.8951 167.345 40.0249 166.775 72.9048 161.974C42.0304 174.258 13.0549 190.331 16.3566 206.579C17.7194 213.285 19.7048 216.723 24.8314 221.256C37.1602 232.156 65.2362 215.429 91.149 195.037C70.6998 220.905 53.9115 248.944 64.7845 261.297C69.3057 266.433 72.7398 268.426 79.4426 269.804C95.7944 273.164 112.041 243.802 124.425 212.718C119.534 245.819 118.847 279.369 134.676 284.67C141.165 286.843 145.135 286.843 151.624 284.67C167.454 279.369 166.766 245.817 161.874 212.716C174.259 243.801 190.506 273.164 206.858 269.804C213.561 268.426 216.995 266.433 221.516 261.297C232.389 248.944 215.601 220.905 195.151 195.037C221.064 215.429 249.14 232.156 261.469 221.256C266.596 216.723 268.581 213.285 269.944 206.579C273.246 190.331 244.27 174.259 213.396 161.974C246.276 166.775 279.405 167.345 284.67 151.624C286.843 145.135 286.843 141.165 284.67 134.676C279.405 118.955 246.276 119.525 213.396 124.326C244.27 112.041 273.245 95.9687 269.944 79.7212C268.581 73.0154 266.595 69.577 261.469 65.0445C249.14 54.1443 221.064 70.8713 195.151 91.2639C215.6 65.3958 232.389 37.3562 221.516 25.0034C216.994 19.8668 213.56 17.8738 206.857 16.4964C190.506 13.1359 174.259 42.4982 161.875 73.5826C166.766 40.4815 167.453 6.93128 151.624 1.62984Z" fill="black"/>
</svg>
