<svg width="40" height="26" viewBox="0 0 40 26" fill="none" xmlns="http://www.w3.org/2000/svg">
<path d="M30.9065 11.0312L31.9945 11.0563C43.9124 11.2561 39.9398 28.5435 27.1869 23.9719C17.774 20.5993 19.52 5.08567 29.5907 2.53753C34.0441 1.41335 39.0036 2.21277 35.3093 3.46185C32.1463 4.51109 29.5907 7.53378 29.7678 10.007C29.8184 10.5566 30.2992 11.0312 30.9065 11.0312Z" fill="#AEE80F"/>
<path d="M7.22967 24.5076C-4.23277 20.1608 0.42304 1.17461 13.1506 0.350208C16.4654 0.125374 17.3257 0.899807 14.8207 1.82413C12.3916 2.72347 9.32985 6.97037 9.00091 9.84327C8.925 10.4179 9.38041 10.8926 9.96239 10.8926C13.3024 10.8926 14.6942 10.8925 16.6425 13.5405C21.4249 20.0857 15.0737 27.4804 7.22967 24.5076Z" fill="#AEE80F"/>
</svg>
