<svg width="48" height="32" viewBox="0 0 48 32" fill="none" xmlns="http://www.w3.org/2000/svg">
<path d="M37.6145 13.7847L38.9884 13.8167C54.0373 14.0723 49.021 36.1824 32.9177 30.3354C21.032 26.022 23.2366 6.18048 35.9531 2.92149C41.5764 1.4837 47.8388 2.50613 43.174 4.10368C39.1801 5.44562 35.9531 9.31155 36.1767 12.4747C36.2406 13.1776 36.8477 13.7847 37.6145 13.7847Z" fill="#55CCFF"/>
<path d="M8.25101 31.1342C-6.22275 25.5747 -0.343801 1.29198 15.7275 0.237598C19.9131 -0.0499611 20.9994 0.940517 17.8363 2.1227C14.769 3.27293 10.9029 8.70459 10.4876 12.3789C10.3917 13.1138 10.9668 13.7209 11.7016 13.7209C15.9192 13.7209 17.6765 13.7208 20.1367 17.1076C26.1755 25.4787 18.1558 34.9363 8.25101 31.1342Z" fill="#55CCFF"/>
</svg>
