<svg width="56" height="56" viewBox="0 0 56 56" fill="none" xmlns="http://www.w3.org/2000/svg">
<g clip-path="url(#clip0_355_1623)">
<path fill-rule="evenodd" clip-rule="evenodd" d="M33.2157 2.5588C38.0331 5.48252 45.3756 11.9279 54.2797 20.6989C57.5689 23.9218 56.0404 27.51 50.5583 29.2709L49.0633 29.7692C49.0633 29.7692 48.5318 46.1487 49.1299 46.8131C50.791 48.6738 48.8974 48.9728 25.2417 50.634C12.8161 51.4976 6.33744 50.8332 8.29765 48.8731C8.56345 48.6072 8.66305 47.7767 8.56337 47.0458C8.35677 45.6771 8.04985 38.1263 7.87657 33.8632C7.82691 32.6416 7.78823 31.6899 7.76603 31.2311L5.1081 30.9653C-0.7061 30.4004 -2.8324 24.6528 5.63973 17.4098C8.86444 14.6617 11.8309 11.9136 14.4956 9.44504C17.404 6.75068 19.9529 4.38944 22.0855 2.72491C25.9395 -0.265246 29.1624 0.100232 33.2157 2.5588ZM24.3352 46.8386C24.3384 46.8634 24.3416 46.8882 24.3447 46.9129C24.6082 46.8805 24.9726 46.8417 25.4048 46.799L44.3336 46.0979L44.3475 45.7909L44.6446 45.7831H44.6115V39.9843L45.2444 26.0604C47.5118 27.7335 48.4779 27.6303 49.5618 26.5466C51.1564 24.9518 50.9571 23.2906 48.9306 21.5628C48.6647 21.3304 34.7108 8.47265 34.6773 8.43943C32.3518 6.21342 29.8599 3.95419 29.1956 3.45584C26.7037 1.56207 26.5376 1.69499 15.8726 12.6257C15.5773 12.9278 15.2892 13.2224 15.0082 13.5096C9.72762 18.9087 6.97302 21.7251 5.80584 23.523C4.14465 26.0481 6.23776 29.6031 9.29435 27.2773C9.95226 26.769 10.7716 26.052 11.8252 25.081L12.8336 47.2646L15.1515 47.1787H21.255L21.2248 46.9538L24.3352 46.8386Z" fill="black"/>
<rect x="23" y="43" width="11" height="11" fill="#F9F9F9"/>
<path fill-rule="evenodd" clip-rule="evenodd" d="M34.2351 14.2151C29.1207 11.1044 23.9291 12.352 18.8788 17.961C13.6894 23.6937 16.3033 32.4399 24.177 35.6827L25.6353 36.2762C25.6839 38.0357 25.8367 38.1734 24.3509 37.8871C23.1738 37.6575 22.8236 38.2001 23.1476 38.8238C23.5847 39.6601 24.1199 47.0882 23.8154 48.5021C22.6909 53.7161 28.6995 56.9401 30.7852 53.9475C31.7333 52.5872 32.0806 50.3264 31.8884 48.3268C31.684 46.0949 31.8218 44.5586 32.4613 42.035C33.0901 39.5847 32.6409 38.5161 30.8906 38.1854C30.14 38.0354 30.0804 38.0094 30.0407 37.5309C29.9324 36.5754 30.2519 36.282 31.8036 35.8804C37.778 34.286 40.9429 31.0475 41.1349 26.3775C41.4052 19.8685 37.55 18.8326 38.3078 21.618C40.1623 28.3798 34.7865 33.8893 26.2289 33.988C21.4701 34.0479 17.3987 28.0575 19.0811 23.4841C21.773 16.2221 31.6306 12.3128 36.2828 18.5494C37.785 20.8153 41.2755 18.5064 34.2351 14.2151ZM30.2924 40.3865C29.9606 41.001 29.5718 43.861 29.622 45.0962C29.6997 46.5775 29.5681 47.3999 29.586 49.4086C29.6113 53.4993 25.1566 53.5287 25.7628 48.9826C26.5252 43.2487 25.2677 40.0963 25.6698 39.7111C26.1835 39.2328 30.5708 39.8623 30.2924 40.3865Z" fill="black"/>
<path d="M33.5 22.5L48 8.5L52.5 12.5L37.5 26L33.5 22.5Z" fill="white"/>
<path fill-rule="evenodd" clip-rule="evenodd" d="M-435.942 14.6208C-438.886 15.1021 -436.905 17.0555 -434.47 17.3953C-432.432 17.6784 -428.525 17.6784 -420.117 17.6501C-409.868 17.6218 -405.48 17.735 -404.829 18.0181C-403.215 18.7541 -402.507 21.5852 -402.054 29.2573C-401.885 31.9751 -401.545 36.0518 -401.29 38.3167C-400.497 45.5925 -401.233 46.3002 -410.548 46.6683C-414.143 46.8098 -418.814 47.0929 -420.909 47.2911C-430.705 48.2253 -436.791 48.0554 -440.189 46.6965C-443.02 45.5641 -442.878 44.6582 -442.963 42.7614C-443.161 39.081 -443.076 31.5788 -442.708 24.7559C-442.397 19.0372 -442.029 17.9048 -440.189 17.0555C-439.056 16.5459 -439.453 15.9514 -440.868 16.008C-442.991 16.1213 -444.633 16.829 -444.945 20.1414C-445.341 24.2181 -447.861 46.6116 -443.331 48.5084C-440.359 49.7541 -435.178 50.9714 -433.139 50.9714C-431.724 50.9714 -431.78 52.5568 -433.196 52.9815C-436.452 53.9157 -434.158 56.1805 -429.855 56.3504C-421.136 56.6335 -408.396 55.9258 -408.283 55.1048C-408.169 54.2838 -410.01 52.4153 -410.972 52.4153C-411.284 52.4153 -411.482 52.0472 -411.482 51.5093C-411.482 50.7449 -411.482 49.6691 -410.604 49.6691C-406.839 49.6691 -404.829 49.4993 -403.697 49.2445C-398.176 48.0554 -397.949 44.3185 -398.006 42.1386C-398.204 33.2208 -399.875 24.6994 -399.875 22.6893C-399.903 19.2072 -401.941 15.7816 -406.301 15.1587C-408 14.6491 -433.026 14.1395 -435.942 14.6208ZM-415.898 50.1505C-414.766 50.4619 -415.19 51.481 -415.077 52.4153L-428.157 52.6417C-428.157 52.5568 -427.93 50.3203 -427.93 50.4618C-427.024 50.4335 -418.729 50.0938 -417.597 50.0089C-417.144 49.9523 -416.351 50.0372 -415.898 50.1505Z" fill="black"/>
<path d="M32.3071 16.9925C33.213 17.9267 36.497 21.5788 36.8367 21.9468C36.8651 21.9185 43.6878 13.85 46.1225 11.84C48.1891 10.0847 52.096 11.2455 49.5481 13.7934C46.9718 16.3697 44.9335 18.5779 41.3664 21.8902C37.2331 25.1176 37.5445 25.0893 34.9966 22.6263C31.2029 18.9459 31.5993 18.9176 27.2395 23.3906C23.8706 26.8445 23.3326 27.2409 22.2002 27.2409C18.8879 27.2409 19.1993 25.7121 23.2194 22.3149C24.3801 21.324 26.3335 19.597 27.5792 18.4363C30.0139 16.1998 31.1747 15.8318 32.3071 16.9925Z" fill="black"/>
</g>
<defs>
<clipPath id="clip0_355_1623">
<rect width="56" height="56" fill="white"/>
</clipPath>
</defs>
</svg>
