<svg width="40" height="40" viewBox="0 0 40 40" fill="none" xmlns="http://www.w3.org/2000/svg">
<g clip-path="url(#clip0_438_3220)">
<rect width="40" height="40" fill="#FF9D56"/>
<path d="M16.3796 27.2382C16.5935 26.8817 21.9398 24.2442 24.8148 23.08C29.9473 20.9889 30.47 20.6087 30.161 19.2069C29.7572 17.3773 25.6227 15.2387 18.518 13.1715C14.3599 11.9596 13.457 11.8408 12.459 12.3398C12.0075 12.5537 11.8649 12.8625 11.8174 13.5042C11.8174 13.5279 11.1283 23.8403 10.8669 24.0303C9.41751 25.0758 15.9044 27.9985 16.3796 27.2382ZM14.4075 24.2918C14.2411 24.1254 14.6688 14.6447 14.8351 14.6447C14.9302 14.6447 25.7417 17.9237 25.7417 18.4464C25.7654 18.9454 14.7163 24.6006 14.4075 24.2918Z" fill="black"/>
<path d="M39.5246 13.8134C37.6476 6.89885 35.7702 5.68702 25.9569 5.11675C20.2303 4.7841 11.1063 4.66529 9.03901 4.92668C7.13812 5.16428 4.59557 6.30482 3.95401 7.20774C3.71641 7.5404 3.14614 8.27701 2.64714 8.87104C1.22147 10.5818 1.88688 11.7462 4.40557 12.0075C5.09465 12.0788 5.75993 11.6748 6.02129 11.0333C6.28267 10.4393 6.54409 9.7502 6.78169 9.10864C7.23315 7.84929 8.01715 7.35031 9.96556 7.06518C15.2644 6.30482 26.3845 7.37407 28.143 7.42159C33.8457 7.63545 34.8201 7.92058 35.1765 9.5126C37.2912 19.2547 36.5783 23.7219 36.0793 25.4088C34.107 32.1333 30.4953 31.9908 9.60915 31.9671C8.46861 31.9671 7.39945 31.4918 6.61532 30.6839C2.78977 26.6682 2.29069 20.2052 3.78764 15.4528C4.07278 14.5263 1.86297 13.2668 1.17391 13.9559C-0.109204 15.2391 -1.62998 27.9275 4.33411 32.1808C7.66068 34.557 27.3827 35.6737 31.1369 34.9134C33.8219 34.3907 37.7899 30.8264 38.8355 28.07C39.9999 24.8624 40.4038 17.045 39.5246 13.8134Z" fill="black"/>
</g>
<defs>
<clipPath id="clip0_438_3220">
<rect width="40" height="40" fill="white"/>
</clipPath>
</defs>
</svg>
