<svg width="33" height="32" viewBox="0 0 33 32" fill="none" xmlns="http://www.w3.org/2000/svg">
<path fill-rule="evenodd" clip-rule="evenodd" d="M23.31 8.22215C22.1708 8.64935 19.0889 10.4395 16.8512 10.1344C15.3763 9.93097 15.2543 10.5311 16.6986 10.8667C17.7565 11.1108 19.1702 11.0294 20.3908 10.6531C19.394 11.5685 14.705 15.6575 8.82596 21.3636C7.64608 22.513 7.59522 22.7368 8.05293 22.93C8.6327 23.164 9.14125 23.0927 9.55827 22.7163C9.56844 22.7061 22.0487 11.2532 22.1707 11.3855C22.1911 11.4058 22.1302 11.6804 22.0488 12.0161C21.469 14.2843 21.6825 15.5862 22.6285 15.4947C23.076 15.454 23.3812 14.8234 23.6254 13.4502C23.7271 12.8806 24.0424 11.6092 24.3272 10.6124C25.0392 8.07975 24.8561 7.64238 23.31 8.22215Z" fill="black"/>
<path d="M28.2911 6.9216C26.8255 6.9216 26.517 7.63616 27.4941 8.82707C31.1454 13.2996 27.8026 24.1237 21.7857 27.273C16.9001 29.8136 11.8088 28.6757 8.26036 25.7381C2.75768 21.1597 1.39484 13.5643 8.36319 6.44524C12.7088 1.99916 17.5944 1.46986 21.9142 4.53977C23.997 5.99534 24.9741 6.10119 26.7483 5.0426C29.3711 3.45472 25.6426 1.33753 20.9628 0.411267C5.66327 -2.63218 -5.0849 11.7382 4.30051 26.2674C9.10893 33.704 24.4085 33.9686 29.0112 26.6908C34.3596 18.2485 33.9481 6.9216 28.2911 6.9216Z" fill="black"/>
</svg>
