<svg width="41" height="40" viewBox="0 0 41 40" fill="none" xmlns="http://www.w3.org/2000/svg">
<path d="M28.3523 3.41815L35.8292 4.48634L37.9656 8.33189C38.037 8.54553 38.2651 10.8528 38.6065 18.373C39.0332 27.7732 36.4701 34.8233 35.1883 35.6779C33.9064 36.5325 11.2611 38.8825 6.7746 34.8233C2.28814 30.7642 2.71543 8.33189 5.92004 5.34092C8.48373 2.94814 21.5158 2.91965 27.7114 3.20451L28.3523 3.41815Z" fill="#FBFF47"/>
<path fill-rule="evenodd" clip-rule="evenodd" d="M15.6493 2.65742C11.6434 2.98048 10.8034 3.33585 11.9018 4.24043C12.1925 4.49888 14.9709 4.59581 21.0122 4.5312C31.8349 4.43428 33.5471 4.62811 34.8716 6.04959C36.2608 7.53568 38.9099 7.98797 38.9099 6.72802C38.9099 6.14651 36.6162 4.04659 35.5178 3.62661C33.3209 2.78665 21.2383 2.20513 15.6493 2.65742ZM4.69752 5.14501C-1.37608 11.2186 2.17759 37.5806 8.86501 36.0945C10.125 35.8038 10.0927 35.3515 8.73581 34.8023C6.119 33.7038 4.49479 26.458 4.91146 23.958C5.29913 21.1797 4.07122 21.5889 3.90969 15.3861C3.68355 6.88955 6.40975 5.69422 8.25122 5.0804C9.31733 4.75733 8.73581 4.14352 7.28203 4.01429C6.08669 3.91737 5.79593 4.0466 4.69752 5.14501ZM36.9325 9.50637C35.9957 12.2201 37.727 13.7708 37.727 29.084C37.6301 29.3748 36.0992 34.017 31.8994 34.9215C30.2518 35.2769 27.3118 35.3738 21.0444 35.4384C10.5448 35.6 10.0279 34.4146 11.191 35.7715C13.0324 38.0006 32.1578 38.4852 36.2284 36.4176C38.8129 35.093 39.9115 29.7625 39.9115 18.4229C39.8468 11.6386 38.2248 5.75884 36.9325 9.50637Z" fill="black"/>
<path d="M22.6774 27.9628C13.378 29.4638 8.15738 20.458 13.6391 15.3352C17.0326 12.2028 18.9727 12.7901 20.2126 13.3122C21.6483 13.8995 20.7674 14.5521 19.3317 14.5521C12.9689 14.5521 12.497 23.7536 18.3051 25.6135C23.9826 27.4407 29.0728 19.7402 24.3742 16.0531C23.4606 15.3352 23.6238 14.8458 24.7658 14.8458C30.5412 14.8458 28.5181 27.0166 22.6774 27.9628Z" fill="black"/>
<path d="M22.7812 16.0308L32.0496 1.28181L33.8858 0.962464C35.7504 0.638194 37.6275 1.46386 38.6486 3.05735L39.3149 4.09724C39.7476 4.77258 39.7656 5.63339 39.3615 6.32622L30.9062 20.8225L22.7812 24.7808V16.0308Z" fill="#FBFF47"/>
<path fill-rule="evenodd" clip-rule="evenodd" d="M33.6189 1.57011C32.6832 1.78959 32.0248 2.37875 30.8003 4.12307C30.4537 4.61979 30.1071 5.02412 30.0262 5.02412C29.7837 5.02412 29.1137 5.43995 28.848 6.01756C28.7094 6.31796 28.4437 6.71068 28.2589 6.90708C27.612 7.75036 28.4899 7.785 27.0113 9.69109C24.7702 12.6021 23.8691 14.0461 23.7882 14.8317C23.6958 15.8021 22.0786 20.9542 22.4021 21.8437C22.6215 22.4674 23.3609 22.5946 24.4352 22.271C26.3643 21.6934 29.8184 19.1521 30.4769 18.5861C31.3202 17.8582 33.6883 13.6765 33.9771 13.6649C34.3005 13.6533 34.9705 13.3299 35.086 13.2144C35.6175 12.683 37.1308 10.13 37.2693 9.47157C37.3271 9.19437 37.2462 8.94021 37.2462 8.61677C37.2462 8.42036 37.5351 7.96989 38.1011 7.26516C39.2332 5.8674 39.2447 5.83276 38.5747 4.44651C37.3733 2.03217 35.756 1.08493 33.6189 1.57011ZM35.1323 2.98103C36.1257 3.22363 36.6563 4.05536 37.2223 5.15281C37.7653 6.22713 38.078 5.65948 36.3106 7.81973C36.2644 7.86588 36.1257 7.56557 35.9178 7.25364C35.1207 6.02916 33.8038 5.13964 32.0363 4.95484C31.3548 4.88547 31.1931 5.15115 32.3829 3.53395C32.7988 2.96789 33.0414 3.07265 33.2262 2.87626C33.5381 2.56437 34.2081 2.76155 35.1323 2.98103ZM32.4291 5.775C34.0348 6.29484 34.6008 6.6298 35.5366 8.37412C36.1372 9.49469 36.0795 9.36765 35.398 10.1878C35.1322 10.5113 35.1092 10.5113 35.0283 10.3033C34.7511 9.52933 34.52 9.11349 33.8615 8.47812C32.6486 7.43844 32.3136 8.13239 33.2956 9.26447C34.416 10.5698 34.6471 10.9041 34.2196 11.8744C33.9656 12.4405 33.7807 12.6368 33.7229 12.3942C32.9951 9.70261 31.3895 8.55901 29.5874 8.39724C28.8365 8.32797 28.7325 8.15469 29.1484 7.6926C29.4025 7.41532 29.7722 7.54244 30.6732 7.65796C31.0775 7.71572 31.1007 7.16124 30.6501 7.04572C30.061 6.89548 29.8646 6.69916 30.3151 6.00604C30.731 5.3938 31.1238 5.34756 32.4291 5.775ZM31.3432 6.32948C31.1238 6.46812 31.0659 6.75692 31.8168 7.0226C32.5331 7.27676 32.9027 7.09188 32.9027 6.76844C32.9027 6.6414 32.8103 6.445 32.4984 6.37572C32.0826 6.27172 31.4703 6.2486 31.3432 6.32948ZM30.2111 9.11349C30.3382 9.19437 30.3498 9.20589 29.9223 9.84125C28.8711 11.4008 28.4437 12.0014 28.1318 12.3596C27.9585 12.556 27.5658 13.1451 27.2538 13.6649C26.2488 15.3746 25.371 15.9176 24.9897 15.0627C24.8511 14.7624 25.3023 14.4158 25.4756 14.1501C25.9723 13.3877 28.2474 9.14813 28.9058 8.97485C29.4487 8.82469 30.0147 8.98645 30.2111 9.11349ZM31.5627 9.79501C32.4175 10.6845 32.5331 11.2506 31.8631 12.0708C30.6155 13.6072 28.6516 16.2525 27.8661 16.8186C27.3347 17.1998 27.4972 16.0908 27.6475 15.3978C27.8438 14.462 28.6293 13.2029 30.3621 10.9272C31.3556 9.59869 31.1122 9.33301 31.5627 9.79501ZM32.7526 12.6484C32.7872 12.9025 32.9259 13.249 32.6486 13.6303C32.4522 13.9075 31.8168 14.9587 31.3086 15.802C30.4307 17.2806 29.2755 18.2626 29.1831 18.0085C29.0675 17.6966 29.7259 16.2179 30.3382 15.3746C31.8746 13.3069 32.6023 11.6318 32.7526 12.6484ZM26.3297 16.3449C26.3643 17.2576 26.9073 17.6503 27.8083 17.4078C28.3859 17.2576 28.3859 17.246 28.1549 17.789C28.051 18.0315 27.9932 18.3781 28.0162 18.563C28.074 18.9326 27.947 18.9788 27.0575 19.5449C26.9304 19.6257 26.7686 19.591 26.6878 19.464C26.2258 18.7593 25.5788 18.4012 24.851 18.2857C24.1233 18.1702 24.1695 18.2973 24.389 17.1421L24.5738 16.1602C24.724 16.1602 25.2785 16.2872 25.7983 16.0561C26.0178 15.9637 26.2489 15.8713 26.2489 15.8713C26.2489 15.8713 26.3297 16.0908 26.3297 16.3449Z" fill="black"/>
</svg>
