<svg width="188" height="49" viewBox="0 0 188 49" fill="none" xmlns="http://www.w3.org/2000/svg">
<path opacity="0.9" fill-rule="evenodd" clip-rule="evenodd" d="M24.7268 48.2761C62.3549 48.7508 95.2774 48.7192 128.238 48.4376C143.752 48.305 168.687 48.7656 176.987 45.6503C189.002 41.1409 188.324 21.3919 187.734 14.8854C187.489 12.1664 186.665 8.54937 179.988 7.13636C167.994 4.59831 151.616 4.94425 138.816 4.82121C103.944 4.48634 63.0013 4.65285 28.0486 5.0673C21.9692 5.13923 13.5264 5.28493 8.46183 6.9954C-0.843926 10.1392 -0.243185 27.8412 0.218322 33.0362C0.756646 39.1011 3.51068 48.2761 24.7268 48.2761Z" fill="#05060B"/>
<path fill-rule="evenodd" clip-rule="evenodd" d="M24.7268 43.8854C62.3549 44.3602 95.2774 44.3286 128.238 44.0469C143.752 43.9144 168.687 44.375 176.987 41.2596C189.002 36.7503 188.324 17.0013 187.734 10.4948C187.489 7.77573 186.665 4.15875 179.988 2.74574C167.994 0.207686 151.616 0.553629 138.816 0.430586C103.944 0.0957101 63.0013 0.262227 28.0486 0.676672C21.9692 0.748601 13.5264 0.894301 8.46183 2.60478C-0.843926 5.74855 -0.243185 23.4506 0.218322 28.6455C0.756646 34.7105 3.51068 43.8854 24.7268 43.8854Z" fill="#55CCFF"/>
</svg>
