<svg width="134" height="47" viewBox="0 0 134 47" fill="none" xmlns="http://www.w3.org/2000/svg">
<path opacity="0.9" fill-rule="evenodd" clip-rule="evenodd" d="M17.6244 46.6335C44.4445 47.1083 67.9105 47.0766 91.4034 46.795C102.461 46.6624 120.234 47.123 126.151 44.0077C134.714 39.4983 134.231 19.7493 133.811 13.2428C133.636 10.5238 133.049 6.9068 128.289 5.49378C119.74 2.95573 108.067 3.30168 98.9431 3.17863C74.0877 2.84376 44.9052 3.01027 19.9921 3.42472C15.6589 3.49665 9.64116 3.64235 6.03131 5.35282C-0.601522 8.4966 -0.173334 26.1987 0.155612 31.3936C0.539312 37.4585 2.5023 46.6335 17.6244 46.6335Z" fill="white"/>
<path fill-rule="evenodd" clip-rule="evenodd" d="M17.6244 43.6335C44.4445 44.1083 67.9105 44.0766 91.4034 43.795C102.461 43.6624 120.234 44.123 126.151 41.0077C134.714 36.4983 134.231 16.7493 133.811 10.2428C133.636 7.52377 133.049 3.9068 128.289 2.49378C119.74 -0.0442669 108.067 0.301676 98.9431 0.178633C74.0877 -0.156243 44.9052 0.0102738 19.9921 0.424719C15.6589 0.496648 9.64116 0.642348 6.03131 2.35282C-0.601522 5.4966 -0.173334 23.1987 0.155612 28.3936C0.539312 34.4585 2.5023 43.6335 17.6244 43.6335Z" fill="#55CCFF"/>
</svg>
