<svg width="118" height="116" viewBox="0 0 118 116" fill="none" xmlns="http://www.w3.org/2000/svg">
<path fill-rule="evenodd" clip-rule="evenodd" d="M114.011 66.7774C109.997 63.5286 109.444 62.8639 106.633 57.9363C103.333 52.1031 103.443 52.1754 101.425 55.2068C100.592 56.4684 99.8747 57.4593 99.8199 57.4231C99.765 57.3869 97.8533 56.2509 95.583 54.8464C84.7142 48.1901 83.2265 47.3181 77.7566 44.6044C67.7266 39.636 58.2786 38.4385 49.7992 41.0939C49.3077 41.242 48.4498 40.9906 47.1452 40.3182C41.7075 37.484 33.2798 36.1726 24.3865 36.7591C15.4277 37.3495 6.99524 39.9099 3.19372 42.6138C0.300718 44.6575 -1.06299 48.7032 6.8453 45.5289C17.6469 41.1933 31.8562 39.8795 41.9804 42.248C45.7468 43.1281 45.7468 43.1281 43.7146 45.2518C36.1662 53.1057 41.7045 67.9304 53.721 71.9894C67.2272 76.5121 69.8664 58.3916 57.3324 47.0286C56.1355 45.9548 55.1285 44.9749 55.0697 44.8731C54.9227 44.6185 58.0199 44.2219 60.375 44.1859C69.1901 44.0519 75.9643 46.5556 90.8829 55.5236C99.0239 60.3947 98.4555 59.7042 96.6283 62.8296C93.3751 68.3055 94.5598 70.7101 100.407 70.4909C103.968 70.3693 107.09 70.6036 112.975 71.4487C118.779 72.2724 119.09 70.871 114.011 66.7774ZM62.5575 58.6065C63.3433 63.142 59.6266 67.6977 54.9028 67.9812C49.9313 68.306 42.8258 61.8188 42.8664 57.0098C42.9059 51.9637 49.0031 44.9476 51.9815 46.5203C57.7374 49.6119 61.7942 54.2276 62.5575 58.6065Z" fill="black"/>
</svg>
