<svg width="118" height="116" viewBox="0 0 118 116" fill="none" xmlns="http://www.w3.org/2000/svg">
<path fill-rule="evenodd" clip-rule="evenodd" d="M3.87162 48.6239C7.88558 51.8727 8.43911 52.5374 11.2501 57.4651C14.5501 63.2983 14.4403 63.2259 16.4575 60.1945C17.2905 58.933 18.0081 57.942 18.0629 57.9783C18.1178 58.0145 20.0295 59.1505 22.2998 60.555C33.1686 67.2113 34.6563 68.0833 40.1263 70.797C50.1562 75.7654 59.6042 76.9629 68.0836 74.3074C68.5751 74.1594 69.433 74.4108 70.7376 75.0831C76.1753 77.9174 84.603 79.2287 93.4963 78.6423C102.455 78.0519 110.888 75.4915 114.689 72.7875C117.582 70.7439 118.946 66.6982 111.038 69.8725C100.236 74.2081 86.0266 75.5218 75.9025 73.1533C72.136 72.2732 72.136 72.2732 74.1682 70.1496C81.7166 62.2956 76.1784 47.471 64.1618 43.412C50.6557 38.8893 48.0164 57.0097 60.5504 68.3727C61.7474 69.4466 62.7543 70.4265 62.8131 70.5283C62.9601 70.7828 59.8629 71.1794 57.5078 71.2155C48.6927 71.3495 41.9185 68.8458 27 59.8778C18.859 55.0067 19.4273 55.6972 21.2545 52.5718C24.5078 47.0958 23.3231 44.6912 17.4761 44.9105C13.9146 45.0321 10.7926 44.7978 4.90811 43.9526C-0.896103 43.129 -1.20705 44.5304 3.87162 48.6239ZM55.3254 56.7949C54.5395 52.2593 58.2562 47.7037 62.98 47.4202C67.9515 47.0954 75.057 53.5825 75.0164 58.3916C74.9769 63.4376 68.8797 70.4537 65.9014 68.881C60.1454 65.7895 56.0886 61.1738 55.3254 56.7949Z" fill="black"/>
</svg>
