<svg width="50" height="49" viewBox="0 0 50 49" fill="none" xmlns="http://www.w3.org/2000/svg">
<rect x="0.847656" width="48.6159" height="48.6159" rx="11.536" fill="#55CCFF"/>
<path fill-rule="evenodd" clip-rule="evenodd" d="M24.3308 10.3958C24.609 14.5239 25.9387 29.2494 25.8768 30.605C25.5367 38.3682 20.4036 43.5745 14.7449 40.6787C7.75645 37.1052 11.6528 25.0906 19.3525 26.4461C22.3518 26.9698 22.6919 25.8916 19.7543 25.2137C9.73553 22.9033 1.57194 35.9653 9.11698 42.2806C11.9927 44.7144 20.8983 43.9133 25.8149 40.7712C30.1132 38.0294 31.1028 35.041 30.0206 28.1712C29.4639 24.5977 29.5566 22.5336 28.8452 16.1567L29.8967 16.9885C34.6897 20.87 42.111 20.2848 43.8738 15.9102C44.6159 14.0618 43.8426 13.9078 41.74 15.5097C38.5858 17.9127 35.0608 16.0026 30.8863 9.59489C27.454 4.35778 23.8669 3.15632 24.3308 10.3958Z" fill="#373737"/>
</svg>
