<svg width="50" height="49" viewBox="0 0 50 49" fill="none" xmlns="http://www.w3.org/2000/svg">
<rect x="0.539062" width="48.6159" height="48.6159" rx="11.536" fill="#FF9D56"/>
<path fill-rule="evenodd" clip-rule="evenodd" d="M41.0381 15.0114C44.1549 14.5867 44.7944 13.817 42.3169 13.4455L41.1447 13.2597L41.5444 12.49C42.2369 11.1365 42.3169 9.80947 41.7574 9.41137C41.1447 8.96019 41.3045 8.93364 39.2267 9.99526C37.1754 11.0569 36.9888 11.0569 35.2573 10.3934C30.4355 8.509 25.8533 9.6237 23.2427 13.3393L22.1237 14.9317L21.0848 13.764C18.4208 10.7384 8.21773 9.91565 6.35294 12.5697C5.26072 14.1355 6.05992 17.7715 7.8448 19.3374C8.51079 19.9213 8.72398 20.2662 8.56414 20.5317C7.89813 21.5934 9.33665 23.8758 11.1748 24.6454C11.9474 24.964 12.0007 25.07 11.7342 25.5212C10.8818 26.9014 13.4658 29.7943 16.3962 30.6967C17.2754 30.9621 14.0785 35.1023 12.2404 36.0577C11.0682 36.6682 11.7609 37.7563 13.3326 37.7563C13.8122 37.7563 14.6913 38.0217 15.304 38.3137C22.2038 41.817 34.4314 38.3667 38.4808 31.7847C41.5444 26.7952 42.6099 17.4 40.3988 16.2853C39.7061 15.8872 39.9724 15.1441 41.0381 15.0114ZM36.6693 28.8918C32.0339 35.3943 23.3491 39.561 18.4741 37.6236C17.8614 37.3848 16.9023 37.1989 16.3162 37.1989C14.9842 37.1989 14.9577 37.2786 16.7958 35.4208C20.0193 32.2094 20.6586 29.7411 18.3942 29.2369C14.7179 28.3876 13.1994 26.8217 14.1851 24.9905C14.4248 24.5659 14.2917 24.4066 13.306 23.9555C9.28336 22.0179 11.4678 19.9213 11.4412 19.9478C11.7609 19.5763 11.6277 18.9924 11.1748 18.78C6.80584 16.7099 7.8182 13.4455 12.7999 13.472C18.341 13.472 18.5009 13.5782 21.218 18.7005C22.2838 20.6909 23.7222 22.7612 24.5481 22.363C25.374 21.9649 25.1073 20.7176 24.4415 19.4701C24.0684 18.7535 24.0952 18.6473 24.7879 17.5592C27.8247 12.8351 31.421 11.1099 35.3903 12.437C36.1896 12.7024 37.0156 12.8085 37.655 12.7024C38.8272 12.5166 39.0402 13.0739 38.2675 14.2417C37.8147 14.9317 37.9745 15.7279 38.5606 15.7279C40.2656 15.6749 38.7472 25.9726 36.6693 28.8918Z" fill="#373737"/>
</svg>
