<svg width="112" height="113" viewBox="0 0 112 113" fill="none" xmlns="http://www.w3.org/2000/svg">
<rect x="0.246094" y="17.6045" width="96" height="96" transform="rotate(-10 0.246094 17.6045)" fill="#C6FF2A"/>
<path fill-rule="evenodd" clip-rule="evenodd" d="M23.1311 24.8595C17.7338 26.7479 22.1247 29.7755 26.8334 29.6064C30.7751 29.4624 38.1493 28.1621 54.0107 25.3102C73.3456 21.8458 81.6661 20.5991 82.9894 20.9167C86.2803 21.769 88.5586 26.8772 91.9671 41.208C93.1923 46.2814 95.1902 53.8633 96.4249 58.0535C100.343 71.5231 99.1891 73.104 81.7307 76.8986C74.9913 78.3625 66.2683 80.4515 62.3799 81.5228C44.2015 86.5464 32.6559 88.2516 25.7911 86.8173C20.0705 85.622 20.0363 83.865 19.2447 80.3129C17.6457 73.4321 15.309 59.2429 13.7329 46.242C12.4174 35.344 12.7351 33.084 15.9258 30.8685C17.8937 29.5297 16.9478 28.5394 14.2948 29.1174C10.3247 30.0379 7.46092 31.9203 7.97553 38.2761C8.58424 46.103 11.2813 89.2106 20.4626 91.2833C26.4881 92.6451 36.6723 93.2186 40.5198 92.5402C43.1916 92.0691 43.6126 95.0804 41.0821 96.3531C35.2477 99.2001 40.3298 102.712 48.5088 101.6C65.0617 99.2325 88.8731 93.6565 88.8136 92.0692C88.7541 90.4818 84.6588 87.5674 82.8419 87.8878C82.2541 87.9914 81.7574 87.3626 81.5783 86.3473C81.3239 84.9045 80.9659 82.8739 82.6225 82.5818C89.7296 81.3286 93.4671 80.339 95.5198 79.4811C105.544 75.3994 104.728 68.2704 103.896 64.1745C100.554 47.4077 94.5646 31.8791 93.8956 28.085C92.6832 21.5217 87.6957 15.7341 79.2591 16.0095C75.8833 15.613 28.475 22.9806 23.1311 24.8595ZM72.7901 85.2523C75.0312 85.4632 74.5688 87.5283 75.0935 89.254L50.4807 94.0346C50.4524 93.8743 50.1357 89.5774 50.1828 89.8445C51.8834 89.4896 67.4275 86.0876 69.5367 85.5504C70.3729 85.2928 71.8974 85.1893 72.7901 85.2523Z" fill="black"/>
<path d="M77.1829 56.8058C74.8888 59.6631 70.8515 62.5318 69.2089 62.3893C68.5345 62.3194 66.5869 61.2648 69.4239 58.5278C76.8688 51.355 76.8799 51.0135 69.8084 47.167C64.455 44.2856 63.4633 44.6397 65.1419 43.0473C65.903 42.3477 73.6639 44.2173 75.886 46.4975C78.9225 49.5835 79.4854 53.901 77.1829 56.8058Z" fill="black"/>
<path d="M34.7328 64.2903C37.8658 66.1906 42.6408 67.5054 44.1356 66.8097C44.7454 66.5134 46.2148 64.8563 42.6128 63.2546C33.1636 59.0608 33.0365 58.7436 38.3659 52.7105C42.4109 48.1719 43.464 48.1655 41.3419 47.2432C40.3875 46.8461 33.734 51.2573 32.4258 54.16C30.628 58.0984 31.5756 62.3481 34.7328 64.2903Z" fill="black"/>
<path d="M46.9368 69.2153C46.7354 67.329 56.8185 42.512 59.1509 39.1422C62.9729 33.5614 62.9986 40.1119 59.1633 49.3834C52.2001 66.1417 47.3469 74.0336 46.9368 69.2153Z" fill="black"/>
</svg>
