<svg width="49" height="49" viewBox="0 0 49 49" fill="none" xmlns="http://www.w3.org/2000/svg">
<rect x="0.382812" width="48.6159" height="48.6159" rx="11.536" fill="#FBFF47"/>
<path d="M21.2509 31.1952C21.454 30.8567 26.5305 28.3523 29.2603 27.2469C34.1339 25.2613 34.6302 24.9003 34.3368 23.5692C33.9533 21.832 30.0275 19.8013 23.2814 17.8385C19.3331 16.6878 18.4758 16.575 17.5282 17.0488C17.0995 17.2518 16.9641 17.5451 16.919 18.1544C16.919 18.1769 16.2647 27.9688 16.0165 28.1492C14.6402 29.142 20.7997 31.9171 21.2509 31.1952ZM19.3783 28.3975C19.2203 28.2395 19.6265 19.2373 19.7843 19.2373C19.8746 19.2373 30.1405 22.3508 30.1405 22.8471C30.163 23.3209 19.6715 28.6907 19.3783 28.3975Z" fill="#373737"/>
<path d="M43.229 18.4484C41.4467 11.8829 39.664 10.7322 30.3461 10.1907C24.9085 9.87487 16.2449 9.76206 14.282 10.0102C12.4771 10.2359 10.0628 11.3188 9.45367 12.1762C9.22806 12.4921 8.68657 13.1915 8.21275 13.7555C6.85904 15.38 7.49087 16.4855 9.88243 16.7337C10.5367 16.8014 11.1684 16.4178 11.4166 15.8087C11.6648 15.2446 11.913 14.5903 12.1386 13.9811C12.5673 12.7854 13.3117 12.3116 15.1618 12.0408C20.1932 11.3188 30.7521 12.3341 32.4218 12.3792C37.8367 12.5823 38.7619 12.853 39.1003 14.3647C41.1083 23.6152 40.4314 27.8569 39.9576 29.4586C38.0848 35.8437 34.6553 35.7084 14.8234 35.6859C13.7404 35.6859 12.7252 35.2346 11.9807 34.4674C8.34818 30.6545 7.87429 24.5177 9.29569 20.0051C9.56644 19.1253 7.46816 17.9294 6.81388 18.5838C5.59553 19.8022 4.15151 31.8502 9.81458 35.8888C12.9733 38.1451 31.6998 39.2054 35.2647 38.4835C37.8141 37.9872 41.5819 34.6028 42.5747 31.9855C43.6803 28.9398 44.0638 21.5169 43.229 18.4484Z" fill="#373737"/>
</svg>
