<svg width="117" height="37" viewBox="0 0 117 37" fill="none" xmlns="http://www.w3.org/2000/svg">
<path fill-rule="evenodd" clip-rule="evenodd" d="M3.87162 30.7774C7.88558 27.5286 8.43911 26.8639 11.2501 21.9363C14.5501 16.1031 14.4403 16.1754 16.4575 19.2068C17.2905 20.4684 18.0081 21.4593 18.0629 21.4231C18.1178 21.3869 20.0295 20.2509 22.2998 18.8464C33.1686 12.1901 34.6563 11.3181 40.1263 8.6044C50.1562 3.63597 59.6042 2.43845 68.0836 5.09393C68.5751 5.24195 69.433 4.99056 70.7376 4.31824C76.1753 1.48398 84.603 0.172619 93.4963 0.759096C102.455 1.34951 110.888 3.90991 114.689 6.61383C117.582 8.65745 118.946 12.7032 111.038 9.52891C100.236 5.19329 86.0266 3.87952 75.9025 6.24802C72.136 7.12813 72.136 7.12813 74.1682 9.25177C81.7166 17.1057 76.1784 31.9304 64.1618 35.9894C50.6557 40.5121 48.0164 22.3916 60.5504 11.0286C61.7474 9.9548 62.7543 8.97491 62.8131 8.87308C62.9601 8.61853 59.8629 8.22192 57.5078 8.18592C48.6927 8.05187 41.9185 10.5556 27 19.5236C18.859 24.3947 19.4273 23.7042 21.2545 26.8296C24.5078 32.3055 23.3231 34.7101 17.4761 34.4909C13.9146 34.3693 10.7926 34.6036 4.90811 35.4487C-0.896103 36.2724 -1.20705 34.871 3.87162 30.7774ZM55.3254 22.6065C54.5395 27.142 58.2562 31.6977 62.98 31.9812C67.9515 32.306 75.057 25.8188 75.0164 21.0098C74.9769 15.9637 68.8797 8.94764 65.9014 10.5203C60.1454 13.6119 56.0886 18.2276 55.3254 22.6065Z" fill="black"/>
</svg>
