<svg width="211" height="284" viewBox="0 0 211 284" fill="none" xmlns="http://www.w3.org/2000/svg">
<path fill-rule="evenodd" clip-rule="evenodd" d="M96.6565 121.817C98.1392 120.18 94.2937 101.001 93.5986 93.3574C91.5483 70.8186 90.4796 48.4578 90.4796 25.7758C90.4796 17.7616 90.0045 4.95716 98.2772 0.821723C108.628 -4.35282 112.309 16.3977 113.352 21.6159C117.866 44.1827 114.873 91.7787 139.866 104.274C148.554 108.619 215.671 84.1016 225.122 81.3999C236.8 78.0643 243.961 76.7074 254.524 80.2298C260.473 82.212 260.497 95.7674 256.315 98.5564C239.434 109.81 218.449 118.008 200.17 127.148C180.548 136.959 169.619 136.051 166.379 161.98C164.659 175.734 170.967 188.13 174.177 200.968C177.883 215.795 179.779 230.078 181.454 245.157C182.607 255.516 184.18 273.623 176.257 281.548C166.805 290.999 157.41 265.752 155.981 260.754C145.332 223.477 143.964 184.548 111.792 160.42C104.973 155.305 91.6374 158.571 84.2397 160.42C76.2221 162.423 27.7127 181.625 11.4591 184.334C2.6818 185.797 -2.31461 174.454 1.0629 167.698C4.62552 160.572 21.5462 155.635 28.6156 152.102C37.7597 147.53 47.3369 143.875 56.687 139.624C69.9753 133.585 90.0342 129.129 96.6565 121.817Z" fill="#FBFF47"/>
</svg>
