<svg width="150" height="184" viewBox="0 0 150 184" fill="none" xmlns="http://www.w3.org/2000/svg">
<g clip-path="url(#clip0_355_1195)">
<path d="M58.2311 120.87C56.4848 118.694 53.5378 118.681 49.7058 120.812C44.4299 123.694 43.8709 125.201 47.6122 126.307C50.967 127.309 59.7876 122.788 58.2311 120.87Z" fill="#3E3E3E"/>
<path d="M60.1785 112.644C60.5149 111.388 56.3728 108.881 54.3788 109.174C51.0479 109.628 30.6468 118.345 29.31 118.504C26.0533 118.874 29.9591 122.457 33.5857 122.445C36.9096 122.404 59.8161 113.996 60.1785 112.644Z" fill="#3E3E3E"/>
<path d="M59.4792 59.6056C63.0884 60.6244 64.3907 59.6275 62.6255 57.1357C59.227 52.2393 56.1345 50.0649 53.1193 50.4993C49.5824 50.9492 54.6271 58.2019 59.4792 59.6056Z" fill="#3E3E3E"/>
<path d="M114.565 79.853C117.16 80.6001 122.853 78.8645 122.965 77.2897C123.158 74.4427 117.749 72.9934 114.127 74.9215C110.211 76.9781 110.328 78.6659 114.565 79.853Z" fill="#3E3E3E"/>
<path d="M70.5758 61.078C75.0758 63.2155 75.3588 60.8068 71.7409 50.934C65.0731 32.7383 62.4862 27.904 59.6417 28.2806C55.8504 28.7141 65.9083 58.7923 70.5758 61.078Z" fill="#3E3E3E"/>
<path d="M145.989 73.4686C143.351 73.8487 122.591 80.813 117.277 83.0644C116.104 83.5784 119.074 85.8236 121.589 86.2904C124.104 86.7572 125.151 86.5201 136.799 82.653C143.678 80.3552 150.032 78.2788 150.873 78.0382C154.932 76.7966 150.621 72.7946 145.989 73.4686Z" fill="#3E3E3E"/>
<path d="M110.086 130.572C108.125 127.458 104.865 125.135 103.566 125.926C102.77 126.386 103.709 128.294 105.796 130.354C109.148 133.685 112.166 133.821 110.086 130.572Z" fill="#3E3E3E"/>
<path d="M110.374 102.645C113.344 101.991 113.4 101.592 111.23 97.9046C104.567 86.6464 102.494 64.2466 106.161 43.799C107.461 36.4346 102.573 27.826 94.4046 44.0136C84.0672 64.4339 67.4445 83.5841 59.7367 83.9517C54.5413 84.2161 54.2056 87.5943 59.2284 88.9401C66.6658 90.933 69.4069 98.8626 68.1635 115.094C67.3554 125.644 66.3759 142.05 66.4457 142.948C66.6525 145.074 72.428 149.987 77.6089 137.606C84.8895 120.093 99.0661 105.05 110.374 102.645ZM102.614 98.1841C93.131 101.7 82.3211 110.553 78.0539 118.365C77.0533 120.168 76.5997 119.735 76.8474 117.265C78.1991 104.687 76.1316 96.3681 70.3925 90.741L68.1857 88.545C77.1203 83.0191 80.9713 81.204 95.106 60.7143C95.7029 59.839 95.7124 59.9968 95.8852 66.3066C96.1447 78.2816 98.0793 87.2892 101.833 94.1443C103.69 97.6443 103.7 97.8022 102.614 98.1841Z" fill="#3E3E3E"/>
<path d="M93.9155 127.171C92.2949 127.616 92.4743 128.493 95.1818 134.809C99.9321 145.865 103.023 149.592 106.023 147.859C107.432 147.046 107.124 145.877 103.594 137.994C99.2221 128.23 97.4241 126.247 93.9155 127.171Z" fill="#3E3E3E"/>
</g>
<defs>
<clipPath id="clip0_355_1195">
<rect width="150" height="150" fill="white" transform="translate(38.8203) rotate(15)"/>
</clipPath>
</defs>
</svg>
