<svg width="32" height="32" viewBox="0 0 32 32" fill="none" xmlns="http://www.w3.org/2000/svg">
<path fill-rule="evenodd" clip-rule="evenodd" d="M24.7256 4.98032C24.4085 5.17063 23.6949 5.85258 23.1556 6.48694C22.442 7.31161 22.093 7.61296 21.9028 7.53366C17.2085 5.56713 12.1177 6.55038 9.32648 8.35833L8.89826 8.6438L7.78811 7.53366C6.29735 6.05876 2.84003 5.44024 6.09115 8.83411L7.37575 10.1663C7.26474 10.5469 2.36429 17.5566 7.23304 23.5197L7.96258 24.4237L7.23304 25.4545C5.83743 27.4528 7.40747 28.0871 9.19955 26.2315L9.72295 25.6924L10.4524 26.0729C16.2886 29.0386 22.8702 25.4704 22.8861 25.4545L23.5204 26.1522C24.5989 27.3576 25.7248 27.7541 26.6606 27.2466C27.8182 26.6281 25.1698 24.8359 24.9319 24.5982L24.2341 23.9162L24.5196 23.488C28.0878 18.0324 28.1512 12.339 24.6464 9.21472L24.0755 8.70722C24.3927 8.29488 24.7415 7.8191 25.8516 6.56623C27.3108 4.91689 26.5811 3.83847 24.7256 4.98032ZM20.8244 9.11958C20.7768 9.21473 15.8128 14.9398 15.7018 14.9241C15.5432 14.9082 10.7379 10.5627 10.5635 10.2773C10.4049 10.0077 10.7538 9.61121 11.3564 9.19887C16.13 6.02705 21.1574 8.58037 20.8244 9.11958ZM23.1397 10.7848C24.8684 13.2271 25.0428 17.4773 23.5363 20.443C22.6005 22.2668 22.7116 22.235 21.538 20.998C20.983 20.4113 17.2401 16.5417 17.2401 16.5417C17.2401 16.5417 20.9829 12.2279 21.5538 11.5619C22.7591 10.1663 22.7116 10.1821 23.1397 10.7848ZM11.2296 13.7187C13.3706 15.6218 13.767 16.0817 14.2903 16.621L11.8639 19.5708C9.04101 22.9963 9.3423 22.806 8.73966 21.5532C7.50265 18.9998 7.50266 15.7645 8.75553 12.8306C9.18373 11.8473 9.07274 11.8157 11.2296 13.7187ZM21.3001 23.9796C21.2843 23.9796 16.0507 28.2932 11.3405 24.5346L10.8806 24.1699L15.9397 18.2227C19.8252 22.3461 19.8411 22.3779 21.3001 23.9796Z" fill="black"/>
</svg>
