<svg width="22" height="21" viewBox="0 0 22 21" fill="none" xmlns="http://www.w3.org/2000/svg">
<path d="M10.323 0.927614C10.5588 0.211005 11.5725 0.211007 11.8084 0.927615L13.7336 6.77769C13.8392 7.09841 14.1387 7.31514 14.4763 7.31514H20.6852C21.445 7.31514 21.7583 8.28947 21.1409 8.73235L16.1351 12.323C15.8576 12.5221 15.7414 12.8783 15.8482 13.2028L17.7643 19.0249C18.0007 19.7435 17.1806 20.3456 16.5658 19.9047L11.5214 16.2863C11.249 16.0909 10.8823 16.0909 10.6099 16.2863L5.56552 19.9047C4.9508 20.3456 4.1306 19.7435 4.3671 19.0249L6.28318 13.2028C6.38996 12.8783 6.27377 12.5221 5.99622 12.323L0.990441 8.73235C0.373013 8.28947 0.686324 7.31514 1.44617 7.31514H7.65501C7.99265 7.31514 8.29215 7.0984 8.3977 6.77769L10.323 0.927614Z" fill="#FFBD00"/>
</svg>
