<svg width="450" height="86" viewBox="0 0 450 86" fill="none" xmlns="http://www.w3.org/2000/svg">
<path d="M206.28 51.52C211.76 51.52 215.2 54.76 215.2 59.96C215.2 65.6 211 68.56 205.16 68.56H200.28C199.92 68.56 199.6 68.84 199.6 69.24V77.48C199.6 78.32 198.96 79 198.12 79H194.72C193.88 79 193.2 78.32 193.2 77.48V53C193.2 52.16 193.88 51.52 194.72 51.52H198.24C199 51.52 199.52 52.32 199.12 53C198.24 54.64 197.92 56.84 197.84 58.04C197.84 58.32 198 58.52 198.28 58.52C198.52 58.52 198.68 58.36 198.72 58.12C199.32 54.12 202.04 51.52 206.28 51.52ZM203.96 66.2C207.72 66.2 208.96 62.96 208.96 60.44C208.96 57.28 207.4 55.76 204.64 55.76C199.84 55.76 199.6 59.84 199.6 63.72V65.52C199.6 65.92 199.92 66.2 200.28 66.2H203.96ZM227.028 52.68C227.028 54.76 225.348 56.4 223.268 56.4C221.188 56.4 219.508 54.76 219.508 52.68C219.508 50.6 221.188 48.92 223.268 48.92C225.348 48.92 227.028 50.6 227.028 52.68ZM221.628 79C220.788 79 220.148 78.32 220.148 77.48V60.68C220.148 59.84 220.788 59.16 221.628 59.16H224.908C225.748 59.16 226.388 59.84 226.388 60.68V77.48C226.388 78.32 225.748 79 224.908 79H221.628ZM243.062 59C243.702 59.2 244.142 59.8 244.142 60.44V61.92C244.142 62.76 243.502 63.4 242.662 63.4H240.622C240.462 63.4 240.262 63.56 240.262 63.76V74.44C240.262 76.04 241.262 76.56 242.982 76.52C243.422 76.52 243.782 76.88 243.782 77.32C243.782 77.64 243.782 78.08 243.782 78.36C243.782 78.76 243.502 79.08 243.142 79.16C242.142 79.4 240.782 79.48 239.862 79.48C235.502 79.48 234.062 77.48 234.062 73.72V63.76C234.062 63.56 233.902 63.4 233.742 63.4H232.342C231.502 63.4 230.862 62.76 230.862 61.92V60.68C230.862 59.84 231.502 59.16 232.342 59.16H236.902L241.622 60.28C241.782 60.32 241.982 60.2 242.022 60.04C242.062 59.88 241.942 59.68 241.742 59.64C238.262 58.84 234.982 57.56 233.662 55.36C233.222 54.72 233.662 53.76 234.502 53.76H237.982C238.622 53.76 239.142 54.2 239.262 54.84C239.582 56.24 240.582 58.36 243.062 59ZM266.568 72.8L267.648 74.8C267.968 75.44 267.808 76.32 267.208 76.72C264.168 79.12 261.008 79.52 258.568 79.52C251.328 79.52 247.568 75 247.568 69.32C247.568 63.52 251.208 58.72 258.528 58.72C261.368 58.72 265.248 59.76 266.808 64.52C267.048 65.16 266.688 65.8 266.048 65.96L264.968 66.24C264.368 66.4 263.688 66 263.528 65.36C262.888 62.16 260.768 60.12 257.968 60.12C254.568 60.12 251.488 62.24 251.488 66.52C251.488 71.84 254.808 74.04 259.048 74.04C260.568 74.04 262.688 73.6 264.408 72.24C264.648 72.08 264.928 72 265.208 72C265.768 72 266.288 72.28 266.568 72.8ZM284.265 58.72C289.785 58.72 291.425 62.8 291.425 67.16V77.48C291.425 78.32 290.745 79 289.905 79H286.665C285.825 79 285.145 78.32 285.145 77.48V68.12C285.145 64.56 284.065 63.2 281.865 63.2C278.945 63.2 278.225 65.84 278.225 70.28V77.48C278.225 78.32 277.585 79 276.745 79H273.745C272.945 79 272.265 78.32 272.265 77.48V51.52C272.265 50.68 272.945 50.04 273.745 50.04H277.105C277.945 50.04 278.625 50.68 278.625 51.52V58.2C278.625 59.2 278.385 60.2 277.985 61.08C277.065 62.96 276.345 66.04 276.305 70.4C276.305 70.64 276.505 70.84 276.745 70.84C276.985 70.84 277.185 70.64 277.185 70.4C277.265 65.28 278.465 58.72 284.265 58.72ZM320.761 51.52C328.001 51.52 332.841 56.28 332.841 65.32C332.841 72.68 328.281 79 319.201 79H309.641C308.801 79 308.161 78.32 308.161 77.52V53C308.161 52.2 308.801 51.52 309.641 51.52H313.241C314.041 51.52 314.521 52.32 314.121 53.04C313.121 54.96 312.881 57.16 312.801 58.08C312.801 58.32 313.001 58.52 313.241 58.52C313.481 58.52 313.641 58.32 313.681 58.12C314.241 54.12 317.001 51.52 320.761 51.52ZM318.401 74.44C323.441 74.44 326.041 71.2 326.041 64.8C326.041 58.84 324.161 54.92 319.641 54.92C315.081 54.92 314.481 58.68 314.481 64.16V73.68C314.481 74.08 314.841 74.44 315.241 74.44H318.401ZM355.315 72.76L356.395 74.72C356.715 75.4 356.555 76.24 355.915 76.68C352.875 79.08 349.755 79.48 347.315 79.48C340.035 79.48 336.315 74.96 336.315 69.32C336.315 63.48 339.915 58.68 347.275 58.68C350.755 58.68 354.915 59.92 355.875 65.64C356.035 66.52 355.395 67.28 354.515 67.28H340.715C340.515 67.28 340.395 67.48 340.435 67.64C340.995 71.96 343.835 74 347.755 74C349.275 74 351.435 73.6 353.155 72.24C353.395 72.08 353.715 72 353.995 72C354.515 72 355.075 72.28 355.315 72.76ZM346.715 60.04C343.715 60.04 340.995 61.68 340.355 64.92C340.315 65.12 340.475 65.28 340.635 65.28H351.595C351.795 65.28 351.955 65.04 351.915 64.84C351.315 61.92 349.435 60.04 346.715 60.04ZM377.599 72.8L378.679 74.8C378.999 75.44 378.839 76.32 378.239 76.72C375.199 79.12 372.039 79.52 369.599 79.52C362.359 79.52 358.599 75 358.599 69.32C358.599 63.52 362.239 58.72 369.559 58.72C372.399 58.72 376.279 59.76 377.839 64.52C378.079 65.16 377.719 65.8 377.079 65.96L375.999 66.24C375.399 66.4 374.719 66 374.559 65.36C373.919 62.16 371.799 60.12 368.999 60.12C365.599 60.12 362.519 62.24 362.519 66.52C362.519 71.84 365.839 74.04 370.079 74.04C371.599 74.04 373.719 73.6 375.439 72.24C375.679 72.08 375.959 72 376.239 72C376.799 72 377.319 72.28 377.599 72.8ZM396.856 79C395.976 79 395.216 78.52 394.816 77.76L390.136 71.04C390.056 70.92 389.936 70.92 389.816 70.96C389.656 71.04 389.616 71.12 389.616 71.24V77.48C389.616 78.32 388.936 79 388.096 79H384.816C383.976 79 383.336 78.32 383.336 77.48L383.296 51.52C383.296 50.68 383.976 50.04 384.776 50.04H388.056C388.896 50.04 389.576 50.68 389.576 51.52V62.2C389.576 64.28 388.056 67.64 386.696 69.68C386.576 69.84 386.576 70.08 386.696 70.24C386.816 70.4 387.096 70.44 387.296 70.36C390.496 68.64 393.896 64.68 394.376 60.32C394.456 59.64 395.056 59.16 395.736 59.16H398.896C399.736 59.16 400.376 59.96 400.216 60.76C399.616 64.28 396.776 67.04 394.176 68.88C393.976 68.96 393.976 69.2 394.096 69.36L401.016 77.44C401.536 78.04 401.096 79 400.336 79H396.856Z" fill="white"/>
<path d="M211.12 21.12C213.36 21.88 216 23.56 216 26.96C216 31.88 212.52 35 205.96 35H194.84C194.04 35 193.36 34.32 193.36 33.48V9.04C193.36 8.2 194.04 7.52 194.84 7.52H198.4C199.2 7.52 199.64 8.36 199.24 9.04C198.32 10.68 198.08 12.88 198 14.04C197.96 14.28 198.2 14.52 198.44 14.52C198.68 14.52 198.84 14.36 198.88 14.12C199.2 11.52 200.8 7.52 205.88 7.52C212.08 7.52 215.12 10.36 215.12 14.52C215.12 17.4 213.76 19.56 211.12 20.56C210.88 20.68 210.88 21.04 211.12 21.12ZM199.64 18.56V19.12C199.64 19.44 199.92 19.72 200.24 19.72H204.56C208.04 19.72 208.8 17.4 208.8 15.24C208.8 13.04 207.44 11.72 204.8 11.72C202.56 11.72 199.64 12.36 199.64 18.56ZM204.72 30.8C207.56 30.8 209.28 29.32 209.28 26.44C209.28 24 207.96 22.12 204.28 22.12H200.24C199.92 22.12 199.64 22.4 199.64 22.72V30.2C199.64 30.52 199.92 30.8 200.24 30.8H204.72ZM227.322 35.48C221.802 35.48 220.162 31.4 220.162 27V16.68C220.162 15.88 220.842 15.16 221.682 15.16H224.922C225.762 15.16 226.442 15.88 226.442 16.68V26.08C226.442 29.64 227.562 30.96 229.722 30.96C232.642 30.96 233.362 28.32 233.362 23.88V16.68C233.362 15.88 234.042 15.16 234.842 15.16H237.842C238.642 15.16 239.322 15.88 239.322 16.68V33.52C239.322 34.36 238.642 35 237.842 35H234.442C233.602 35 233.042 34.16 233.402 33.44C234.682 30.72 235.162 27.88 235.202 23.76C235.202 23.56 235.002 23.32 234.762 23.32C234.562 23.32 234.402 23.52 234.402 23.76C234.322 28.84 233.162 35.48 227.322 35.48ZM251.656 8.68C251.656 10.76 249.976 12.4 247.896 12.4C245.816 12.4 244.136 10.76 244.136 8.68C244.136 6.6 245.816 4.92 247.896 4.92C249.976 4.92 251.656 6.6 251.656 8.68ZM246.256 35C245.416 35 244.776 34.32 244.776 33.48V16.68C244.776 15.84 245.416 15.16 246.256 15.16H249.536C250.376 15.16 251.016 15.84 251.016 16.68V33.48C251.016 34.32 250.376 35 249.536 35H246.256ZM257.25 33.48V7.52C257.25 6.72 257.89 6.04 258.73 6.04H261.89C262.73 6.04 263.37 6.72 263.37 7.52V33.48C263.37 34.32 262.73 35.04 261.89 35.04H258.73C257.89 35.04 257.25 34.32 257.25 33.48ZM283.981 7.52C283.981 6.68 284.661 6 285.501 6H288.901C289.741 6 290.421 6.68 290.421 7.52C290.421 14.2 290.381 26.72 290.461 33.48C290.461 34.32 289.781 34.96 288.941 34.96H284.981C284.181 34.96 283.661 34.16 284.021 33.44C285.341 30.72 285.701 27.12 285.741 23.76C285.741 23.52 285.541 23.32 285.301 23.32C285.061 23.32 284.861 23.52 284.861 23.76C284.661 28.64 282.621 35.48 276.701 35.48C271.701 35.48 268.141 31.48 268.141 25.32C268.141 17.76 272.541 14.68 277.501 14.68C280.581 14.68 282.821 16.4 283.781 18.76C283.861 18.92 284.021 19 284.221 19C284.461 19 284.661 18.8 284.621 18.52C284.541 17.44 284.061 13.4 283.981 12.08V7.52ZM278.581 29.48C281.821 29.48 283.781 26.68 283.781 22.4C283.781 19.2 281.781 16.76 278.861 16.76C276.141 16.76 273.901 19.6 273.901 23.08C273.901 26.88 275.461 29.48 278.581 29.48Z" fill="white"/>
<path fill-rule="evenodd" clip-rule="evenodd" d="M0 15.6404C0 7.83741 6.2762 0.503937 14.0183 0.503937L50.5876 0L87.1569 1.51181C92.5427 1.51181 96.9088 5.91223 96.9088 11.3404C94.6529 10.0969 92.8576 7.39709 90.3551 6.78628C87.8997 6.18695 84.4674 6.32617 82.4668 6.32617H55.8281H48.3281C44.6717 6.9962 40.9547 7.27768 37.2391 7.16589L9.32812 6.32617C3.60573 6.32617 3.65693 9.87299 3.65693 15.6404L4.65693 38.6303L3.65693 58.6406C3.65693 64.4081 8.29585 69.0835 14.0182 69.0835C17.8767 68.4142 21.8031 68.2243 25.7081 68.5182L36.8281 69.3552L82.8905 69.0835C88.6129 69.0835 93.2518 64.4081 93.2518 58.6406L92.2518 36.1106L93.0576 23.1173C93.1763 21.2019 94.381 19.5235 96.1576 18.7979L96.9088 18.4912L97.8281 47.7011L96.9088 59.8692H96.8565C96.2388 67.0969 90.2219 72.7692 82.8905 72.7692L48.8281 74.785L14.0182 72.7692C6.27618 72.7692 0 66.4436 0 58.6406V55.7641V15.6404Z" fill="#55CCFF"/>
<path fill-rule="evenodd" clip-rule="evenodd" d="M170.656 26.6969C170.656 18.8939 165.999 10.5526 156.638 12.5683H145.828L118.328 11.417L91.3281 12.5683H84.3281H87.7658C80.0237 12.5683 73.7475 18.8939 73.7475 26.6969L72.7475 43.669L73.7475 67.8542C76.0781 65.9273 77.4946 63.112 77.653 60.0921L79.4044 26.6969C79.4044 20.9295 82.0434 16.254 87.7658 16.254L108.327 17.2619L156.638 16.254C162.36 16.254 166.999 20.9295 166.999 26.6969V32.5823L165.999 42.1572L165.827 51.228L165.328 66.8501C165.328 72.6175 164.328 78.9445 156.638 81.3686L123.827 80.5324L108.469 81.4131L85.8272 79.9524C81.7878 79.9524 77.4044 79.0761 77.4044 75.005L76.5246 75.8341C75.5266 76.7746 75.2923 78.2742 75.9425 79.4816C77.2021 81.8204 77.6297 82.5702 79.0285 83.195C82.6597 84.8169 86.722 85.2107 90.687 85.5203L96.8281 85.9997L156.638 85.0543C162.828 83.48 166.999 83.48 170.656 70.9257L171.656 48.8113L170.656 26.6969Z" fill="#FF9D56"/>
<path opacity="0.2" fill-rule="evenodd" clip-rule="evenodd" d="M119.575 23.6561C116.23 23.9518 115.529 24.2771 116.446 25.1051C116.689 25.3417 119.008 25.4304 124.051 25.3713C133.086 25.2826 134.515 25.46 135.621 26.7612C136.781 28.1215 138.992 28.5355 138.992 27.3822C138.992 26.8499 137.077 24.9277 136.16 24.5433C134.326 23.7744 124.24 23.2421 119.575 23.6561ZM110.432 25.9332C105.362 31.4928 108.329 55.6238 113.911 54.2634C114.963 53.9973 114.936 53.5833 113.803 53.0805C111.619 52.0751 110.263 45.4425 110.611 43.1541C110.934 40.6108 109.909 40.9855 109.774 35.3076C109.586 27.5301 111.861 26.4359 113.399 25.874C114.289 25.5783 113.803 25.0164 112.59 24.8981C111.592 24.8094 111.349 24.9277 110.432 25.9332ZM137.341 29.9254C136.559 32.4095 138.005 33.829 138.005 47.8462C137.924 48.1124 136.646 52.3617 133.14 53.1897C131.764 53.515 129.31 53.6037 124.078 53.6629C115.313 53.8107 114.882 52.7257 115.853 53.9677C117.39 56.0082 133.356 56.4518 136.754 54.5592C138.911 53.3467 139.828 48.4673 139.828 38.0874C139.774 31.8772 138.42 26.495 137.341 29.9254Z" fill="#FF9D56"/>
<path opacity="0.2" d="M104.218 61.7396C117.723 61.2477 139.723 60.8037 147.52 60.8037C151.097 64.3059 122.524 64.6647 113.957 64.7723L113.714 64.7753C105.768 64.7753 99.6782 65.0676 104.218 61.7396Z" fill="#FF9D56"/>
<path opacity="0.2" d="M109.963 69.8156C119.831 69.3171 135.906 68.8672 141.603 68.8672C144.217 72.4163 123.339 72.7799 117.079 72.889L116.901 72.8921C111.096 72.8921 106.646 73.1883 109.963 69.8156Z" fill="#FF9D56"/>
<g opacity="0.2">
<path d="M47.2753 55.7043C51.1626 55.2058 57.4952 54.7559 59.7394 54.7559C60.779 58.3393 52.3846 58.6753 50.0085 58.7807C47.7214 58.7807 45.9685 59.077 47.2753 55.7043Z" fill="#96DFF0"/>
<path d="M47.4129 49.6574C52.4963 49.1589 60.7774 48.709 63.7121 48.709C65.0716 52.2924 54.0943 52.6285 50.987 52.7339C47.9963 52.7339 45.7039 53.0301 47.4129 49.6574Z" fill="#96DFF0"/>
<path d="M47.5506 43.6096C53.83 43.1111 64.0596 42.6612 67.6849 42.6611C69.3642 46.2446 55.804 46.5806 51.9656 46.686C48.2711 46.686 45.4394 46.9822 47.5506 43.6096Z" fill="#96DFF0"/>
<path d="M47.4649 36.5549C54.3902 36.0564 65.672 35.6065 69.6701 35.6064C71.5221 39.1899 56.5673 39.5259 52.334 39.6313C48.2596 39.6313 45.1366 39.9276 47.4649 36.5549Z" fill="#96DFF0"/>
</g>
<path opacity="0.2" fill-rule="evenodd" clip-rule="evenodd" d="M22.5745 30.7118C19.2304 31.0075 18.5292 31.3328 19.4461 32.1608C19.6888 32.3974 22.0082 32.4861 27.0514 32.427C36.0859 32.3382 37.5152 32.5157 38.621 33.8169C39.7806 35.1772 41.9921 35.5912 41.9921 34.4379C41.9921 33.9056 40.0773 31.9834 39.1603 31.5989C37.3265 30.83 27.2401 30.2977 22.5745 30.7118ZM13.4321 32.9888C8.36201 38.5484 11.3285 62.6794 16.9111 61.3191C17.9629 61.053 17.9359 60.6389 16.8032 60.1362C14.6188 59.1308 13.2629 52.4981 13.6107 50.2097C13.9344 47.6665 12.9093 48.0411 12.7745 42.3632C12.5857 34.5857 14.8615 33.4916 16.3987 32.9297C17.2887 32.634 16.8032 32.0721 15.5896 31.9538C14.5918 31.8651 14.3491 31.9834 13.4321 32.9888ZM40.3414 36.9811C39.5593 39.4652 41.0046 40.8846 41.0046 54.9019C40.9237 55.1681 39.6457 59.4174 36.1398 60.2454C34.7644 60.5707 32.3102 60.6594 27.0782 60.7185C18.3134 60.8664 17.8819 59.7813 18.8528 61.0234C20.39 63.0639 36.3555 63.5075 39.7536 61.6148C41.9111 60.4024 42.8281 55.5229 42.8281 45.143C42.7742 38.9329 41.4201 33.5507 40.3414 36.9811Z" fill="#96DFF0"/>
<path opacity="0.2" d="M26.2185 15.3773C39.7234 14.8854 61.7234 14.4414 69.52 14.4414C73.097 17.9436 44.5243 18.3024 35.9565 18.41L35.7136 18.413C27.7682 18.413 21.6782 18.7053 26.2185 15.3773Z" fill="#96DFF0"/>
</svg>
