<svg width="169" height="49" viewBox="0 0 169 49" fill="none" xmlns="http://www.w3.org/2000/svg">
<path opacity="0.9" fill-rule="evenodd" clip-rule="evenodd" d="M22.9244 48.5397C56.5496 49.0145 85.9696 48.9829 115.423 48.7012C129.287 48.5687 151.57 49.0293 158.987 45.9139C169.723 41.4046 169.117 21.6556 168.591 15.1491C168.371 12.43 167.635 8.81305 161.668 7.40003C150.95 4.86198 136.315 5.20793 124.876 5.08488C93.7142 4.75001 57.1271 4.91652 25.8928 5.33097C20.4601 5.4029 12.9156 5.5486 8.38976 7.25907C0.0739779 10.4029 0.610811 28.1049 1.02322 33.2998C1.50428 39.3647 3.96533 48.5397 22.9244 48.5397Z" fill="#05060B"/>
<path fill-rule="evenodd" clip-rule="evenodd" d="M23.0963 44.1491C56.7214 44.6239 86.1415 44.5923 115.595 44.3106C129.459 44.1781 151.742 44.6386 159.159 41.5233C169.895 37.0139 169.289 17.265 168.762 10.7585C168.543 8.0394 167.807 4.42242 161.84 3.00941C151.122 0.471358 136.487 0.8173 125.048 0.694258C93.8861 0.359382 57.299 0.525899 26.0647 0.940344C20.632 1.01227 13.0874 1.15797 8.56164 2.86845C0.245853 6.01223 0.782686 23.7143 1.1951 28.9092C1.67615 34.9741 4.13721 44.1491 23.0963 44.1491Z" fill="#FF9D56"/>
</svg>
