<svg width="111" height="111" viewBox="0 0 111 111" fill="none" xmlns="http://www.w3.org/2000/svg">
<g clip-path="url(#clip0_1036_263)">
<path fill-rule="evenodd" clip-rule="evenodd" d="M32.8906 16.1116C24.7584 18.6152 22.8022 29.9853 29.7878 34.1327C38.9359 39.5651 48.6992 32.8352 45.8286 23.0835C44.8093 19.6285 42.5862 16.8922 40.5185 17.2197C40.0089 17.3004 40.6792 18.2346 41.3575 18.2678C42.9401 18.8144 44.578 22.2766 44.5585 25.7052C44.5017 34.1626 38.2121 36.6995 31.4113 31.8799C24.0785 26.6824 28.0594 14.6021 36.3247 17.4419C36.8777 17.6356 36.9773 17.6299 37.1928 17.4049C38.889 16.9611 35.0836 15.4328 32.8906 16.1116Z" fill="black"/>
<path fill-rule="evenodd" clip-rule="evenodd" d="M17.0636 46.614C8.52377 49.243 6.46949 61.183 13.8053 65.5384C23.4119 71.243 33.6646 64.1758 30.6501 53.9353C29.5797 50.3071 27.2452 47.4336 25.0738 47.7776C24.5387 47.8623 25.2426 48.8433 25.9549 48.8782C27.6168 49.4522 29.3368 53.0879 29.3164 56.6885C29.2567 65.5698 22.6518 68.2338 15.5102 63.1726C7.80983 57.7146 11.9902 45.0288 20.6698 48.0109C21.2506 48.2143 21.3551 48.2083 21.5814 47.972C23.3627 47.506 19.3665 45.9011 17.0636 46.614Z" fill="black"/>
<path fill-rule="evenodd" clip-rule="evenodd" d="M82.5178 32.2593C82.1437 33.0925 81.6566 33.8724 81.0725 34.5775C83.5591 37.3718 85.4667 40.6468 86.5729 44.291C86.8681 44.215 87.1692 44.1524 87.4758 44.1038C88.3249 43.9693 89.1675 43.9506 89.9894 44.0366C88.6101 39.5393 85.9848 35.5482 82.5178 32.2593ZM64.2927 23.1465C59.2226 22.1769 53.8674 22.1995 48.6427 23.4159C47.0073 23.8069 46.5824 24.1006 47.0871 24.5487C47.8776 25.2532 48.8237 25.2731 52.2058 24.7186C55.9916 24.0828 59.8035 24.1535 63.4518 24.8358C63.6786 24.247 63.9607 23.6815 64.2927 23.1465ZM30.2371 35.1083C30.8424 36.0089 31.6078 36.7835 32.4861 37.3978C30.2756 40.3455 28.301 43.5147 26.9661 46.4231C26.0196 45.8706 24.9962 45.4444 23.922 45.1635C25.5029 41.7525 27.759 38.2285 30.2371 35.1083ZM22.6472 68.8926C23.5018 71.7847 24.7056 74.4177 26.2208 76.5278C27.4767 78.271 28.9063 79.8715 30.473 81.3227C31.0962 80.7992 31.7969 80.3593 32.5601 80.0233C32.1965 79.6836 31.8345 79.3349 31.4743 78.9771C28.7895 76.3078 26.8079 72.4073 25.6465 68.0432C24.7412 68.4314 23.7735 68.7147 22.7561 68.8759C22.7198 68.8816 22.6835 68.8872 22.6472 68.8926ZM64.5026 90.1503C58.2971 91.8235 51.2802 91.5158 44.7051 89.4564C44.7886 88.9557 44.8288 88.443 44.8225 87.9229C51.0828 90.3048 57.4373 90.3687 63.3828 88.2152C63.6735 88.9084 64.0511 89.556 64.5026 90.1503ZM81.8567 77.3625C84.4672 73.9501 86.4895 70.2281 88.0275 66.013C86.9535 65.8548 85.9195 65.5178 84.9576 65.0272C84.4711 66.4387 83.9586 67.7001 83.457 68.6694C82.1398 71.2153 80.7083 73.5372 79.1802 75.6318C80.1717 76.0797 81.0754 76.6636 81.8567 77.3625Z" fill="black"/>
<path fill-rule="evenodd" clip-rule="evenodd" d="M36.3158 23.6101C36.1458 23.476 34.4968 22.1388 34.0468 21.8012C33.4848 21.3822 33.0141 21.6178 32.1259 22.7373C31.6725 23.3171 30.9553 24.1866 30.5268 24.6881C29.0401 26.4104 29.0105 27.0841 30.4247 26.8602C30.9082 26.7836 31.1111 26.578 32.3159 24.8755C33.8748 22.671 33.7075 22.7099 35.576 24.0246C36.4629 24.5392 37.0268 25.0653 37.9695 22.9878C39.1264 20.0896 39.6319 16.5416 40.5576 15.2675C41.4732 14.0073 39.7267 13.7759 38.963 14.6651C38.0594 15.6879 36.3259 23.5961 36.3158 23.6101Z" fill="black"/>
<path fill-rule="evenodd" clip-rule="evenodd" d="M31.9933 81.0946C24.8802 83.2844 23.1691 93.2297 29.2793 96.8574C37.281 101.609 45.8208 95.7224 43.31 87.1927C42.4184 84.1707 40.4739 81.7773 38.6653 82.0638C38.2195 82.1344 38.8059 82.9515 39.3992 82.9805C40.7834 83.4587 42.2161 86.487 42.199 89.486C42.1493 96.8835 36.6479 99.1025 30.6994 94.8868C24.2855 90.3407 27.7675 79.7742 34.997 82.2581C35.4808 82.4276 35.5679 82.4226 35.7564 82.2257C37.24 81.8376 33.9114 80.5008 31.9933 81.0946Z" fill="black"/>
<path fill-rule="evenodd" clip-rule="evenodd" d="M34.9894 87.6525C34.8408 87.5351 33.3984 86.3655 33.0048 86.0702C32.5132 85.7037 32.1015 85.9098 31.3246 86.889C30.9281 87.3962 30.3007 88.1567 29.9259 88.5954C28.6255 90.1018 28.5996 90.6912 29.8366 90.4952C30.2595 90.4283 30.437 90.2484 31.4908 88.7593C32.8544 86.831 32.708 86.865 34.3424 88.015C35.1181 88.4651 35.6113 88.9253 36.4359 87.1082C37.4478 84.5731 37.89 81.4697 38.6997 80.3553C39.5005 79.253 37.9729 79.0506 37.3049 79.8284C36.5146 80.723 34.9983 87.6402 34.9894 87.6525Z" fill="black"/>
<path d="M23.9543 59.855C23.432 59.4188 22.1786 52.7931 22.3824 51.5045C22.7029 49.3781 23.9911 49.4984 24.5206 52.5553C25.4646 58.0864 25.2444 60.9889 23.9543 59.855Z" fill="black"/>
<path d="M19.3747 60.4165C18.9543 59.336 18.676 55.1469 18.9632 54.5279C19.6271 53.1391 20.7817 55.2777 21.3683 58.981C21.7185 61.1923 20.1112 62.3481 19.3747 60.4165Z" fill="black"/>
<path d="M16.5308 61.8774C15.76 61.5898 14.9106 58.8021 15.3757 58.0184C15.644 57.5662 16.5716 57.5558 16.7581 58.0179C17.8654 60.5736 17.7554 62.3116 16.5308 61.8774Z" fill="black"/>
<path fill-rule="evenodd" clip-rule="evenodd" d="M87.8918 45.3952C79.3519 48.0243 77.2976 59.9643 84.6334 64.3196C94.24 70.0243 104.493 62.957 101.478 52.7165C100.408 49.0883 98.0733 46.2149 95.9019 46.5588C95.3668 46.6436 96.0707 47.6246 96.783 47.6595C98.4449 48.2335 100.165 51.8692 100.144 55.4697C100.085 64.351 93.48 67.0151 86.3383 61.9539C78.638 56.4958 82.8184 43.8101 91.4979 46.7922C92.0787 46.9956 92.1833 46.9896 92.4096 46.7533C94.1908 46.2872 90.1946 44.6824 87.8918 45.3952Z" fill="black"/>
<path d="M94.7903 58.6363C94.2679 58.2001 93.0145 51.5743 93.2184 50.2858C93.5388 48.1594 94.827 48.2796 95.3565 51.3365C96.3005 56.8676 96.0803 59.7702 94.7903 58.6363Z" fill="black"/>
<path d="M90.2106 59.1977C89.7902 58.1173 89.512 53.9281 89.7992 53.3091C90.4631 51.9204 91.6177 54.059 92.2042 57.7623C92.5544 59.9736 90.9472 61.1294 90.2106 59.1977Z" fill="black"/>
<path d="M87.3667 60.6586C86.596 60.371 85.7465 57.5834 86.2116 56.7996C86.48 56.3475 87.4075 56.3371 87.594 56.7991C88.7013 59.3548 88.5913 61.0928 87.3667 60.6586Z" fill="black"/>
<path fill-rule="evenodd" clip-rule="evenodd" d="M78.4375 34.2477C86.5697 31.7442 88.5259 20.3741 81.5403 16.2266C72.3922 10.7943 62.6289 17.5242 65.4995 27.2759C66.5189 30.7309 68.7419 33.4672 70.8097 33.1397C71.3193 33.059 70.6489 32.1248 69.9706 32.0916C68.388 31.545 66.7501 28.0828 66.7696 24.6541C66.8264 16.1968 73.6911 12.7979 80.4919 17.6175C87.8247 22.815 83.2687 35.7572 75.0034 32.9175C74.4504 32.7238 74.3508 32.7295 74.1353 32.9545C72.4391 33.3983 76.2445 34.9266 78.4375 34.2477Z" fill="black"/>
<path d="M73.0125 27.0127C70.5505 23.0984 73.6186 19.0119 76.985 20.5064C79.0513 21.439 79.0736 22.3743 79.0756 23.0347C79.0326 23.2206 78.6217 23.5232 78.3463 22.8745C77.1259 19.9993 72.9618 21.6051 73.2354 24.5863C73.4988 27.5023 77.9548 28.3255 78.7197 25.495C78.8688 24.9445 79.1213 24.9244 79.3403 25.4404C80.4481 28.0502 74.5604 29.4704 73.0125 27.0127Z" fill="black"/>
<path fill-rule="evenodd" clip-rule="evenodd" d="M77.5547 95.3757C85.6869 92.8721 87.6431 81.502 80.6575 77.3546C71.5094 71.9222 61.7461 78.6521 64.6167 88.4038C65.636 91.8588 67.8591 94.5951 69.9268 94.2676C70.4364 94.1869 69.7661 93.2527 69.0878 93.2195C67.5052 92.6729 65.8673 89.2107 65.8868 85.7821C65.9436 77.3247 72.8083 73.9258 79.6091 78.7454C86.9419 83.9429 82.3859 96.8852 74.1206 94.0454C73.5676 93.8517 73.468 93.8574 73.2525 94.0824C71.5563 94.5262 75.3617 96.0545 77.5547 95.3757Z" fill="black"/>
<path d="M70.95 86.6943C68.488 82.78 71.5561 78.6936 74.9225 80.188C76.9888 81.1206 77.0111 82.0559 77.0131 82.7164C76.9701 82.9022 76.5592 83.2049 76.2838 82.5561C75.0634 79.681 70.8993 81.2867 71.1729 84.268C71.4363 87.184 75.8923 88.0071 76.6572 85.1767C76.8063 84.6261 77.0588 84.606 77.2778 85.122C78.3856 87.7318 72.4979 89.1521 70.95 86.6943Z" fill="black"/>
<path d="M32.9922 29.8313C33.3279 29.5748 39.246 28.546 40.1631 28.5837C41.6772 28.6387 40.4319 29.4052 38.2129 29.777C34.1984 30.4433 32.1223 30.4672 32.9922 29.8313Z" fill="black"/>
<path d="M32.7846 27.7701C33.5789 27.5325 36.6007 27.2267 37.0332 27.331C38.0026 27.5739 36.4167 28.1911 33.7307 28.6165C32.1269 28.8705 31.3652 28.1881 32.7846 27.7701Z" fill="black"/>
<path d="M70.7738 90.5471C71.1095 90.2906 77.0276 89.2618 77.9447 89.2995C79.4588 89.3545 78.2135 90.121 75.9945 90.4928C71.98 91.1591 69.9039 91.1829 70.7738 90.5471Z" fill="black"/>
</g>
<defs>
<clipPath id="clip0_1036_263">
<rect width="96" height="96" fill="white" transform="translate(0.5 15.3271) rotate(-9)"/>
</clipPath>
</defs>
</svg>
