<svg width="112" height="112" viewBox="0 0 112 112" fill="none" xmlns="http://www.w3.org/2000/svg">
<g clip-path="url(#clip0_490_72)">
<rect width="96" height="96" transform="translate(17.3633 0.645386) rotate(10)" fill="#FBFF47"/>
<path fill-rule="evenodd" clip-rule="evenodd" d="M51.4851 13.1383C41.8822 12.2324 39.7487 12.7222 41.9679 15.318C42.5474 16.05 49.0738 17.437 63.3796 19.802C88.9997 24.0834 92.9658 25.2551 95.504 29.1668C98.1681 33.2582 104.241 35.4312 104.766 32.4533C105.008 31.0789 100.462 25.1597 98.041 23.7093C93.1987 20.8085 64.8834 14.3985 51.4851 13.1383ZM24.5633 14.4536C7.67694 26.2776 5.08966 90.0662 21.515 89.3408C24.6141 89.1786 24.7263 88.0962 21.7482 86.2326C16.021 82.5459 15.2019 64.7432 17.2286 59.008C19.3027 52.6029 16.23 53.0584 18.4332 38.3305C21.4397 18.1543 28.3814 16.4652 32.9896 15.7819C35.644 15.4626 34.5254 13.7695 31.1431 12.8582C28.3583 12.131 27.6172 12.3152 24.5633 14.4536ZM98.9344 38.196C95.5891 44.2195 99.035 48.6062 92.6531 84.7996C92.3029 85.4464 86.7499 95.7804 76.4465 96.1681C72.4041 96.3214 65.4151 95.3252 50.5749 92.8659C25.6914 88.8719 24.9637 85.8548 27.1471 89.5465C30.5705 95.5826 75.5721 104.699 86.0548 101.508C92.7154 99.4546 97.5334 87.3135 102.259 60.5121C104.934 44.4501 103.551 29.8771 98.9344 38.196Z" fill="black"/>
<path d="M57.9544 75.9485C35.3494 75.6205 26.7635 52.1594 41.8547 42.336C51.1808 36.3466 55.5214 38.5433 58.2344 40.294C61.383 42.2805 59.029 43.4558 55.6357 42.8575C40.5971 40.2058 35.6469 61.7572 48.5993 68.5736C61.2569 75.2585 76.4971 59.1794 66.9283 48.5065C65.0681 46.4291 65.6578 45.3403 68.357 45.8163C82.0074 48.2232 72.1534 76.1462 57.9544 75.9485Z" fill="black"/>
<path d="M57.7769 47.8805L82.1603 16.1323L105.303 20.213L108.085 30.3501L74.9837 62.5919L54.1303 68.5614L57.7769 47.8805Z" fill="#FBFF47"/>
<path fill-rule="evenodd" clip-rule="evenodd" d="M89.4321 18.2215C87.1291 18.3504 85.3275 19.4685 81.7062 23.0809C80.6801 24.1105 79.6924 24.9217 79.5013 24.888C78.928 24.7869 77.1711 25.4905 76.3024 26.745C75.8496 27.3972 75.0579 28.2147 74.5393 28.6019C72.659 30.3254 74.7195 30.7732 70.4303 34.662C63.9203 40.6084 61.1887 43.6459 60.6701 45.4688C60.0473 47.7238 54.0778 59.227 54.4716 61.4643C54.7303 63.03 56.4248 63.6386 59.0989 63.3216C63.8991 62.7604 73.1222 58.1933 74.9144 57.13C77.2109 55.7612 84.5507 46.8643 85.2381 46.9574C86.0074 47.0648 87.7257 46.5796 88.0469 46.3547C89.5245 45.3203 94.1651 39.9169 94.767 38.4183C95.0191 37.7872 94.9338 37.1528 95.0686 36.3883C95.1505 35.9241 96.021 34.9798 97.6525 33.55C100.911 30.7181 100.952 30.6411 99.9465 27.0854C98.1133 20.8783 94.6855 17.9655 89.4321 18.2215ZM92.421 22.187C94.668 23.1744 95.5755 25.3614 96.4559 28.1911C97.2914 30.9566 98.267 29.7453 93.1895 34.1145C93.061 34.2044 92.8584 33.4368 92.497 32.6129C91.1233 29.3866 88.3815 26.7353 84.2811 25.5619C82.6992 25.114 82.2061 25.6745 85.6924 22.3481C86.9113 21.1835 87.441 21.5322 87.9596 21.145C88.8268 20.5378 90.3282 21.2831 92.421 22.187ZM84.8677 27.6641C88.4461 29.562 89.6443 30.5895 91.1291 35.1023C92.0817 38.0011 91.9981 37.6768 90.0455 39.3313C89.2826 39.985 89.2281 39.9754 89.1236 39.4502C88.791 37.5053 88.4182 36.4262 87.1267 34.65C84.6931 31.6872 83.6122 33.1878 85.4612 36.2727C87.5655 39.825 87.9723 40.7112 86.5576 42.8264C85.7212 44.0585 85.2024 44.4455 85.1669 43.8481C84.5686 37.1831 81.2501 33.8109 77.0582 32.6776C75.3123 32.2009 75.1387 31.748 76.3144 30.8292C77.0305 30.2797 77.8512 30.7343 79.9327 31.3828C80.8643 31.6878 81.15 30.3869 80.1332 29.9261C78.8035 29.3255 78.4211 28.7796 79.7746 27.3291C81.0129 26.0554 81.9605 26.1098 84.8677 27.6641ZM82.07 28.5221C81.4935 28.7583 81.2365 29.4168 82.9005 30.3577C84.4874 31.2569 85.4382 30.974 85.573 30.2095C85.626 29.9093 85.4894 29.4066 84.7811 29.1128C83.8416 28.6937 82.4041 28.3839 82.07 28.5221ZM78.234 34.6304C78.5005 34.8745 78.5232 34.9066 77.2481 36.2301C74.1136 39.4781 72.853 40.7195 71.9665 41.4361C71.4751 41.8281 70.3014 43.0568 69.3475 44.1555C66.2595 47.7775 63.9584 48.695 63.4135 46.5155C63.2112 45.748 64.4221 45.1169 64.9424 44.561C66.4342 42.966 73.5781 33.8939 75.2065 33.7587C76.5524 33.6301 77.8227 34.2483 78.234 34.6304ZM81.1445 36.8045C82.7942 39.2632 82.8313 40.6493 80.9059 42.3085C77.3169 45.4199 71.5727 50.8539 69.4802 51.8645C68.0655 52.544 68.9117 49.9905 69.5557 48.4151C70.4097 46.2852 72.791 43.6366 77.835 38.9801C80.7367 36.2542 80.2722 35.5248 81.1445 36.8045ZM82.7676 44.0444C82.7436 44.6594 82.9269 45.5363 82.1126 46.3219C81.5329 46.8952 79.5931 49.115 78.0404 50.8963C75.3491 54.0253 72.2096 55.8646 72.0971 55.2256C71.954 54.4402 74.1264 51.2198 75.9249 49.4818C80.418 45.2349 82.8362 41.5791 82.7676 44.0444ZM66.0463 50.1046C65.7478 52.2761 66.8674 53.4306 69.0982 53.2328C70.5259 53.1187 70.5308 53.0912 69.7584 54.2783C69.4117 54.8082 69.1308 55.6033 69.1082 56.0499C69.0906 56.9477 68.7711 57.0038 66.433 57.9711C66.0989 58.1091 65.731 57.9598 65.5929 57.6259C64.7945 55.7677 63.4146 54.6517 61.7426 54.0754C60.0707 53.499 60.127 53.8188 61.1271 51.1799L61.9733 48.9361C62.3282 48.9987 63.5858 49.53 64.9107 49.2006C65.4681 49.0737 66.0527 48.9516 66.0527 48.9516C66.0527 48.9516 66.1522 49.5039 66.0463 50.1046Z" fill="black"/>
</g>
<defs>
<clipPath id="clip0_490_72">
<rect width="96" height="96" fill="white" transform="translate(17.3633 0.645386) rotate(10)"/>
</clipPath>
</defs>
</svg>
