<svg width="119" height="119" viewBox="0 0 119 119" fill="none" xmlns="http://www.w3.org/2000/svg">
<g clip-path="url(#clip0_1036_1604)">
<path fill-rule="evenodd" clip-rule="evenodd" d="M81.0842 82.2852C107.233 74.9996 108.57 72.55 102.209 44.9987C96.5872 20.9044 92.6261 13.0178 86.6981 14.3864C86.3593 14.4646 83.9444 14.3085 81.3342 14.0786C68.2574 12.816 10.9968 30.6146 9.76832 36.3692C8.78723 40.8773 15.4353 74.3089 19.0409 83.229C22.7289 92.2491 24.5127 94.9295 34.4536 92.3966C42.983 90.1896 40.8503 86.8761 32.1558 88.8834C25.6632 90.3823 25.321 90.2829 19.082 63.7739C13.1037 38.3941 15.6636 36.4046 19.3376 34.5455C26.0472 31.153 67.0006 21.2819 84.5502 16.9329C86.9043 19.6601 89.4073 20.0644 96.7275 44.3019C103.7 67.5492 102.171 70.0739 86.1371 76.0947C74.9152 80.2911 78.813 79.5696 66.3012 82.815C54.6927 85.8519 52.4318 84.5591 52.6273 85.4059C53.2834 87.99 63.1004 87.3291 81.0842 82.2852Z" fill="black"/>
<path d="M45.7844 108.194C48.7029 110.075 55.3724 95.8359 55.7678 89.8786C55.8845 87.9865 53.5882 87.225 52.5119 88.7678C50.944 90.8757 42.866 106.314 45.7844 108.194Z" fill="black"/>
<path d="M79.1941 90.8479C79.2584 87.7081 61.7314 91.1159 55.8173 94.2371C53.9442 95.2346 54.5785 97.295 56.687 97.1761C59.6256 97.0826 79.1299 93.9877 79.1941 90.8479Z" fill="black"/>
<path d="M92.562 96.4622C91.0003 99.5715 77.5869 90.1402 74.0763 85.0197C72.9691 83.3891 74.5793 81.5834 76.3429 82.4318C78.8379 83.5432 94.1237 93.3529 92.562 96.4622Z" fill="black"/>
<path fill-rule="evenodd" clip-rule="evenodd" d="M38.4219 66.3634C38.3135 66.4756 38.0971 66.8314 37.9466 67.1488C37.7459 67.5628 37.6366 67.7237 37.5504 67.7122C35.4226 67.4234 33.4554 68.38 32.5153 69.4215L32.372 69.5846L31.7984 69.2534C31.0298 68.8152 29.5533 68.9406 31.2488 69.9687L31.9178 70.3713C31.9141 70.5385 30.6825 73.9303 33.3177 75.8287L33.7138 76.1174L33.529 76.6172C33.1785 77.5839 33.8876 77.6709 34.4153 76.7191L34.5697 76.4422L34.9085 76.5176C37.6107 77.0889 39.9032 74.9161 39.9079 74.9079L40.2426 75.123C40.8138 75.4964 41.3159 75.5351 41.6418 75.2261C42.0461 74.8476 40.7711 74.4065 40.6481 74.3356L40.2893 74.1338L40.3589 73.9282C41.2173 71.3152 40.6215 68.9882 38.852 68.0977L38.564 67.9532C38.6482 67.7505 38.7384 67.5185 39.054 66.8867C39.4685 66.0553 39.0534 65.6955 38.4219 66.3634ZM37.2841 68.4762C37.2751 68.5202 35.8773 71.3953 35.8303 71.401C35.764 71.4119 33.3312 70.1657 33.229 70.0685C33.1349 69.9759 33.2338 69.7762 33.4343 69.5424C35.0333 67.7286 37.3609 68.2201 37.2841 68.4762ZM38.4095 68.902C39.3806 69.7086 39.9158 71.4216 39.6257 72.7946C39.4435 73.6401 39.4853 73.615 38.872 73.239C38.5817 73.0605 36.6339 71.8923 36.6339 71.8923C36.6339 71.8923 37.6881 69.7257 37.848 69.3919C38.1868 68.6915 38.1692 68.7032 38.4095 68.902ZM33.8762 71.3982C34.9565 71.9399 35.1683 72.0841 35.4404 72.2467L34.7737 73.7138C33.9974 75.418 34.0994 75.3075 33.717 74.8628C32.9341 73.9573 32.5808 72.6389 32.771 71.3064C32.8381 70.8589 32.7894 70.8582 33.8762 71.3982ZM39.1006 74.4801C39.0941 74.4818 37.4324 76.8112 35.1025 75.7938L34.8752 75.6953L36.2875 72.7193C38.3212 73.9754 38.3311 73.9866 39.1006 74.4801Z" fill="black"/>
<path d="M37.8276 42.4291C50.746 38.4623 71.8823 32.3428 79.4133 30.3249C83.7678 32.7555 56.2607 40.4945 48.0126 42.8151L47.7788 42.8809C40.104 44.9373 34.2966 46.7937 37.8276 42.4291Z" fill="black"/>
<path fill-rule="evenodd" clip-rule="evenodd" d="M33.3859 38.9158C32.8465 39.5429 32.5906 39.8958 31.9764 40.8602C31.4495 41.6823 31.4603 41.6728 31.2083 41.5222C30.6839 41.1933 29.0853 41.1986 28.7208 41.5408C28.5454 41.7002 28.6263 41.9033 28.8421 41.8455C29.4298 41.6946 30.0453 41.8206 30.6121 42.0852C31.1196 42.326 31.1146 42.3075 30.684 43.0443C30.2201 43.8297 29.5983 45.087 29.2755 45.8809L29.0286 46.4891L28.5806 46.1002C27.5177 45.1685 26.5469 44.8271 26.1122 45.2278C25.9536 45.3761 26.001 45.4295 26.7131 45.8668C27.3376 46.2481 28.0384 46.8404 28.5863 47.4538C29.0299 47.9498 29.7454 47.758 30.0113 46.801C30.2026 46.1084 30.8036 44.7244 31.3417 43.7473L31.8212 42.8718L32.0774 43.1866C34.3663 46.0042 31.8681 50.6466 28.5023 49.8297C25.0648 48.9924 24.3336 43.5494 27.4773 42.2046C28.094 41.9402 28.0485 41.721 27.3916 41.8111C25.6913 42.0287 24.1146 44.5335 24.4115 46.5297C24.982 50.3367 29.2721 51.7653 32.4062 49.2001C34.3102 47.6455 34.3831 43.8711 32.5487 42.3794C32.4137 42.2701 32.2988 42.1621 32.2905 42.1312C32.2558 42.0017 33.0955 40.719 34.0262 39.5045C35.0736 38.1331 34.2732 37.8848 33.3859 38.9158Z" fill="black"/>
<path d="M41.4526 55.9525C54.371 51.9858 75.5073 45.8663 83.0383 43.8483C87.3928 46.2789 59.8857 54.0179 51.6376 56.3386L51.4038 56.4043C43.729 58.4608 37.9216 60.3171 41.4526 55.9525Z" fill="black"/>
<path d="M45.0776 69.476C57.996 65.5092 79.1323 59.3897 86.6633 57.3717C91.0178 59.8023 63.5107 67.5414 55.2626 69.862L55.0288 69.9278C47.354 71.9842 41.5466 73.8406 45.0776 69.476Z" fill="black"/>
<path fill-rule="evenodd" clip-rule="evenodd" d="M37.0109 52.4383C36.4715 53.0654 36.2156 53.4182 35.6014 54.3827C35.0745 55.2048 35.0853 55.1953 34.8333 55.0446C34.3089 54.7158 32.7103 54.721 32.3458 55.0633C32.1704 55.2227 32.2513 55.4258 32.4671 55.3679C33.0548 55.2171 33.6703 55.343 34.2371 55.6076C34.7446 55.8485 34.7396 55.83 34.309 56.5667C33.8451 57.3521 33.2233 58.6095 32.9005 59.4033L32.6536 60.0116L32.2056 59.6226C31.1427 58.691 30.1719 58.3496 29.7372 58.7503C29.5786 58.8986 29.626 58.952 30.3381 59.3892C30.9626 59.7706 31.6634 60.3628 32.2113 60.9762C32.6549 61.4722 33.3704 61.2805 33.6363 60.3234C33.8276 59.6309 34.4286 58.2469 34.9667 57.2697L35.4462 56.3942L35.7024 56.709C37.9913 59.5267 35.4931 64.1691 32.1273 63.3522C28.6898 62.5148 27.9586 57.0718 31.1023 55.727C31.719 55.4626 31.6735 55.2435 31.0166 55.3335C29.3163 55.5511 27.7396 58.0559 28.0365 60.0522C28.607 63.8592 32.8971 65.2878 36.0312 62.7226C37.9352 61.1679 38.0081 57.3935 36.1737 55.9018C36.0387 55.7926 35.9238 55.6846 35.9155 55.6537C35.8808 55.5242 36.7205 54.2415 37.6512 53.0269C38.6986 51.6555 37.8982 51.4072 37.0109 52.4383Z" fill="black"/>
</g>
<defs>
<clipPath id="clip0_1036_1604">
<rect width="96" height="96" fill="white" transform="translate(0.640625 25.5518) rotate(-15)"/>
</clipPath>
</defs>
</svg>
