<svg width="56" height="56" viewBox="0 0 56 56" fill="none" xmlns="http://www.w3.org/2000/svg">
<path fill-rule="evenodd" clip-rule="evenodd" d="M10.0579 2.19299C7.11366 2.67427 9.09544 4.6277 11.5301 4.96743C13.5685 5.25053 17.4752 5.25054 25.8834 5.22223C36.1318 5.19392 40.5199 5.30714 41.1711 5.59024C42.7848 6.32631 43.4926 9.15738 43.9456 16.8295C44.1154 19.5473 44.4551 23.624 44.7099 25.8888C45.5026 33.1646 44.7666 33.8724 35.4525 34.2404C31.857 34.382 27.1858 34.6651 25.0908 34.8632C15.2954 35.7975 9.20863 35.6276 5.81138 34.2687C2.98033 33.1363 3.12194 32.2304 3.03701 30.3336C2.83884 26.6532 2.92374 19.1509 3.29178 12.3281C3.60319 6.6094 3.9712 5.47699 5.81138 4.62768C6.9438 4.11809 6.54748 3.52359 5.13196 3.58021C3.00867 3.69345 1.3667 4.4012 1.05528 7.71352C0.658935 11.7902 -1.86078 34.1838 2.66889 36.0806C5.64149 37.3263 10.8223 38.5436 12.8606 38.5436C14.2762 38.5436 14.2196 40.129 12.8041 40.5537C9.54841 41.4879 11.8415 43.7527 16.1447 43.9226C24.8643 44.2057 37.604 43.4979 37.7173 42.6769C37.8305 41.8559 35.9904 39.9874 35.0278 39.9874C34.7164 39.9874 34.5181 39.6194 34.5181 39.0815C34.5181 38.3171 34.5182 37.2413 35.3958 37.2413C39.1611 37.2413 41.1711 37.0714 42.3035 36.8166C47.824 35.6276 48.0505 31.8907 47.9939 29.7107C47.7957 20.793 46.1254 12.2715 46.1254 10.2615C46.0971 6.77931 44.0588 3.35372 39.699 2.73089C38.0004 2.22131 12.9739 1.71171 10.0579 2.19299ZM24.836 19.519C24.4963 19.151 21.2123 15.4989 20.3064 14.5647C19.174 13.4039 18.0132 13.7719 15.5785 16.0085C14.3328 17.1692 12.3794 18.8962 11.2187 19.887C7.19862 23.2843 6.88718 24.813 10.1995 24.813C11.3319 24.813 11.8699 24.4167 15.2388 20.9628C19.5986 16.4897 19.2023 16.5181 22.9959 20.1984C25.5438 22.6614 25.2324 22.6898 29.3657 19.4624C32.9328 16.1501 34.9711 13.9418 37.5474 11.3656C40.0953 8.81764 36.1885 7.6569 34.1218 9.41215C31.6871 11.4222 24.8644 19.4907 24.836 19.519ZM34.0086 18.1884C33.499 19.4907 33.7538 28.182 34.32 28.7199C35.7072 30.1071 36.5566 27.1345 36.4717 21.2459C36.415 17.9902 34.8296 16.0368 34.0086 18.1884ZM17.6169 21.7272C16.7393 24.0487 17.4753 30.3902 19.2588 30.0788C21.0424 29.7674 19.8251 22.7747 19.4287 21.7555C19.1739 21.0194 17.9 20.9911 17.6169 21.7272ZM29.1391 22.3783C28.6579 22.9728 28.1766 27.361 28.4881 28.55C29.026 30.6733 31.2624 29.7391 31.2624 27.3893C31.2624 23.4542 30.2432 21.0477 29.1391 22.3783ZM13.0305 25.4076C12.6059 25.8322 12.7757 29.003 13.2853 29.6824C14.1912 30.9281 14.9839 30.1354 14.9839 27.9555C14.9556 25.6907 13.9931 24.4167 13.0305 25.4076ZM22.7976 25.4076C22.0616 26.1436 22.5711 29.1728 23.4771 29.5975C24.9209 30.2486 25.4022 28.465 24.5246 25.634C24.383 25.1244 23.2223 24.9829 22.7976 25.4076ZM30.1018 37.7226C31.2342 38.034 30.8095 39.0532 30.9228 39.9874L17.8433 40.2139C17.8433 40.1289 18.0699 37.8924 18.0699 38.034C18.9758 38.0057 27.2708 37.666 28.4032 37.5811C28.8561 37.5244 29.6488 37.6094 30.1018 37.7226Z" fill="black"/>
<ellipse cx="35.5038" cy="32.5" rx="13.4781" ry="13.5211" transform="rotate(0.0897021 35.5038 32.5)" fill="#F9F9F9"/>
<path fill-rule="evenodd" clip-rule="evenodd" d="M32.6488 21.3348C26.9362 22.4134 24 26.6878 24 34.0183C23.9801 41.5285 31.5502 46.1426 39.3401 43.3662L40.7783 42.8468C41.9567 44.0852 42.1565 44.0852 40.8981 44.8442C39.8994 45.4435 39.9992 46.0627 40.6384 46.3024C41.4973 46.6219 46.7106 51.6354 47.4097 52.8538C49.9864 57.348 56.418 55.7701 55.9786 52.2546C55.7788 50.6567 54.5603 48.7991 53.1222 47.4808C51.5243 46.0027 50.6255 44.8043 49.447 42.5672C48.3085 40.39 47.2899 39.9106 45.8118 40.8095C45.1726 41.189 45.1126 41.209 44.7731 40.8894C44.074 40.2702 44.1139 39.8507 44.9728 38.5524C48.2486 33.5189 48.4283 29.1246 45.5321 25.6292C41.4973 20.7555 38.0418 22.5132 40.3988 24.0313C46.1313 27.7065 45.8317 35.1768 39.7197 40.8095C36.3241 43.9454 29.4929 42.2676 27.7352 37.8733C24.9588 30.8824 29.5328 21.6543 36.9432 23.1324C39.4999 23.7916 40.5186 19.8567 32.6488 21.3348ZM31.8498 26.3083C30.9909 27.0274 31.5502 27.6466 33.1481 26.548C34.2667 25.789 34.8061 25.6492 35.8247 25.8888C37.163 26.1885 37.9819 25.8489 37.5624 25.1698C37.4226 24.9301 34.4864 24.0912 31.8498 26.3083ZM39.8594 26.0486C38.7808 25.9887 38.5012 26.5879 39.2402 27.3669C40.159 28.3457 41.9967 28.5055 41.8968 27.6066C41.8369 26.9874 40.6784 26.0886 39.8594 26.0486ZM46.8105 42.7869C46.9703 43.4461 48.5482 45.763 49.3871 46.6219C50.4058 47.6406 50.8452 48.3197 52.1635 49.7579C54.84 52.6941 51.6441 55.6103 49.1274 51.935C45.9515 47.3011 42.9953 45.8429 43.0353 45.3036C43.0952 44.6245 46.6707 42.2276 46.8105 42.7869Z" fill="black"/>
</svg>
