<svg width="314" height="296" viewBox="0 0 314 296" fill="none" xmlns="http://www.w3.org/2000/svg">
<rect width="240" height="296.245" rx="26.1139" transform="matrix(0.0747489 0.997202 0.997202 -0.0747489 0 48.1436)" fill="#D0FB5C"/>
<path d="M153.798 179.868C153.578 175.803 177.972 123.755 183.349 116.796C192.166 105.266 186.579 118.247 177.319 137.685C160.516 172.814 154.136 190.239 153.798 179.868Z" fill="black"/>
<path fill-rule="evenodd" clip-rule="evenodd" d="M101.732 113.797C99.7159 118.888 97.9007 125.749 96.518 134.951C95.1803 139.893 94.4756 146.648 93.8255 152.879C93.3561 157.378 92.9152 161.604 92.2852 164.678C87.5422 188.235 96.9276 197.5 127.276 201.457C132.61 202.152 137.49 202.6 141.865 203.002C147.098 203.482 151.608 203.897 155.307 204.587C187.062 210.538 208.329 208.003 219.84 204.564C229.432 201.698 232.07 199.678 232.909 193.501C234.645 181.525 237.53 157.296 238.343 134.876C238.458 131.674 238.655 128.718 238.835 126.026C239.71 112.921 240.167 106.082 228.602 107.638C225.05 105.637 226.522 103.81 231.134 104.413C238.043 105.411 243.203 108.211 243.242 119.135C243.247 119.878 243.257 120.797 243.269 121.871C243.465 140.212 244.143 203.661 229.62 208.256C219.532 211.45 202.932 213.617 196.266 213.015C191.638 212.596 190.612 221.241 195.115 223.048C205.485 227.066 198.959 229.071 184.837 228.354C178.403 227.983 171.235 227.626 163.988 227.265C139.025 226.023 113.121 224.733 113.022 222.627C112.958 221.276 113.608 221.256 115.705 221.192C117.83 221.127 121.438 221.016 127.294 219.431C128.312 219.523 129.069 218.378 129.228 216.619C129.262 216.248 129.319 215.793 129.383 215.285C129.749 212.37 130.332 207.729 127.887 207.508C118.229 206.635 112.174 204.202 108.261 202.63C107.185 202.198 106.271 201.83 105.489 201.579C89.7244 196.662 87.0535 185.636 85.6295 179.758C85.4546 179.036 85.2986 178.392 85.1394 177.846C87.2589 159.065 90.5476 140.732 92.7735 128.323C93.9969 121.504 94.8992 116.474 95.1099 114.143C95.3861 111.342 96.0596 108.588 97.1334 106.017L101.732 113.797ZM172.865 98.7321L170.762 93.9504C191.357 95.4755 211.107 97.2984 215.436 98.421C223.708 100.552 220.172 100.697 213.785 100.959C212.848 100.997 211.85 101.038 210.818 101.088C204.774 101.378 194.659 100.724 172.865 98.7321ZM135.391 216.499C135.816 213.325 136.366 209.222 139.389 208.677C140.904 208.441 143.521 208.398 144.985 208.717C146.181 208.916 150.642 209.704 156.221 210.69C167.804 212.737 184.204 215.636 186.198 215.879C186.24 215.416 186.319 222.796 186.294 223.074L135.05 218.674C135.181 218.06 135.282 217.31 135.391 216.499Z" fill="black"/>
<path d="M210.707 164.516C204.649 169.529 194.923 173.812 191.532 172.802C190.145 172.363 190.677 170.921 197.824 166.395C216.574 154.54 216.465 150.841 203.266 139.697C193.261 131.325 187.134 133.011 191.351 130.39C193.253 129.249 208.756 136.535 212.44 142.289C217.487 150.089 216.803 159.407 210.707 164.516Z" fill="black"/>
<path d="M132.712 158.08C139.213 162.504 149.297 165.857 152.579 164.534C153.919 163.968 153.254 162.582 145.715 158.745C125.937 148.697 125.7 145.003 137.798 132.673C146.976 123.402 153.233 124.506 148.789 122.292C146.789 121.334 132.036 130.039 128.906 136.112C124.612 144.35 126.165 153.563 132.712 158.08Z" fill="black"/>
<path fill-rule="evenodd" clip-rule="evenodd" d="M109.492 1.54676C105.428 2.3177 106.656 5.15876 106.096 8.80334C105.675 11.7471 103.605 9.81715 102.133 8.90599C92.6713 2.73826 78.0508 18.7793 77.6023 26.4982C81.1767 30.7038 82.228 32.8063 82.7186 33.5072C71.2941 35.259 70 34.9787 70 47.7352C70 58.3183 70.8036 57.7576 84.1203 58.6689C82.9288 60.351 78.2331 67.7102 75.5697 70.7939C72.8363 73.948 72.9763 74.6488 77.1816 79.0645C89.4471 92.031 95.8952 94.1335 102.343 87.2647C105.007 84.4613 105.708 84.9521 105.778 89.9982C105.918 96.1662 111.067 97.9181 129.36 96.0959C140.854 94.9745 139.803 93.6427 138.892 87.0547L144.251 90.1384C151.751 93.2925 154.624 91.1899 169.413 71.6349C170.324 70.4437 171.591 68.0609 169.348 68.0609C168.507 68.0609 166.264 66.6586 164.371 64.9766L160.867 61.8929C163.32 61.6125 167.385 61.0518 170.679 60.4912C172.362 60.2108 173.553 58.8091 173.693 57.1266C174.394 47.1042 174.675 42.8287 174.675 42.8991C174.745 41.7777 174.184 40.6558 173.273 40.0253C172.221 39.3245 170.469 38.4131 167.386 37.7826C162.479 36.8014 162.409 37.2917 167.946 31.4046C173.903 24.9563 174.044 25.3768 163.46 14.5131C154.349 5.12125 147.06 2.17752 142.574 5.89223L140.402 7.7145L139.981 5.96232C138.93 1.75701 121.548 -0.766197 109.492 1.54676ZM136.117 15.1251C136.748 30.0539 132.341 27.3155 141.172 17.0826C150.354 6.49929 148.953 8.9198 155.19 14.8773C161.849 21.1853 171.059 23.2041 161.877 31.8251C151.504 41.4974 143.205 41.5296 156.382 40.1279C166.054 39.0763 170.002 43.2492 169.021 55.3747C151.499 56.4961 140.612 53.4961 149.863 60.0846C157.082 65.2709 163.306 72.3546 162.465 73.476C162.045 73.9668 150.564 83.4801 150.564 83.4801C149.443 82.639 147.761 84.9382 142.013 79.4012C133.603 71.411 134.799 69.6027 135.08 81.3072L135.29 89.6481C120.992 91.6104 109.483 92.5213 108.711 79.485C108.431 74.7192 111.711 68.7793 106.39 71.9529C103.051 76.4012 97.5773 80.0506 95.3345 84.1858C94.3532 86.008 88.6524 81.7277 84.0967 78.2234C79.0503 74.3685 78.9102 74.4899 85.148 67.1307C87.1806 64.7478 88.2132 63.0142 89.4748 61.1217C94.381 53.5525 93.0218 53.9403 84.0505 53.9403L73.9852 51.9403C73.9852 51.9403 75.0553 43.0903 75.6861 39.586C76.387 39.586 85.8726 39.6558 90.148 39.7262C101.642 39.8663 98.993 43.586 93.8766 37.9787C89.0405 32.7221 86.3069 26.2179 84.6248 24.2554C85.606 23.3442 84.1907 24.6196 96.9467 12.2139C97.7177 13.055 101.713 17.2603 105.568 21.8861C110.403 27.7032 110.081 28.5308 110.081 24.6058V20.4005C110.151 5.40159 109.52 4.45292 124.141 4.66317L132.697 6.73326L136.117 15.1251Z" fill="black"/>
<path d="M136.203 38.6361C134.57 38.6361 134.226 39.4099 135.315 40.6996C139.385 45.5429 135.257 55.8684 128.551 59.2788C123.106 62.0301 117.484 59.7814 113.529 56.6003C107.396 51.6422 108.051 46.7788 112.389 39.0716C117.232 34.2569 125.995 34.7237 130.81 38.0481C133.131 39.6244 132.506 37.7477 134.484 36.6013C137.407 34.8818 133.251 32.5891 128.035 31.586C110.983 28.2902 99.0039 43.852 109.464 59.5858C114.824 67.639 130.494 66.3742 135.624 58.493C141.586 49.3508 142.508 38.6361 136.203 38.6361Z" fill="black"/>
<path d="M292.403 262.181C291.38 256.131 291.809 249.508 293.629 242.885C295.035 237.781 298.195 228.751 299.011 227.544C300.283 225.663 297.427 222.628 294.96 226.277C293.688 228.158 285.069 238.242 276.885 242.239C269.106 246.06 266.649 246.731 263.429 246.108C261.599 245.73 261.52 246.33 263.066 248.399C266.886 253.518 266.304 259.219 260.042 278.219C256.417 289.267 258.235 290.087 266.349 281.052C274.396 272.054 287.004 264.176 291.405 265.351C292.849 265.756 292.936 265.446 292.403 262.181ZM268.503 272.119L266.261 274.284C266.435 273.543 271.887 259.19 268.989 252.404C268.193 250.556 268.187 250.021 269.001 250.571C271.612 252.336 280.371 248.155 286.123 242.309C288.782 239.648 288.942 239.593 288.381 241.995C287.145 247.09 287.043 252.625 288.057 258.506L288.708 262.383C288.152 262.539 280.166 260.738 268.503 272.119Z" fill="black"/>
</svg>
