<svg width="334" height="342" viewBox="0 0 334 342" fill="none" xmlns="http://www.w3.org/2000/svg">
<rect x="320.561" y="49.6523" width="240" height="296.245" rx="26.1139" transform="rotate(91.2868 320.561 49.6523)" fill="#FCB37E"/>
<path d="M123.956 39.0106L93.1316 34.7502L80.3035 47.5539C79.7781 48.3189 76.2543 57.1977 66.3622 86.5929C53.9971 123.337 56.1418 154.169 60.248 159.009C64.3541 163.849 151.37 198.873 173.748 187.892C196.126 176.911 219.908 87.5849 210.613 72.1002C203.177 59.7125 151.597 44.8001 126.737 38.8924L123.956 39.0106Z" fill="#FCB37E"/>
<path fill-rule="evenodd" clip-rule="evenodd" d="M175.136 50.4243C190.635 56.2531 193.558 58.6144 188.18 60.9495C186.735 61.6429 175.622 58.8715 151.769 51.755C109.017 39.0807 102.016 37.9039 95.1561 42.0293C87.9667 46.3373 76.9615 45.1201 78.3924 40.1302C79.0527 37.8272 90.5216 32.1155 95.3487 31.6996C105.003 30.8678 153.515 42.2861 175.136 50.4243ZM215.685 72.7134C232.841 103.665 188.83 204.033 164.033 190.553C159.373 187.971 160.015 186.216 166.012 185.582C177.623 184.203 192.284 157.352 193.473 146.977C195.093 135.534 199.491 138.549 207.175 114.167C217.719 80.7739 208.28 72.944 201.684 68.4218C197.829 65.9316 200.829 64.161 206.733 65.3002C211.577 66.2738 212.582 67.1158 215.685 72.7134ZM83.0684 53.3791C83.6971 65.1906 75.0791 69.3658 57.689 130.012C57.7427 131.274 58.5339 151.397 74.1396 159.749C80.2613 163.028 91.7945 166.75 116.543 174.123C157.942 186.687 161.335 182.579 155.188 186.632C145.364 193.369 69.0692 173.569 55.296 160.758C46.5646 152.577 48.2674 130.218 61.1449 85.3093C69.1052 58.514 82.2064 37.0699 83.0684 53.3791Z" fill="black"/>
<path d="M118.568 142.666C153.693 159.171 184.596 129.434 168.703 102.92C158.821 86.6607 150.471 86.7835 144.967 87.4431C138.614 88.1387 141.362 91.7236 147.048 93.354C172.247 100.58 163.666 137.557 138.552 138.327C113.992 139.116 102.577 102.839 125.373 93.572C129.807 91.7665 129.716 89.6428 125.193 88.3459C102.32 81.7872 96.5113 132.286 118.568 142.666Z" fill="black"/>
<path fill-rule="evenodd" clip-rule="evenodd" d="M113.282 41.4388L112.231 35.8885L111.336 33.3787C107.439 32.0461 97.4954 32.5583 90.8847 35.6852C85.0216 38.4585 79.7118 45.4271 76.2344 50.8502L82.6698 64.5914L91.6213 58.321C98.1835 51.2534 106.049 43.9684 111.682 42.7594L113.282 41.4388Z" fill="#FCB37E"/>
<path fill-rule="evenodd" clip-rule="evenodd" d="M92.2764 5.34064C95.8881 6.96389 98.0877 9.86419 101.669 17.8814C102.68 20.1628 103.764 22.0704 104.091 22.134C105.072 22.3247 107.455 24.5332 108.075 27.078C108.4 28.402 109.165 30.1991 109.758 31.1387C111.712 35.0577 108.134 34.5076 112.615 43.3788C119.39 56.9137 121.9 63.4622 121.609 66.7026C121.22 70.6999 123.71 92.8078 121.703 96.1511C120.325 98.5013 117.235 98.4341 113.144 96.2811C105.797 92.4286 93.825 79.4352 91.6068 76.6284C88.7685 73.0219 82.4787 54.2479 81.3198 53.9743C80.0208 53.6731 77.5654 51.8383 77.189 51.2803C75.4574 48.7135 71.3442 37.1989 71.3015 34.4268C71.2858 33.2604 71.8127 32.296 72.067 30.9879C72.2214 30.1936 71.4071 28.1447 69.6721 24.8496C66.1924 18.3066 66.1731 18.1575 69.9725 13.0778C76.7292 4.25789 84.0147 1.69837 92.2764 5.34064ZM85.0467 9.85714C80.8382 10.0573 78.0384 13.004 74.8866 16.9974C71.8461 20.9155 71.0279 18.3739 76.4774 28.5C76.6281 28.723 77.4249 27.6174 78.511 26.5194C82.6974 22.1938 88.7226 19.6316 96.0159 20.2736C98.8267 20.5289 99.2721 21.7305 95.7314 14.2547C94.4942 11.6384 93.4309 11.8714 92.8379 10.9319C91.8216 9.42524 88.9569 9.69601 85.0467 9.85714ZM93.7826 23.2818C86.88 24.1219 84.3277 25.0316 79.1719 31.3506C75.8618 35.4103 76.1953 34.9419 78.3068 38.7947C79.1273 40.3117 79.2205 40.3298 79.7111 39.5525C81.4406 36.6401 82.7019 35.14 85.8645 33.088C91.5874 29.8368 92.3965 32.9066 87.5354 36.7132C81.9776 41.1116 80.7805 42.2817 81.7464 46.542C82.3289 49.0311 82.9224 49.9704 83.3466 49.0349C88.4059 38.7213 95.7988 35.3585 103.214 36.121C106.305 36.4311 106.862 35.812 105.543 33.6163C104.734 32.2951 103.139 32.5186 99.4038 32.2775C97.7232 32.1932 98.0656 29.9326 99.9786 29.8196C102.479 29.6751 103.428 29.0355 102.151 25.8782C100.95 23.0751 99.3979 22.5793 93.7826 23.2818ZM97.7385 26.378C98.517 27.1112 98.5239 28.3247 95.2782 28.8089C92.1817 29.2737 90.832 28.2354 91.0862 26.9273C91.1861 26.4135 91.7142 25.6918 93.0301 25.6569C94.7937 25.5631 97.2879 25.9509 97.7385 26.378ZM100.128 38.5273C99.551 38.7546 99.495 38.792 100.724 41.6977C103.75 48.8312 105.006 51.5964 105.986 53.2902C106.533 54.2207 107.658 56.912 108.511 59.2596C111.231 66.9642 114.355 69.8502 116.569 66.6925C117.365 65.5869 115.813 63.8306 115.321 62.6195C113.911 59.1456 108.043 40.2112 105.517 38.9928C103.439 37.9587 101.023 38.1679 100.128 38.5273ZM94.1263 40.2211C89.97 43.1466 89.0577 45.3452 91.1227 49.1889C94.9605 56.3833 100.823 68.6259 103.555 71.5328C105.405 73.4922 105.619 68.8791 105.556 65.9582C105.498 62.0193 103.311 56.3095 98.0919 45.7437C95.1185 39.59 96.3117 38.7068 94.1263 40.2211ZM87.0711 50.8256C86.7313 51.8259 85.8981 53.1185 86.7198 54.8785C87.2962 56.154 89.0394 60.9049 90.4319 64.7149C92.8201 71.3851 96.7202 76.2645 97.2936 75.3096C98.006 74.1389 96.5057 67.6412 94.6925 63.7494C90.1044 54.1789 88.4779 46.8324 87.0711 50.8256ZM110.141 70.8249C109.284 74.4887 106.779 75.6501 103.326 73.9608C101.108 72.8994 101.117 72.8525 101.624 75.23C101.854 76.2927 101.815 77.7397 101.577 78.4693C101.052 79.919 101.53 80.2056 104.682 83.1942C105.133 83.6209 105.814 83.608 106.241 83.1577C108.664 80.6708 111.562 79.7313 114.596 79.8362C117.63 79.9411 117.343 80.4189 117.364 75.5744L117.388 71.4578C116.78 71.3398 114.438 71.4177 112.517 70.0746C111.702 69.5283 110.84 68.973 110.84 68.973C110.84 68.973 110.341 69.797 110.141 70.8249Z" fill="black"/>
<path fill-rule="evenodd" clip-rule="evenodd" d="M248.697 185.737C248.808 191.422 255.441 200.563 259.955 198.835C261.906 198.055 261.906 197.219 259.788 191.144C254.716 176.708 248.585 181.167 248.697 185.737ZM285.481 198.612C283.921 203.015 289.327 203.795 293.061 199.727C296.851 195.546 300.92 189.304 303.094 185.068C305.49 181 300.809 178.938 296.907 182.282C292.281 186.183 286.54 195.546 285.481 198.612ZM208.679 195.212C205.224 196.605 216.816 210.985 221.498 211.096C226.96 211.208 227.406 209.982 223.616 204.91C217.652 196.884 212.636 193.596 208.679 195.212ZM325.818 207.291C323.812 208.461 313.333 218.494 312.107 220.389C309.488 224.569 314.95 225.516 319.91 221.726C325.707 217.323 333.9 209.743 333.9 208.74C333.955 206.734 328.549 205.73 325.818 207.291ZM195.526 233.988C203.663 235.994 208.345 236.496 210.184 235.493C213.194 233.877 211.8 232.706 204.666 230.923C203.997 230.755 197.421 228.916 192.906 228.916C189.674 228.916 182.484 230.7 195.526 233.988Z" fill="black"/>
<path d="M299.795 234.837C295.252 234.837 294.295 236.989 297.324 240.576C308.643 254.047 298.281 286.647 279.629 296.132C264.485 303.784 247.732 301.991 236.732 293.143C219.675 279.354 211.961 251.927 233.561 230.486C247.032 217.095 271.404 215.612 284.795 224.858C291.251 229.242 289.513 232.366 295.012 229.178C303.143 224.395 291.585 218.019 277.078 215.229C229.652 206.063 196.335 249.344 225.428 293.103C240.333 315.501 283.917 311.983 298.185 290.064C314.764 264.637 317.331 234.837 299.795 234.837Z" fill="black"/>
<path fill-rule="evenodd" clip-rule="evenodd" d="M237.164 301.443C236.202 311.903 235.985 322.978 236.672 326.369C237.558 330.92 243.599 337.645 248.271 339.417C253.707 341.391 266.957 342.075 272.434 340.585C284.154 337.404 286.207 334.222 287.174 317.589C287.471 312.469 287.668 305.746 287.722 300.022L284.311 301.511C284.209 307.458 283.77 313.733 283.494 317.677C283.374 319.403 283.284 320.683 283.268 321.295C282.905 330.96 282.422 332.611 279.724 333.216C263.212 336.8 255.64 335.591 252.781 334.746C242.924 331.854 241.773 326.884 241.668 302.69L237.164 301.443ZM287.124 287.029L287.737 297.395C287.743 293.453 287.669 290.279 287.496 288.916C287.421 288.315 287.293 287.677 287.124 287.029Z" fill="black"/>
<path fill-rule="evenodd" clip-rule="evenodd" d="M244.779 235.828L241.883 232.592C235.416 237.625 230.263 245.476 228.45 254.99C228.188 256.37 228.041 257.724 228 259.043C229.738 259.575 231.423 260.078 232.883 260.496C233.022 256.297 234.092 251.713 236.352 247.2C238.704 242.502 241.616 238.7 244.779 235.828Z" fill="black"/>
<path fill-rule="evenodd" clip-rule="evenodd" d="M24.4855 253.721C-4.14881 263.19 -9.40448 307.365 18.0065 308.317C30.9645 308.77 49.4499 297.126 49.9936 287.475C50.2202 283.624 44.3302 283.896 43.0163 287.838C39.1198 299.346 20.3172 308.589 13.5211 302.744C2.10362 292.957 6.58906 270.349 22.1748 259.385C37.2622 248.783 48.1813 269.352 35.0422 283.715C24.8027 294.906 14.835 283.443 23.67 270.621C26.8415 266.045 30.5567 265.682 34.3626 269.579C36.1749 271.436 38.4402 270.666 37.9418 268.22C36.8545 262.511 24.3949 262.647 18.4143 268.491C5.81884 280.77 17.0551 297.126 33.9095 291.009C57.8771 282.31 48.5891 245.747 24.4855 253.721Z" fill="black"/>
</svg>
