<svg width="118" height="119" viewBox="0 0 118 119" fill="none" xmlns="http://www.w3.org/2000/svg">
<g clip-path="url(#clip0_409_14840)">
<rect width="96" height="96" transform="translate(25.1797 0.635803) rotate(15)" fill="#FF9D56"/>
<path d="M46.2326 73.9554C46.9498 73.262 60.982 70.4685 68.37 69.5555C81.5674 67.8959 83.0152 67.3393 83.1697 63.8977C83.3699 59.4054 75.1137 51.8795 59.9276 42.674C51.0408 37.2818 49.0216 36.4455 46.398 36.9824C45.2186 37.1977 44.6961 37.8251 44.1873 39.2831C44.1726 39.3381 36.1695 62.8165 35.4455 63.0945C31.436 64.618 44.6586 75.4227 46.2326 73.9554ZM43.4909 65.9001C43.2084 65.4108 50.0892 43.6982 50.4746 43.8015C50.6951 43.8605 73.7218 58.1778 73.3971 59.3895C73.1422 60.561 44.0149 66.8078 43.4909 65.9001Z" fill="black"/>
<path d="M108.221 57.2095C108.165 40.0141 104.566 36.0386 82.1705 28.621C69.1016 24.2926 48.0238 18.3496 43.0691 17.6715C38.5148 17.0415 31.9121 18.1062 29.864 19.8009C29.1066 20.4245 27.327 21.7778 25.8012 22.845C21.4335 25.9254 22.2528 29.0379 27.9294 31.2083C29.4825 31.8016 31.2757 31.2784 32.2801 29.9535C33.255 28.7388 34.2891 27.3037 35.2384 25.964C37.0673 23.325 39.1947 22.6553 43.8887 23.2046C56.6449 24.7333 81.7596 34.1195 85.8065 35.322C98.8938 39.3601 100.976 40.6263 100.813 44.5384C99.6637 68.4364 95.2363 78.3494 93.0318 81.95C84.2824 96.3139 75.9981 93.74 27.5942 80.7112C24.9502 80.0028 22.7669 78.2369 21.4509 75.8769C15.0768 64.1914 17.9345 48.8987 24.3568 38.8114C25.5933 36.8406 21.2528 32.5482 19.2274 33.7178C15.4558 35.8954 4.04868 64.3653 15.2328 77.93C21.4685 85.5049 66.4947 100.344 75.6703 100.914C82.2194 101.37 93.6321 95.5719 97.7681 89.8315C102.46 83.1186 108.252 65.2471 108.221 57.2095Z" fill="black"/>
</g>
<defs>
<clipPath id="clip0_409_14840">
<rect width="96" height="96" fill="white" transform="translate(25.1797 0.635803) rotate(15)"/>
</clipPath>
</defs>
</svg>
