<svg width="356" height="154" viewBox="0 0 356 154" fill="none" xmlns="http://www.w3.org/2000/svg">
<g filter="url(#filter0_d_284_2152)">
<path d="M73.7196 142.106C61.4385 140.958 48.9208 139.571 37.2609 133.684C30.1415 130.219 23.5551 124.982 17.8934 118.284C12.2318 111.585 7.61053 103.563 4.30456 94.6942C1.11391 85.7531 -0.342149 76.0547 0.0677031 66.4735C0.477555 56.8922 2.74041 47.729 6.65234 39.8094C18.3265 17.4954 41.7405 11.9221 62.9066 8.90545C130.069 -0.448908 198.047 -2.43812 266.119 2.95807C282.237 4.16093 298.527 5.80445 314.15 12.309C321.868 15.0639 329.083 20.0626 335.225 26.9093C348.167 42.5354 350.364 67.3758 349.955 89.5402C350.206 101.275 348.55 112.808 345.094 123.4C335.684 148.51 310.667 143.152 291.891 144.557C267.323 146.346 242.711 147.448 218.057 147.861C169.98 148.558 121.867 146.639 73.7196 142.106Z" fill="#55CCFF"/>
</g>
<defs>
<filter id="filter0_d_284_2152" x="0" y="0" width="356" height="154" filterUnits="userSpaceOnUse" color-interpolation-filters="sRGB">
<feFlood flood-opacity="0" result="BackgroundImageFix"/>
<feColorMatrix in="SourceAlpha" type="matrix" values="0 0 0 0 0 0 0 0 0 0 0 0 0 0 0 0 0 0 127 0" result="hardAlpha"/>
<feOffset dx="6" dy="6"/>
<feComposite in2="hardAlpha" operator="out"/>
<feColorMatrix type="matrix" values="0 0 0 0 0 0 0 0 0 0 0 0 0 0 0 0 0 0 1 0"/>
<feBlend mode="normal" in2="BackgroundImageFix" result="effect1_dropShadow_284_2152"/>
<feBlend mode="normal" in="SourceGraphic" in2="effect1_dropShadow_284_2152" result="shape"/>
</filter>
</defs>
</svg>
