<svg width="107" height="128" viewBox="0 0 107 128" fill="none" xmlns="http://www.w3.org/2000/svg">
<path fill-rule="evenodd" clip-rule="evenodd" d="M3.16547 42.9471C-1.73338 46.1837 3.41977 48.1732 8.07187 46.847C11.9656 45.7343 18.9862 42.6085 34.0731 35.8293C52.4669 27.5778 60.4448 24.2741 61.8456 24.2713C65.3453 24.3273 68.9242 28.9424 75.99 42.6216C78.5099 47.4599 82.4422 54.6493 84.7456 58.5906C92.0988 71.2726 91.353 73.1568 74.9149 81.2826C68.5691 84.4184 60.4053 88.6739 56.802 90.7128C39.9605 100.26 28.8838 104.819 21.6715 105.05C15.6612 105.243 15.1775 103.471 13.4792 100.068C10.1241 93.4905 4.16335 79.6918 -0.734932 66.9101C-4.83527 56.1945 -5.09669 53.8275 -2.48188 50.8008C-0.862111 48.9621 -2.05875 48.1911 -4.55638 49.4273C-8.27974 51.3334 -10.6537 53.9425 -8.51428 60.2539C-5.90458 68.0322 7.81507 111.033 17.5007 110.881C23.8577 110.782 34.1598 108.865 37.8228 107.234C40.3666 106.101 41.5569 109.048 39.3592 110.958C34.2698 115.273 40.2361 117.583 48.1075 114.451C64.0078 107.993 86.325 96.5044 85.8595 94.9112C85.394 93.3179 80.5646 91.3705 78.8348 92.1407C78.2752 92.3898 77.619 91.8748 77.1807 90.8903C76.5578 89.4913 75.6812 87.5224 77.2584 86.8202C84.0248 83.8076 87.4984 81.8885 89.3258 80.5161C98.2776 73.923 95.6396 66.9023 93.7615 62.958C86.1386 46.7951 76.1931 32.5355 74.5552 28.8567C71.6668 22.5062 65.2126 17.8675 56.8703 20.2158C53.4025 20.6422 8.01344 39.7332 3.16547 42.9471ZM68.1371 91.9368C70.4258 91.6007 70.4931 93.8058 71.4579 95.4251L48.138 106.304C48.0688 106.149 46.6535 101.874 46.7688 102.133C48.3738 101.357 63.0034 94.0983 64.9692 93.0368C65.7371 92.5708 67.2308 92.092 68.1371 91.9368Z" fill="black"/>
<path d="M37.7933 53.2801L40.9653 12.686L63.4883 2.65813L71.0606 8.05875L61.4804 56.1844L46.9197 73.7785L37.7933 53.2801Z" fill="#55CCFF"/>
<path d="M21.4449 91.7821C22.8997 89.813 54.1183 75.3188 59.2711 74.214C67.7662 72.3478 62.075 78.5819 50.347 83.9357C29.1195 93.585 17.6299 96.7183 21.4449 91.7821Z" fill="black"/>
<path d="M17.002 80.1493C21.0332 77.6277 37.324 71.4977 39.8919 71.4776C45.6627 71.4851 37.8415 77.3459 23.6066 83.6837C15.1066 87.4681 9.78778 84.6166 17.002 80.1493Z" fill="black"/>
<path d="M8.86741 72.0761C9.61793 69.6276 20.1336 63.7565 23.4346 64.0047C25.339 64.1479 25.8338 66.6366 24.1132 67.7331C14.6333 74.002 7.76408 75.937 8.86741 72.0761Z" fill="black"/>
<path d="M38.182 61.8825L40.4848 19.3362L63.0078 9.30828L71.4494 16.6611L61.8691 64.7868L44.7009 76.5242L38.182 61.8825Z" fill="#55CCFF"/>
<path fill-rule="evenodd" clip-rule="evenodd" d="M48.0434 16.9027C46.1201 18.3751 45.2201 20.4296 44.2227 25.7701C43.9436 27.2887 43.5682 28.5908 43.3821 28.6736C42.8242 28.922 41.7168 30.5824 41.7081 32.2076C41.7025 33.0533 41.501 34.2454 41.2808 34.8948C40.6724 37.5328 42.7279 36.7149 41.3148 42.6945C39.1962 51.8092 38.6296 56.1149 39.2628 58.038C40.0624 60.406 41.7163 74.1318 43.3881 75.8845C44.5434 77.121 46.3767 76.6616 48.5104 74.8034C52.3454 71.4746 57.6399 61.9836 58.5642 59.9833C59.7448 57.4146 60.8302 45.1929 61.4825 44.8701C62.2144 44.5117 63.4182 43.0678 63.5634 42.6789C64.2316 40.8898 65.0497 33.3592 64.6816 31.6747C64.5253 30.9662 64.0742 30.4536 63.7368 29.6959C63.532 29.2358 63.7266 27.8846 64.2935 25.654C65.4397 21.2201 65.43 21.1272 62.443 18.5658C57.1614 14.1402 52.4532 13.5774 48.0434 16.9027ZM52.9961 18.6581C55.5343 18.2091 57.6224 19.6141 60.069 21.6054C62.4384 23.5661 62.5656 21.9161 60.7534 28.7869C60.6952 28.9424 60.0631 28.3808 59.2595 27.863C56.1487 25.8108 52.1918 25.0756 47.9335 26.4527C46.2936 26.9882 46.1986 27.7763 47.2487 22.7692C47.615 21.0171 48.2822 21.0141 48.5024 20.3648C48.8946 19.3147 50.6414 19.0904 52.9961 18.6581ZM49.6925 27.9718C53.9282 27.5452 55.5795 27.7503 59.5513 30.8783C62.1017 32.8883 61.8363 32.6498 61.1241 35.2692C60.8501 36.2991 60.7972 36.3227 60.3943 35.9184C58.9493 34.389 57.9842 33.6515 55.8068 32.8374C51.9323 31.644 51.8856 33.6127 55.3251 35.2592C59.2639 37.1697 60.144 37.7161 60.1728 40.427C60.1788 42.0133 59.9583 42.6626 59.5725 42.1535C55.091 36.5933 50.2048 35.5586 45.8909 37.0252C44.0914 37.6319 43.6715 37.3325 44.1462 35.824C44.4414 34.9142 45.4244 34.8334 47.6175 34.1813C48.6078 33.9025 48.0826 32.5799 46.9257 32.7707C45.4139 33.022 44.7574 32.7633 45.0706 30.6782C45.3888 28.8179 46.2441 28.3073 49.6925 27.9718ZM47.773 30.3829C47.4128 30.9324 47.581 31.6683 49.5853 31.5217C51.4979 31.3836 52.1555 30.5718 51.8181 29.8141C51.6856 29.5165 51.2682 29.151 50.4785 29.3082C49.4135 29.4904 47.981 30.0632 47.773 30.3829ZM48.0727 38.0643C48.4493 38.1237 48.488 38.1388 48.1675 40.065C47.3761 44.795 47.0194 46.6399 46.6755 47.7984C46.4817 48.436 46.1929 50.2183 46.0176 51.7555C45.489 56.7901 44.0361 58.9611 42.2674 57.3488C41.6355 56.7872 42.3119 55.5132 42.4333 54.7131C42.7806 52.4184 43.5918 40.1566 44.9255 39.0764C46.0178 38.1686 47.4885 37.9679 48.0727 38.0643ZM51.8926 38.2767C54.7866 39.4851 55.6428 40.693 54.9571 43.3005C53.6898 48.1775 51.9317 56.386 50.7153 58.5166C49.8906 59.9538 49.1076 57.1892 48.7304 55.4118C48.2059 53.0186 48.6995 49.2644 50.3118 42.1586C51.2113 38.029 50.3743 37.6558 51.8926 38.2767ZM57.6056 43.7427C57.9503 44.3024 58.6307 44.9723 58.3906 46.1495C58.2279 47 57.8629 50.1133 57.5734 52.6094C57.0962 56.9724 55.4632 60.4558 54.9856 59.9553C54.3946 59.3428 54.3667 55.2046 54.8955 52.602C56.2728 46.1845 56.1997 41.5151 57.6056 43.7427ZM46.6871 58.9804C47.7187 61.0829 49.3773 61.4469 51.1969 59.9559C52.3689 59.0125 52.3568 58.9854 52.3916 60.494C52.4056 61.1686 52.6342 62.0396 52.88 62.4492C53.3985 63.2561 53.1544 63.4943 51.6989 65.7313C51.4908 66.0508 51.0826 66.1353 50.7642 65.9205C48.9663 64.7428 47.1046 64.5665 45.3101 65.0412C43.5156 65.5159 43.7546 65.7663 43.0544 62.8353L42.4555 60.3456C42.8009 60.1919 44.2089 59.9216 45.1637 58.848C45.5722 58.4067 46.0073 57.9536 46.0073 57.9536C46.0073 57.9536 46.422 58.3849 46.6871 58.9804Z" fill="black"/>
</svg>
