<svg width="49" height="49" viewBox="0 0 49 49" fill="none" xmlns="http://www.w3.org/2000/svg">
<rect width="48.6159" height="48.6159" rx="11.536" fill="#FBFF47"/>
<path fill-rule="evenodd" clip-rule="evenodd" d="M18.531 6.83691C16.5129 6.83691 15.4425 7.6587 15.4425 8.35874C15.4425 9.45446 16.2376 9.60664 22.9952 9.91101C31.1288 10.2762 38.6511 10.9459 39.0792 11.372C39.7519 12.0416 40.0576 14.2939 39.8436 16.881C39.7213 18.3115 39.5378 23.2727 39.3849 27.9295C39.1097 38.4605 40.1493 37.6083 27.3373 37.9127L24.7382 37.9735C24.7688 36.9387 24.8605 30.6079 24.8911 28.1425C26.5423 28.1425 27.9181 28.173 28.8966 28.1121C31.4957 27.9599 30.5479 26.8337 29.1719 26.0728C27.8265 25.3119 26.2671 25.4032 24.5853 25.4032V23.7901C24.5853 18.9811 27.215 16.0288 29.6918 18.068C31.6488 19.6812 33.3305 18.8594 31.8322 17.0027C27.7348 11.8285 20.702 15.0244 20.3045 22.2074L20.1516 25.251L17.8583 25.5554C14.3418 26.012 15.351 28.1425 19.0509 28.1425H20.274C20.3657 30.6687 20.6103 37.03 20.6714 38.1866C19.7235 38.217 18.1639 38.0648 14.0665 38.6127C10.2443 39.0997 10.5808 39.9519 10.2139 29.0556C9.75522 15.694 10.1834 12.1633 12.5684 9.4849C13.2717 8.69355 11.6204 6.44125 9.23534 8.93704C5.84124 12.4372 5.2909 15.694 5.32148 27.8686C5.35206 36.6952 5.56622 39.7388 10.1834 41.352C12.2015 42.052 15.3204 42.2651 20.8243 42.3868C43.8492 42.9043 43.6656 43.026 43.1764 26.712C43.0235 21.2639 42.9625 16.4244 43.0542 15.9679C43.7575 12.6807 41.7393 8.75442 37.1833 7.99351C32.5661 7.11085 26.2366 6.83691 18.531 6.83691Z" fill="#373737"/>
</svg>
