<svg width="219" height="48" viewBox="0 0 219 48" fill="none" xmlns="http://www.w3.org/2000/svg">
<path opacity="0.9" fill-rule="evenodd" clip-rule="evenodd" d="M29.571 47.1823C73.2036 47.6571 111.38 47.6255 149.599 47.3438C167.589 47.2113 196.504 47.6718 206.129 44.5565C220.06 40.0471 219.274 20.2982 218.59 13.7917C218.306 11.0726 217.351 7.45562 209.607 6.04261C195.7 3.50456 176.708 3.8505 161.866 3.72746C121.429 3.39259 73.9531 3.5591 33.4228 3.97355C26.3733 4.04548 16.5833 4.19118 10.7106 5.90165C-0.080158 9.04543 0.616446 26.7475 1.1516 31.9424C1.77583 38.0073 4.96934 47.1823 29.571 47.1823Z" fill="#05060B"/>
<path fill-rule="evenodd" clip-rule="evenodd" d="M29.6726 43.7917C73.3052 44.2665 111.481 44.2348 149.701 43.9532C167.691 43.8207 196.605 44.2812 206.23 41.1659C220.162 36.6565 219.375 16.9075 218.692 10.401C218.407 7.68198 217.452 4.065 209.709 2.65199C195.801 0.113936 176.81 0.459879 161.967 0.336836C121.531 0.00196005 74.0547 0.168477 33.5244 0.582922C26.4749 0.654851 16.6849 0.800551 10.8121 2.51103C0.0214045 5.6548 0.718009 23.3569 1.25316 28.5518C1.87739 34.6167 5.0709 43.7917 29.6726 43.7917Z" fill="#55CCFF"/>
</svg>
