<svg width="50" height="49" viewBox="0 0 50 49" fill="none" xmlns="http://www.w3.org/2000/svg">
<rect x="0.695312" width="48.6159" height="48.6159" rx="11.536" fill="#C6FF2A"/>
<path fill-rule="evenodd" clip-rule="evenodd" d="M19.9576 6.99334C15.9884 7.31373 15.1561 7.66616 16.2444 8.56327C16.5325 8.81958 19.2854 8.91571 25.2712 8.85163C35.9944 8.75551 37.6909 8.94774 39.0033 10.3575C40.3797 11.8313 43.0045 12.2798 43.0045 11.0303C43.0045 10.4536 40.7318 8.37103 39.6435 7.95452C37.4668 7.12149 25.4952 6.54478 19.9576 6.99334ZM9.10636 9.46038C3.08856 15.4838 6.60958 41.628 13.2356 40.1542C14.4839 39.8658 14.452 39.4173 13.1076 38.8726C10.5148 37.7833 9.84255 35.6686 10.5148 30.8307C10.8989 28.0753 10.9629 25.7685 10.8028 19.6169C10.5787 11.1905 10.8029 10.005 12.6274 9.3963C13.6837 9.0759 13.1076 8.46716 11.6671 8.339C10.4828 8.24288 10.1947 8.37104 9.10636 9.46038ZM40.2196 13.7857C39.2913 16.477 39.3554 18.0149 39.3554 33.2016C39.2594 33.49 40.2196 36.8541 36.0583 37.7512C34.4258 38.1036 31.5129 38.1998 25.3031 38.2638C14.9 38.424 14.3878 38.4881 15.5402 39.8338C17.3647 42.0445 36.3144 42.5251 40.3476 40.4746C42.9083 39.1609 43.9968 33.8744 43.9968 22.6286C43.9328 15.9003 41.5 10.0691 40.2196 13.7857ZM18.197 19.6169C12.8194 24.6471 17.9409 33.49 27.0636 32.0161C32.7933 31.087 34.778 19.1363 29.1123 19.1363C27.992 19.1363 27.8319 19.6169 28.7282 20.3217C33.3375 23.9422 28.344 31.5035 22.7744 29.7093C17.0766 27.8831 18.3571 18.8479 24.599 18.8479C26.0074 18.8479 26.8715 18.2071 25.4631 17.6304C24.2468 17.1178 21.526 16.5411 18.197 19.6169Z" fill="#373737"/>
</svg>
