<svg width="108" height="112" viewBox="0 0 108 112" fill="none" xmlns="http://www.w3.org/2000/svg">
<path d="M29.1737 54.4241C15.3601 43.3052 21.3827 24.6577 35.4544 25.8736C44.1111 26.6753 45.3597 30.0387 46.1911 32.4309C46.2676 33.1585 45.1554 34.7689 43.3469 32.7604C35.3322 23.8591 22.2387 34.88 26.9528 45.3481C31.5482 55.5924 48.7329 53.0136 47.9724 41.7959C47.8259 39.6135 48.7162 39.2253 50.1547 40.823C57.4296 48.9026 37.8546 61.4031 29.1737 54.4241Z" fill="black"/>
<path fill-rule="evenodd" clip-rule="evenodd" d="M45.4342 10.9279C18.0273 7.35344 15.7992 9.11727 10.7997 37.4711C6.48317 62.2909 7.05813 71.2588 13.1589 72.3345C13.5075 72.3959 15.7088 73.503 18.0638 74.757C29.8181 81.143 90.5683 87.2419 94.0092 82.3371C96.7223 78.502 103.792 44.5224 103.962 34.7273C104.093 24.8057 103.488 21.5837 93.1629 20.0028C84.2904 18.678 84.971 22.6321 93.9188 24.2098C100.6 25.388 97.8734 25.0869 93.1744 52.4154C88.6804 78.5818 88.8514 77.9529 84.6682 78.2337C77.0298 78.744 34.7179 71.7027 16.5388 68.7968C15.4173 65.304 14.8841 66.2884 17.6659 40.6588C20.3795 16.0955 20.4582 15.9895 37.8817 16.7253C50.0692 17.2568 46.1289 16.3823 59.1471 18.3183C71.2357 20.0904 73.1941 20.1961 73.3478 19.3245C73.7609 16.6416 64.2967 13.3553 45.4342 10.9279Z" fill="black"/>
<path d="M72.117 105.832C69.3236 107.998 61.2948 94.1468 60.3651 88.1392C60.0787 86.2303 62.3404 85.2541 63.569 86.7236C65.3465 88.7226 74.9105 103.665 72.117 105.832Z" fill="black"/>
<path d="M48.9364 101.285C45.4369 101.279 46.1643 88.9613 48.6141 84.837C49.4 83.5309 51.8155 84.0123 52.0534 85.4989C52.4658 87.5719 52.4359 101.291 48.9364 101.285Z" fill="black"/>
<path d="M23.6275 98.0845C25.4876 101.1 38.2564 90.3428 41.363 84.8373C42.3414 83.085 40.5478 81.3963 38.8342 82.4134C36.402 83.7622 21.7675 95.0692 23.6275 98.0845Z" fill="black"/>
<path d="M28.7319 60.4205C30.1962 59.6786 42.4096 61.4988 43.0754 62.4496C44.6384 64.6144 37.5497 64.6186 33.2291 63.9123C29.0796 63.1807 26.0567 61.7269 28.7319 60.4205Z" fill="black"/>
<path fill-rule="evenodd" clip-rule="evenodd" d="M60.8712 41.8876C60.4226 41.189 56.1127 34.2818 54.9028 32.4959C53.3882 30.2751 51.3873 30.5417 46.769 33.4919C44.4013 35.0282 40.7154 37.2852 38.5353 38.5687C30.9947 42.9574 30.0462 45.3634 35.4535 46.3169C37.3022 46.6428 38.2945 46.1506 44.7884 41.482C53.1933 35.4348 52.538 35.367 57.6716 42.467C60.2448 45.4401 61.6325 48.0514 67.6443 41.6959C75.4574 32.6317 81.7201 20.3983 86.6674 16.9342C91.5602 13.5081 85.5165 10.4887 81.6375 12.7592C77.0843 15.3397 60.9256 41.8495 60.8712 41.8876Z" fill="black"/>
</svg>
