<svg width="56" height="56" viewBox="0 0 56 56" fill="none" xmlns="http://www.w3.org/2000/svg">
<path fill-rule="evenodd" clip-rule="evenodd" d="M41.1039 9.45956C44.2935 9.98094 42.1466 12.0972 39.509 12.4652C37.3008 12.7719 33.0685 12.7719 23.9596 12.7412C12.8572 12.7106 8.1034 12.8332 7.398 13.1399C5.64983 13.9373 4.883 17.0043 4.39228 25.3158C4.20826 28.2601 3.84032 32.6765 3.56429 35.1301C2.70554 43.0122 3.50286 43.7789 13.5932 44.1776C17.4882 44.331 22.5487 44.6376 24.8183 44.8523C35.43 45.8644 42.024 45.6804 45.7043 44.2082C48.7713 42.9814 48.6179 42 48.7099 39.9452C48.9246 35.9581 48.8326 27.8306 48.4339 20.4393C48.0965 14.244 47.6979 13.0172 45.7043 12.0971C44.4776 11.5451 44.9069 10.901 46.4404 10.9624C48.7406 11.0851 50.5194 11.8518 50.8568 15.4401C51.2862 19.8566 54.0158 44.1163 49.1087 46.1711C45.8884 47.5206 40.2758 48.8394 38.0676 48.8394C36.5342 48.8394 36.5954 50.5569 38.1289 51.0169C41.6559 52.029 39.1717 54.4826 34.5099 54.6666C25.0637 54.9733 11.2623 54.2066 11.1396 53.3172C11.0169 52.4278 13.0104 50.4036 14.0532 50.4036C14.3906 50.4036 14.6054 50.0048 14.6054 49.4221C14.6054 48.594 14.6053 47.4285 13.6546 47.4285C9.57552 47.4285 7.39799 47.2445 6.17121 46.9685C0.190632 45.6804 -0.0547523 41.632 0.00658417 39.2705C0.221272 29.6095 2.03081 20.378 2.03081 18.2004C2.06148 14.4281 4.2696 10.717 8.99273 10.0423C10.8329 9.49024 37.9449 8.93818 41.1039 9.45956ZM19.3897 47.95C18.1629 48.2874 18.623 49.3915 18.5003 50.4036L32.6697 50.6489C32.6697 50.5568 32.4243 48.134 32.4243 48.2873C31.4429 48.2566 22.4567 47.8886 21.2299 47.7966C20.7392 47.7353 19.8804 47.8273 19.3897 47.95Z" fill="black"/>
<path d="M29.5 0.499887C28.3333 4.83322 25.9 13.5999 25.5 13.9999L39.5 34.9999L49 40.9999L48.5 35.4999L56 35.9999L52 27.4999L56 25.4999L51.5 19.4999L55.5 10.9999L47.5 9.99989C48 9.33322 49.1 7.19989 49.5 3.99989C49.9 0.799886 44 3.33322 41 4.99989C41.8333 4.49989 43.1 2.99989 41.5 0.999887C39.5 -1.50011 33.5 4.49989 33.5 3.49989C33.5 2.69989 30.8333 1.16655 29.5 0.499887Z" fill="#FF9D56"/>
<path d="M51.267 21.3347C50.3495 20.6642 50.173 20.3466 50.5436 20.1172C50.773 19.976 52.2729 16.8704 53.3139 14.4C54.6373 11.2591 54.7432 11.3474 49.7143 11.2592L46.1322 11.1886L46.4675 10.5357C49.3614 4.85385 48.3027 2.25997 44.0854 4.71269C43.0267 5.33028 41.7385 6.07138 41.2268 6.33606C40.1328 6.936 40.1681 7.09484 40.6092 4.11276C41.0151 1.34242 40.2034 0.495418 38.3506 1.74824C38.0154 1.97763 36.8331 2.8952 35.7391 3.77747C33.4099 5.66553 33.604 5.59498 33.1099 4.64212C32.1041 2.75406 30.6042 2.08352 29.9866 3.26577C29.1926 4.78328 28.1516 10.3063 28.628 10.4651C29.1926 10.6592 30.4808 8.61231 31.2042 6.37134C31.3277 6.01843 32.0511 6.79483 32.2805 7.51829C32.5629 8.41821 33.004 8.22411 35.7744 6.01843C36.8155 5.17145 37.7154 4.50095 37.733 4.50095C37.7683 4.50095 37.6801 5.08324 37.5389 5.77141C36.6214 10.4651 37.68 9.9181 41.8091 7.85358C45.5323 5.98317 45.1794 5.93023 44.4206 8.29472L43.4678 11.2944C42.8502 13.2354 43.4678 14.0648 45.0382 13.4119C45.7441 13.1119 50.8965 13.2178 50.8965 13.5177C50.8965 13.5883 50.4025 14.5588 49.8202 15.6529C48.285 18.4938 48.0379 19.3408 47.5615 19.976C47.1027 20.5583 47.4556 21.7582 48.1791 21.8993C48.9378 22.0405 49.9437 23.0992 51.8494 24.9167C46.2029 27.14 46.0793 26.8224 49.0437 30.8809C49.873 32.0278 50.5436 32.9807 50.5083 33.016C50.473 33.0336 49.2908 32.9807 47.8615 32.8748C44.2442 32.6101 43.9265 32.8042 44.8088 34.604C45.3558 35.7157 45.3382 35.7157 44.0147 34.9393C41.2621 33.2983 39.1447 34.1982 41.7915 35.8922C48.1791 40.0036 48.9908 40.1094 48.1791 36.7921C47.5791 34.3923 47.5968 34.357 48.3026 34.4453C49.2731 34.5688 51.9905 34.6394 52.7492 34.9041C55.0784 35.7334 54.6374 34.0041 51.4965 30.1045C50.5966 28.9751 49.8554 27.987 49.8554 27.8988C49.8554 27.687 53.6845 25.9578 54.4785 25.8167C55.0961 25.7108 55.149 25.252 54.7079 24.5638C54.1785 23.7345 52.9963 22.5875 51.267 21.3347Z" fill="black"/>
<path d="M32.1601 34.4998C35.9362 34.6763 37.7768 35.5567 41.5 33.3157C46.1055 30.563 43.6525 17.7171 40.7234 13.6057C38.7824 10.8883 34.4363 9.33551 30.9955 11.153C28.9133 12.247 28.4898 12.5999 25.896 15.4761C24.6608 16.8348 23.2491 18.2288 22.755 18.5464C22.2609 18.8817 21.6611 19.2875 21.414 19.4463C15.5028 23.5224 14.1794 24.5635 13.7029 25.5517C12.3972 28.2514 11.9534 32.0276 14.0002 33.9333C14.5472 34.445 19.7883 36.9998 20 36.9998C20.0706 36.9998 20.4236 37.4057 20.7765 37.8998C23.4056 41.57 26.6944 43.0114 29.5 40.9998C31.5116 39.5706 31.3307 38.0094 29.0545 35.8213L28.3487 35.1508L29.0721 33.845L32.1601 34.4998ZM14.5147 28.0926C15.1675 25.8693 18.432 22.6755 18.1496 24.5282C17.7967 26.8398 19.8259 31.0394 22.0492 32.6451L22.9668 33.3157L22.3139 33.7568C18.9965 36.086 13.3853 31.9923 14.5147 28.0926ZM28.4545 38.4505C27.9428 38.8387 27.484 38.0976 27.484 38.0976C26.7253 37.3388 26.0194 37.6388 26.5488 38.4152C26.9193 38.9446 27.1135 38.9269 26.5841 39.4916C25.8254 40.2856 25.4901 40.1445 23.6726 38.4152C20.8141 35.6802 20.6376 35.2743 22.0316 34.7097C22.7198 34.4273 22.7374 34.2861 23.1609 35.0449C23.9197 36.4036 24.8372 36.1742 26.6723 35.9625C26.9194 35.9272 27.1488 36.0331 27.3076 36.2095L27.8016 36.8094C28.1898 37.18 28.8427 38.1505 28.4545 38.4505ZM26.6547 33.6156C27.2899 34.0921 26.0371 35.0449 25.4901 35.0449C25.1195 35.0449 24.2373 34.4097 24.2373 34.145C24.2373 33.7921 26.2135 33.2804 26.6547 33.6156ZM22.4728 30.9335C18.4849 27.3339 19.7879 23.5224 23.6699 21.1579C26.0344 19.711 26.7253 17.7171 28.2075 15.9702C28.7545 15.335 29.4074 14.3292 29.778 14.0292C30.3603 13.5351 30.4485 13.9763 30.1485 14.4703C26.4783 20.311 28.4899 27.2809 31.119 30.1571C34.5599 33.9156 40.2593 32.5216 40.2593 28.3044C40.2593 27.3515 39.8535 27.1574 39.5535 28.0044C37.6125 33.6686 34.1011 29.9983 34.0834 29.9983C34.5246 28.4808 34.7363 27.228 36.8714 26.2046C40.6651 24.4047 37.4007 18.6523 33.3423 19.9757C31.6836 20.5227 29.8309 19.6581 29.6721 19.4816C29.6721 19.464 30.0426 14.9291 33.0776 13.094C33.9422 12.5646 33.2893 11.8588 32.2836 12.3529C31.613 12.6882 31.3307 12.2823 31.5954 11.9823C32.3189 11.1706 33.5364 10.9412 34.3304 11.2765C41.3004 14.2056 45.7823 33.3157 37.3125 33.1568C36.1832 33.1392 33.8011 32.7863 30.3073 32.3805C27.0429 32.0276 24.9078 33.1392 22.4728 30.9335ZM30.0603 22.1284C30.0603 21.8991 30.272 21.7932 31.0837 21.705C31.6484 21.6344 32.213 21.5109 32.3542 21.4403C33.0247 21.0521 33.1835 21.2462 33.2894 22.5343C33.4129 23.9812 33.9247 25.1811 34.5599 25.5164C34.8069 25.6399 35.001 25.8164 35.001 25.8869C35.001 26.0281 32.3718 27.9691 32.1601 27.9691C31.8248 27.9868 30.0603 23.0637 30.0603 22.1284ZM35.7597 21.1579C36.0244 21.5638 36.5891 23.6283 36.5891 24.193C36.5891 24.687 36.2009 24.2282 35.6892 23.1342C34.9481 21.5991 35.0186 20.0286 35.7597 21.1579Z" fill="black"/>
</svg>
