<svg width="40" height="40" viewBox="0 0 40 40" fill="none" xmlns="http://www.w3.org/2000/svg">
<rect width="40" height="40" fill="#55CCFF"/>
<path fill-rule="evenodd" clip-rule="evenodd" d="M7.85777 4.99391C5.55755 5.36991 7.10581 6.89603 9.00792 7.16144C10.6004 7.38262 13.6525 7.38262 20.2214 7.3605C28.228 7.33839 31.6562 7.42684 32.1649 7.64802C33.4256 8.22307 33.9786 10.4348 34.3325 16.4287C34.4652 18.552 34.7305 21.7369 34.9296 23.5063C35.5489 29.1905 34.9739 29.7434 27.6972 30.031C24.8883 30.1416 21.2389 30.3627 19.6022 30.5175C11.9495 31.2474 7.19424 31.1147 4.54014 30.0531C2.32839 29.1683 2.43902 28.4606 2.37267 26.9787C2.21784 24.1035 2.28417 18.2423 2.5717 12.912C2.81499 8.44423 3.1025 7.55954 4.54014 6.89601C5.42484 6.4979 5.11522 6.03344 4.00934 6.07768C2.35053 6.16615 1.06773 6.71908 0.824438 9.30683C0.514793 12.4918 -1.45373 29.9867 2.08507 31.4686C4.40741 32.4418 8.45492 33.3928 10.0474 33.3928C11.1533 33.3928 11.1091 34.6314 10.0032 34.9632C7.4597 35.6931 9.25117 37.4624 12.613 37.5951C19.4252 37.8163 29.3782 37.2634 29.4666 36.622C29.5551 35.9806 28.1175 34.5208 27.3655 34.5208C27.1222 34.5208 26.9673 34.2333 26.9673 33.813C26.9673 33.2159 26.9673 32.3754 27.6529 32.3754C30.5946 32.3754 32.1649 32.2427 33.0496 32.0436C37.3625 31.1147 37.5395 28.1952 37.4953 26.4922C37.3404 19.5251 36.0355 12.8678 36.0355 11.2974C36.0134 8.57698 34.421 5.90074 31.0149 5.41415C29.6878 5.01604 10.1359 4.61791 7.85777 4.99391ZM23.517 32.7514C24.4017 32.9947 24.07 33.791 24.1584 34.5208L13.9401 34.6977C13.9401 34.6314 14.1171 32.8841 14.1171 32.9947C14.8249 32.9726 21.3053 32.7072 22.19 32.6408C22.5439 32.5966 23.1632 32.663 23.517 32.7514Z" fill="black"/>
<path d="M18.75 14.1672L26.4583 0.208862L36.25 0.208862L38.125 3.33386L26.875 18.9589L18.75 22.9172V14.1672Z" fill="#55CCFF"/>
<path d="M6.59751 25.2897C7.44342 24.8189 21.1115 24.607 23.1595 25.0307C26.5431 25.7133 23.4712 27.0315 18.3513 27.0786C9.09079 27.1492 4.41596 26.443 6.59751 25.2897Z" fill="black"/>
<path d="M6.86469 20.4408C8.73459 20.1819 15.6354 20.582 16.5704 20.9821C18.6629 21.9001 14.8785 22.7475 8.69 22.7475C4.99472 22.7475 3.52557 20.888 6.86469 20.4408Z" fill="black"/>
<path d="M5.21741 16.2746C5.88523 15.5213 10.649 15.0977 11.8065 15.7097C12.4743 16.0627 12.2518 17.0278 11.4504 17.1455C6.99828 17.8752 4.19342 17.475 5.21741 16.2746Z" fill="black"/>
<path d="M17.5 17.2915L25.2083 2.49982L35 2.49982L36.875 6.45815L25.625 22.0831L17.5 23.5415V17.2915Z" fill="#55CCFF"/>
<path fill-rule="evenodd" clip-rule="evenodd" d="M28.3455 2.83103C27.4098 3.05052 26.7514 3.63967 25.5268 5.384C25.1803 5.88072 24.8337 6.28504 24.7528 6.28504C24.5103 6.28504 23.8403 6.70088 23.5746 7.27848C23.4359 7.57889 23.1703 7.9716 22.9855 8.16801C22.3386 9.01129 23.2165 9.04593 21.7379 10.952C19.4968 13.8631 18.5957 15.3071 18.5148 16.0926C18.4224 17.063 16.8052 22.2151 17.1286 23.1046C17.3481 23.7284 18.0874 23.8555 19.1618 23.532C21.0909 22.9544 24.545 20.413 25.2035 19.847C26.0467 19.1192 28.4148 14.9374 28.7036 14.9259C29.0271 14.9143 29.6971 14.5908 29.8126 14.4753C30.344 13.9439 31.8573 11.391 31.9959 10.7325C32.0536 10.4553 31.9728 10.2011 31.9728 9.87769C31.9728 9.68129 32.2616 9.23081 32.8276 8.52608C33.9597 7.12832 33.9712 7.09368 33.3012 5.70744C32.0999 3.29309 30.4826 2.34585 28.3455 2.83103ZM29.8588 4.24196C30.8523 4.48455 31.3829 5.31629 31.9489 6.41373C32.4919 7.48806 32.8045 6.9204 31.0372 9.08065C30.9909 9.12681 30.8523 8.82649 30.6444 8.51457C29.8472 7.29009 28.5304 6.40056 26.7629 6.21576C26.0814 6.1464 25.9196 6.41208 27.1095 4.79488C27.5254 4.22881 27.768 4.33357 27.9527 4.13719C28.2647 3.82529 28.9347 4.02248 29.8588 4.24196ZM27.1557 7.03592C28.7614 7.55577 29.3274 7.89072 30.2632 9.63505C30.8638 10.7556 30.806 10.6286 30.1245 11.4487C29.8587 11.7722 29.8357 11.7722 29.7548 11.5643C29.4776 10.7903 29.2466 10.3744 28.5881 9.73905C27.3751 8.69937 27.0402 9.39332 28.0221 10.5254C29.1426 11.8308 29.3736 12.165 28.9462 13.1353C28.6921 13.7014 28.5072 13.8977 28.4495 13.6551C27.7217 10.9635 26.116 9.81993 24.3139 9.65817C23.5631 9.58889 23.4591 9.41561 23.875 8.95353C24.1291 8.67624 24.4987 8.80337 25.3998 8.91889C25.8041 8.97665 25.8272 8.42217 25.3767 8.30665C24.7875 8.1564 24.5911 7.96009 25.0416 7.26696C25.4575 6.65472 25.8503 6.60848 27.1557 7.03592ZM26.0698 7.5904C25.8503 7.72905 25.7925 8.01785 26.5434 8.28353C27.2596 8.53769 27.6293 8.3528 27.6293 8.02937C27.6293 7.90233 27.5369 7.70592 27.225 7.63665C26.8091 7.53264 26.1969 7.50952 26.0698 7.5904ZM24.9377 10.3744C25.0647 10.4553 25.0763 10.4668 24.6489 11.1022C23.5977 12.6617 23.1703 13.2623 22.8583 13.6205C22.685 13.8169 22.2923 14.406 21.9804 14.9259C20.9754 16.6356 20.0975 17.1785 19.7162 16.3236C19.5777 16.0233 20.0289 15.6768 20.2022 15.411C20.6989 14.6486 22.9739 10.4091 23.6323 10.2358C24.1753 10.0856 24.7413 10.2474 24.9377 10.3744ZM26.2893 11.0559C27.1441 11.9455 27.2596 12.5115 26.5896 13.3317C25.342 14.8681 23.3782 17.5135 22.5926 18.0796C22.0613 18.4608 22.2238 17.3517 22.374 16.6587C22.5704 15.7229 23.3559 14.4638 25.0887 12.1881C26.0821 10.8596 25.8387 10.5939 26.2893 11.0559ZM27.4791 13.9093C27.5138 14.1634 27.6524 14.5099 27.3751 14.8912C27.1787 15.1684 26.5434 16.2196 26.0351 17.0629C25.1572 18.5416 24.002 19.5235 23.9096 19.2694C23.7941 18.9575 24.4525 17.4788 25.0647 16.6356C26.6011 14.5678 27.3289 12.8927 27.4791 13.9093ZM21.0562 17.6059C21.0909 18.5185 21.6338 18.9112 22.5349 18.6687C23.1125 18.5185 23.1125 18.5069 22.8815 19.0499C22.7775 19.2924 22.7198 19.639 22.7428 19.8239C22.8006 20.1936 22.6735 20.2397 21.7841 20.8058C21.657 20.8866 21.4952 20.852 21.4144 20.7249C20.9523 20.0202 20.3054 19.6621 19.5776 19.5466C18.8498 19.4311 18.8961 19.5582 19.1155 18.403L19.3004 17.4211C19.4506 17.4211 20.005 17.5481 20.5249 17.3171C20.7444 17.2247 20.9755 17.1323 20.9755 17.1323C20.9755 17.1323 21.0562 17.3517 21.0562 17.6059Z" fill="black"/>
</svg>
