<svg width="40" height="40" viewBox="0 0 40 40" fill="none" xmlns="http://www.w3.org/2000/svg">
<rect width="40" height="40" fill="#C6FF2A"/>
<path fill-rule="evenodd" clip-rule="evenodd" d="M8.86442 4.63276C6.51308 5.01711 8.09575 6.57715 10.0401 6.84846C11.668 7.07455 14.788 7.07455 21.5028 7.05194C29.6873 7.02933 33.1917 7.11975 33.7117 7.34584C35.0004 7.93368 35.5657 10.1946 35.9275 16.3216C36.0631 18.4921 36.3344 21.7478 36.5378 23.5565C37.1709 29.367 36.5831 29.9323 29.1448 30.2262C26.2734 30.3392 22.5429 30.5653 20.8698 30.7236C13.0471 31.4697 8.18615 31.334 5.47306 30.2488C3.21216 29.3444 3.32525 28.6209 3.25742 27.1061C3.09916 24.167 3.16696 18.1755 3.46088 12.7268C3.70958 8.15975 4.00348 7.2554 5.47306 6.57713C6.37742 6.17017 6.06092 5.69539 4.93047 5.74061C3.23479 5.83104 1.92349 6.39626 1.67479 9.04152C1.35826 12.2972 -0.654005 30.181 2.96344 31.6958C5.33739 32.6906 9.47484 33.6628 11.1027 33.6628C12.2331 33.6628 12.188 34.9289 11.0575 35.268C8.4575 36.0141 10.2888 37.8228 13.7254 37.9585C20.6889 38.1846 30.863 37.6194 30.9535 36.9637C31.0439 36.308 29.5743 34.8158 28.8056 34.8158C28.5569 34.8158 28.3986 34.5219 28.3986 34.0923C28.3986 33.4819 28.3986 32.6227 29.0995 32.6227C32.1065 32.6227 33.7117 32.4871 34.6161 32.2836C39.0248 31.334 39.2057 28.3496 39.1605 26.6087C39.0022 19.4869 37.6683 12.6816 37.6683 11.0764C37.6457 8.29545 36.0179 5.55974 32.5361 5.06234C31.1796 4.65538 11.1931 4.24841 8.86442 4.63276ZM24.8717 33.0071C25.776 33.2558 25.4369 34.0697 25.5273 34.8158L15.0819 34.9967C15.0819 34.9288 15.2628 33.1427 15.2628 33.2558C15.9863 33.2332 22.6108 32.9619 23.5151 32.8941C23.8769 32.8489 24.5099 32.9167 24.8717 33.0071Z" fill="black"/>
<path d="M28.7357 21.6524C27.5876 22.6589 25.7234 23.5439 25.0597 23.3666C24.788 23.2891 24.0651 22.7155 25.4273 21.7976C29.0012 19.393 29.0305 19.2537 26.407 17.1637C24.4189 15.594 23.9863 15.6676 24.7903 15.1356C25.1532 14.9036 28.2026 16.2323 28.9494 17.3287C29.9721 18.8147 29.8907 20.6271 28.7357 21.6524Z" fill="black"/>
<path d="M10.7721 21.6521C11.9202 22.6586 13.7844 23.5436 14.4481 23.3663C14.7198 23.2888 15.4427 22.7152 14.0805 21.7973C10.5066 19.3927 10.4774 19.2534 13.1008 17.1634C15.0889 15.5937 15.5215 15.6673 14.7175 15.1353C14.3546 14.9033 11.3053 16.232 10.5584 17.3284C9.53576 18.8144 9.61713 20.6268 10.7721 21.6521Z" fill="black"/>
<path d="M15.4259 24.5561C15.4797 23.7675 21.4128 14.3137 22.6136 13.0997C24.5858 11.0863 24.1223 13.776 21.8777 17.303C17.808 23.6757 15.2455 26.5629 15.4259 24.5561Z" fill="black"/>
</svg>
