<svg width="108" height="108" viewBox="0 0 108 108" fill="none" xmlns="http://www.w3.org/2000/svg">
<g clip-path="url(#clip0_409_14780)">
<rect width="96" height="96" transform="translate(0.359375 11.7629) rotate(-7)" fill="#C6FF2A"/>
<path fill-rule="evenodd" clip-rule="evenodd" d="M22.8354 20.2059C17.3466 21.8092 21.573 25.0625 26.2841 25.14C30.2279 25.2025 37.6601 24.2899 53.6491 22.2721C73.1388 19.8244 81.5131 19.0148 82.8179 19.4013C86.0597 20.4246 88.0676 25.645 90.7214 40.1345C91.6794 45.2651 93.2777 52.9412 94.2915 57.1903C97.499 70.8464 96.2642 72.3648 78.6311 75.2406C71.8243 76.3497 63.0039 77.9793 59.0648 78.8457C40.6484 82.911 29.0294 84.0096 22.2491 82.218C16.5989 80.725 16.6567 78.9685 16.052 75.3799C14.8154 68.4248 13.2245 54.1327 12.3309 41.0672C11.5876 30.1153 12.0231 27.8751 15.3255 25.8295C17.3607 24.5956 16.4679 23.5572 13.7883 23.9955C9.77545 24.7069 6.81711 26.4369 6.99838 32.8109C7.19662 40.6589 7.63393 83.8486 16.6941 86.3989C22.6401 88.0743 32.7803 89.18 36.658 88.7039C39.3509 88.3732 39.6137 91.4025 37.02 92.541C31.0447 95.0788 35.936 98.8517 44.162 98.1697C60.8161 96.6715 84.8867 92.3493 84.9103 90.761C84.934 89.1727 80.9968 86.0479 79.1657 86.2728C78.5732 86.3455 78.1101 85.6916 77.9844 84.6683C77.8059 83.2142 77.5547 81.1676 79.2242 80.9626C86.3872 80.0831 90.1714 79.2904 92.2662 78.5412C102.491 74.9897 102.049 67.8277 101.432 63.6939C98.9716 46.7752 93.8036 30.9544 93.334 27.1305C92.4668 20.5127 87.7891 14.472 79.3496 14.3055C75.9991 13.7329 28.2702 18.6092 22.8354 20.2059ZM69.2655 83.1148C71.4926 83.4428 70.9227 85.4808 71.3564 87.2316L46.5271 90.7175C46.5073 90.556 46.4159 86.2484 46.4489 86.5176C48.1658 86.2522 63.8666 83.6684 66.001 83.2423C66.8495 83.0288 68.3774 83.0052 69.2655 83.1148Z" fill="black"/>
<path d="M75.1417 54.9369C72.7012 57.6702 68.5193 60.3237 66.8864 60.0954C66.2166 59.9903 64.3269 58.8352 67.3032 56.2505C75.1134 49.4772 75.1423 49.1367 68.2817 44.9254C63.0866 41.7678 62.0776 42.0695 63.8373 40.5671C64.6339 39.9082 72.2864 42.1815 74.3861 44.5748C77.2569 47.8155 77.5931 52.1566 75.1417 54.9369Z" fill="black"/>
<path d="M32.3578 60.1894C35.387 62.2511 40.0867 63.814 41.6158 63.1975C42.2403 62.9336 43.7945 61.3556 40.2813 59.5676C31.0645 54.885 30.9541 54.5616 36.592 48.8156C40.869 44.495 41.921 44.5437 39.8501 43.5117C38.9177 43.0651 32.0425 47.1221 30.5842 49.9523C28.5827 53.7912 29.3066 58.0847 32.3578 60.1894Z" fill="black"/>
<path d="M44.284 65.7464C44.1816 63.8521 55.5497 39.5968 58.0552 36.3537C62.1641 30.9806 61.8469 37.5234 57.5316 46.5815C49.701 62.9524 44.4414 70.5795 44.284 65.7464Z" fill="black"/>
</g>
<defs>
<clipPath id="clip0_409_14780">
<rect width="96" height="96" fill="white" transform="translate(0.359375 11.7629) rotate(-7)"/>
</clipPath>
</defs>
</svg>
