<svg width="257" height="335" viewBox="0 0 257 335" fill="none" xmlns="http://www.w3.org/2000/svg">
<path d="M92.4889 115.606C99.652 113.545 88.055 85.0673 79.6363 84.0299C76.5446 83.6086 74.5612 85.7998 74.8838 89.2669C76.0207 104.327 84.9901 117.74 92.4889 115.606Z" fill="#3E3E3E"/>
<path d="M66.8208 133.997C71.3299 134.088 84.8059 128.063 84.6271 126.013C84.16 121.315 72.1885 123.619 63.8546 129.886C61.5747 131.667 63.2434 133.909 66.8208 133.997Z" fill="#3E3E3E"/>
<path d="M110.204 152.866C115.058 150.461 105.3 128.512 98.82 127.258C96.1756 126.801 92.2173 128.948 92.1727 130.923C91.7156 143.704 102.438 156.713 110.204 152.866Z" fill="#3E3E3E"/>
<path d="M113.709 163.5C112.098 165.693 112.722 168.266 118.154 180.92C124.177 194.769 141.484 200.982 128.741 170.003C124.899 160.746 118.053 157.814 113.709 163.5Z" fill="#3E3E3E"/>
<path d="M118.927 111.717C126.355 108.688 128.339 106.496 125.44 104.399C122.28 102.151 100.151 110.044 100.474 113.325C100.796 116.979 107.544 116.333 118.927 111.717Z" fill="#3E3E3E"/>
<path d="M47.6398 190.835C39.9519 193.713 36.2216 194.631 34.9829 197.012C32.6934 201.401 42.5707 201.065 52.6872 196.518C62.5427 192.008 58.0892 186.96 47.6398 190.835Z" fill="#3E3E3E"/>
<path d="M113.351 199.202C107.977 201.12 99.5033 204.853 98.2695 205.929C92.8115 210.493 103.244 211.09 113.732 206.918C127.019 201.637 126.747 194.518 113.351 199.202Z" fill="#3E3E3E"/>
<path d="M129.53 208.205C129.071 221.545 138.756 232.65 147.195 228.469C150.555 226.805 146.824 207.822 142.475 204.675C139.315 202.427 129.578 205.112 129.53 208.205Z" fill="#3E3E3E"/>
<path d="M70.4756 193.379C66.0425 192.878 61.6375 194.874 61.7772 197.409C61.9889 200.652 67.4171 214.238 69.0153 215.399C71.9885 217.646 81.7624 215.036 81.5123 212.091C81.0075 207.505 72.9343 193.649 70.4756 193.379Z" fill="#3E3E3E"/>
<path d="M163.067 179.037C157.78 177.564 137.552 185.539 137.837 188.932C138.233 192.921 144.123 192.421 155.918 187.322C167.116 182.518 168.763 180.586 163.067 179.037Z" fill="#3E3E3E"/>
<path d="M43.742 156.682C40.5283 159.018 48.2864 177.494 53.4209 179.786C57.6998 181.666 67.8024 180.846 62.6215 170.951C55.2202 156.761 51.9252 150.861 43.742 156.682Z" fill="#3E3E3E"/>
<path d="M87.1433 171.079C82.8191 171.361 68.3696 178.612 68.6237 180.439C68.945 184.279 76.1025 183.709 85.4366 179.085C94.8454 174.424 95.7169 170.551 87.1433 171.079Z" fill="#3E3E3E"/>
</svg>
