<svg width="199" height="199" viewBox="0 0 199 199" fill="none" xmlns="http://www.w3.org/2000/svg">
<path d="M88.8346 147.481C88.4874 150.6 95.6696 151.197 119.433 150.123C144.587 148.97 150.094 147.8 149.209 144.14C147.931 139.121 89.5259 142.451 88.8346 147.481Z" fill="#3E3E3E"/>
<path d="M72.8025 45.1835C63.4184 44.8123 62.1481 46.3732 55.2112 66.7316C48.0245 87.7513 47.4599 91.8468 51.2875 93.5198C58.2401 96.5249 61.9273 91.5686 72.1131 66.0127C79.6172 47.1538 79.7289 45.4575 72.8025 45.1835Z" fill="#3E3E3E"/>
<path d="M125.409 74.4987C118.665 74.1424 116.154 75.3859 107.883 83.0702C83.4363 105.958 64.1579 120.368 77.2993 120.798C82.6616 121.011 87.6453 117.224 117.132 91.4025C133.364 77.0511 134.429 75.0344 125.409 74.4987Z" fill="#3E3E3E"/>
</svg>
