<svg width="289" height="91" viewBox="0 0 289 91" fill="none" xmlns="http://www.w3.org/2000/svg">
<path fill-rule="evenodd" clip-rule="evenodd" d="M137.621 90.546C127.894 90.3833 118.169 90.1249 108.447 89.7706C88.148 88.9971 67.8866 87.8068 47.663 86.1994C46.6907 86.1207 45.698 86.0577 44.6893 86.005C39.9395 85.2676 35.2552 84.1815 30.7339 82.4643C24.8882 80.3258 19.491 77.0721 14.8631 72.8965C10.2353 68.7208 6.47139 63.7087 3.79534 58.1583C1.23731 52.6111 0.0869449 46.5882 0.445068 40.6233C0.635664 38.6995 0.90278 36.7833 1.26453 34.895C2.17553 30.909 3.77913 27.1189 6.01959 23.6927C15.7533 9.6252 35.068 6.00629 52.5177 4.00388C66.1772 2.47007 79.8753 1.21741 93.603 0.246122C141.578 -0.221019 189.412 2.59546 236.733 8.67821C254.15 10.9587 273.408 14.8394 282.935 28.6372C286.126 33.5292 287.954 39.1416 288.255 44.9685C288.556 50.7955 287.319 56.654 284.658 62.0159C281.902 67.3315 278.066 72.1051 273.378 76.0525C268.69 80 263.247 83.0406 257.372 84.9938C253.641 86.2838 249.807 87.1605 245.921 87.7758C244.033 87.8123 242.186 87.8691 240.406 87.9817C220.16 89.2312 199.882 90.0488 179.573 90.4349C165.591 90.6766 151.607 90.7136 137.621 90.546Z" fill="#55CCFF"/>
</svg>
