<svg width="129" height="12" viewBox="0 0 129 12" fill="none" xmlns="http://www.w3.org/2000/svg">
<path fill-rule="evenodd" clip-rule="evenodd" d="M128.15 3.65722C127.627 2.30161 123.132 1.73083 109.623 1.25518C97.0183 0.803306 82.3444 -0.504746 56.7067 0.208734C37.1098 0.755735 12.7088 2.94374 12.7088 4.15666C12.7088 5.03662 13.6601 5.0604 22.7451 4.27557C31.1403 3.56209 35.445 3.39561 40.701 3.20535C19.6295 5.0604 15.1346 6.27332 3.90919 7.43867C-3.13048 8.17593 0.983921 10.2926 3.55245 10.0785C3.57623 10.0785 36.325 7.41489 39.4167 7.55758C39.7021 7.58137 36.5866 8.00945 32.4722 8.50889C20.9851 9.93585 23.1969 12.3139 31.8063 11.2199C60.7736 7.53356 88.0285 6.39199 109.029 7.98543C115.664 8.48487 116.401 8.48487 116.401 7.86652C116.401 6.77251 114.594 5.94036 111.764 5.77388C107.34 5.48849 90.3116 4.67964 82.606 4.44181C82.0115 4.41803 82.2969 3.9664 82.8201 3.91883C85.9594 3.60966 110.884 3.84725 120.682 4.1802C127.888 4.41803 128.411 4.39448 128.15 3.65722Z" fill="#3E3E3E"/>
</svg>
