<svg width="45" height="32" viewBox="0 0 45 32" fill="none" xmlns="http://www.w3.org/2000/svg">
<path d="M34.509 13.5508L35.8829 13.5828C50.9318 13.8384 45.9155 35.9485 29.8122 30.1015C17.9265 25.7881 20.1311 5.9466 32.8476 2.68761C38.4709 1.24982 44.7333 2.27225 40.0685 3.86979C36.0746 5.21173 32.8476 9.07766 33.0712 12.2408C33.1351 12.9437 33.7422 13.5508 34.509 13.5508Z" fill="#FBFF47"/>
<path d="M8.25101 31.1342C-6.22275 25.5747 -0.343801 1.29198 15.7275 0.237598C19.9131 -0.0499611 20.9994 0.940517 17.8363 2.1227C14.769 3.27293 10.9029 8.70459 10.4876 12.3789C10.3917 13.1138 10.9668 13.7209 11.7016 13.7209C15.9192 13.7209 17.6765 13.7208 20.1367 17.1076C26.1755 25.4787 18.1558 34.9363 8.25101 31.1342Z" fill="#FBFF47"/>
</svg>
