<svg width="103" height="5" viewBox="0 0 103 5" fill="none" xmlns="http://www.w3.org/2000/svg">
<mask id="path-1-inside-1_355_1315" fill="white">
<path fill-rule="evenodd" clip-rule="evenodd" d="M4.28067 2.55087C1.83268 2.8113 0.374299 3.04568 0.139916 3.3061C-0.433018 3.87904 0.712848 4.1655 4.33275 4.19155C4.35879 4.19155 98.3461 2.05606 98.3721 2.05606C102.617 1.87376 102.956 1.63939 102.956 1.19666C102.956 0.623729 101.81 0.233094 99.3617 0.0507964C96.1324 -0.235671 22.3802 0.70186 4.28067 2.55087Z"/>
</mask>
<path fill-rule="evenodd" clip-rule="evenodd" d="M4.28067 2.55087C1.83268 2.8113 0.374299 3.04568 0.139916 3.3061C-0.433018 3.87904 0.712848 4.1655 4.33275 4.19155C4.35879 4.19155 98.3461 2.05606 98.3721 2.05606C102.617 1.87376 102.956 1.63939 102.956 1.19666C102.956 0.623729 101.81 0.233094 99.3617 0.0507964C96.1324 -0.235671 22.3802 0.70186 4.28067 2.55087Z" fill="#FF9D56"/>
<path d="M4.28067 2.55087L-1.30895 -52.1644L-1.42328 -52.1527L-1.53757 -52.1405L4.28067 2.55087ZM0.139916 3.3061L39.0308 42.197L40.0535 41.1742L41.0211 40.0992L0.139916 3.3061ZM4.33275 4.19155L3.93708 59.1901L4.13491 59.1915H4.33275V4.19155ZM98.3721 2.05606V57.0561H99.5525L100.732 57.0054L98.3721 2.05606ZM99.3617 0.0507964L94.5018 54.8357L94.8893 54.87L95.2773 54.8989L99.3617 0.0507964ZM-1.53757 -52.1405C-3.00348 -51.9846 -5.53735 -51.7013 -8.19235 -51.2321C-9.38975 -51.0204 -12.0999 -50.5188 -15.3287 -49.5457C-16.9265 -49.0642 -19.849 -48.1149 -23.2972 -46.4784C-25.8691 -45.2578 -33.5531 -41.4739 -40.7413 -33.487L41.0211 40.0992C33.8915 48.021 26.3043 51.7406 23.8667 52.8975C20.5527 54.4703 17.8017 55.3566 16.4118 55.7754C13.5988 56.6232 11.4502 57.0011 10.9527 57.0891C9.69751 57.3109 9.11683 57.3467 10.0989 57.2423L-1.53757 -52.1405ZM-38.751 -35.5848C-41.9274 -32.4083 -49.6325 -24.0392 -53.1976 -10.4301C-57.6692 6.63956 -53.6241 24.1944 -43.4583 37.3354C-35.3589 47.8055 -25.7589 52.4718 -21.8853 54.1757C-17.2446 56.2171 -13.2755 57.2035 -11.1284 57.6749C-4.10151 59.2173 2.50952 59.1799 3.93708 59.1901L4.72842 -50.807C2.53608 -50.8228 6.76423 -51.0165 12.4564 -49.767C14.2699 -49.3689 17.9708 -48.4643 22.4059 -46.5134C26.0739 -44.8999 35.5309 -40.3326 43.5469 -29.9704C53.6292 -16.9372 57.6506 0.50103 53.2118 17.4453C49.6796 30.929 42.064 39.1637 39.0308 42.197L-38.751 -35.5848ZM4.33275 59.1915C5.17854 59.1915 29.93 58.6246 52.6014 58.1096C76.9367 57.5569 99.1918 57.0561 98.3721 57.0561V-52.9439C97.5263 -52.9439 72.7748 -52.377 50.1034 -51.862C25.7682 -51.3092 3.51301 -50.8085 4.33275 -50.8085V59.1915ZM100.732 57.0054C102.002 56.9509 108.043 56.7797 114.187 55.4143C116.331 54.9378 128.248 52.4815 139.355 42.6183C155.55 28.2375 157.956 10.0949 157.956 1.19666H47.9556C47.9556 -1.95906 48.1971 -8.91362 51.1369 -17.1451C54.3468 -26.1329 59.7202 -33.776 66.3174 -39.6342C77.2288 -49.3231 88.7953 -51.6265 90.3245 -51.9663C95.2382 -53.0582 98.9875 -53.0211 96.0123 -52.8933L100.732 57.0054ZM157.956 1.19666C157.956 -19.9792 146.498 -34.4068 137.715 -41.6443C129.947 -48.0448 122.323 -50.7772 119.037 -51.8423C112.044 -54.1093 105.852 -54.6182 103.446 -54.7973L95.2773 54.8989C94.8338 54.8659 93.8083 54.7786 92.3906 54.5551C91.1313 54.3566 88.4725 53.8849 85.1159 52.7968C82.423 51.9238 75.2379 49.4079 67.7619 43.2474C59.2701 36.25 47.9556 22.0861 47.9556 1.19666H157.956ZM104.222 -54.7341C100.683 -55.048 95.832 -55.0005 95.0488 -54.9998C92.4524 -54.9978 89.0505 -54.9758 85.1383 -54.9367C77.2877 -54.8582 67.0102 -54.7071 56.2779 -54.4886C36.0758 -54.0772 10.4912 -53.3698 -1.30895 -52.1644L9.87028 57.2661C16.1696 56.6226 36.5109 55.9367 58.5172 55.4886C68.8891 55.2775 78.7863 55.1323 86.2381 55.0578C89.9771 55.0204 93.0082 55.0018 95.1341 55.0001C99.0729 54.9971 97.2334 55.078 94.5018 54.8357L104.222 -54.7341Z" fill="#FF9D56" mask="url(#path-1-inside-1_355_1315)"/>
</svg>
