<svg width="190" height="169" viewBox="0 0 190 169" fill="none" xmlns="http://www.w3.org/2000/svg">
<path d="M65.1814 30.7711C64.3264 31.3138 63.161 36.9211 62.1565 45.306C58.7737 73.9843 57.0675 72.9505 59.2058 74.6088C61.4947 76.3839 61.8174 75.2837 64.8737 56.9147C68.142 37.215 68.2608 28.9149 65.1814 30.7711Z" fill="black"/>
<path d="M37.2132 62.6661C36.5181 62.754 36.4717 63.249 36.6893 65.8293C37.039 69.6696 39.7783 73.2892 41.063 71.6328C42.0839 70.2542 38.764 62.47 37.2132 62.6661Z" fill="black"/>
<path d="M24.8077 68.5264C14.0285 52.4498 9.93329 47.3446 7.4225 47.0372C5.37638 46.7526 5.75251 48.0089 8.92705 52.0625C11.6695 55.4916 16.3653 62.1237 20.8237 68.8128C24.4782 74.2997 25.4825 75.368 27.2649 75.9304C29.7462 76.6489 29.1925 75.0619 24.8077 68.5264Z" fill="black"/>
<path d="M94.6022 41.9649C93.7706 42.4775 89.9814 50.5351 88.0434 55.8326C87.5805 57.1135 86.141 60.3379 84.8711 62.9704C82.3645 68.0681 82.328 68.4261 84.0447 69.7575C85.671 71.0187 85.6245 71.0787 89.366 62.212C95.8894 46.773 97.6047 40.1457 94.6022 41.9649Z" fill="black"/>
<path d="M34.5009 45.9494C35.185 49.8561 34.483 52.2538 36.7116 53.9821C40.2955 56.7616 40.633 56.6374 39.6964 49.014C37.9652 34.8903 34.6734 23.4629 32.253 23.2256C29.9229 23.0584 32.8927 31.2939 34.5009 45.9494Z" fill="black"/>
<path d="M148.678 123.983C152.462 123.831 155.509 123.011 156.35 121.926C157.518 120.421 156.001 118.52 153.494 118.457C136.86 117.952 117.326 120.938 117.912 123.852C118.491 126.712 121.156 126.946 134.835 125.352C140.861 124.672 147.084 124.049 148.678 123.983Z" fill="black"/>
<path d="M125.391 67.1934C122.099 69.5112 115.576 75.9316 100.063 88.1608C96.9743 90.5886 96.9279 90.6485 97.1909 92.2994C97.4134 93.6295 98.7088 95.0687 99.8354 95.1707C100.772 95.2697 122.151 78.0885 128.984 71.7646C131.602 69.2606 129.155 64.5174 125.391 67.1934Z" fill="black"/>
<path d="M152.566 147.015C141.425 142.475 119.532 136.251 117.407 137.063C115.927 137.603 117.814 140.706 120.111 141.475L128.696 144.274C141.899 148.581 158.812 153.016 159.349 152.324C160.417 150.885 158.58 149.46 152.566 147.015Z" fill="black"/>
<path d="M143.546 90.4856C142.357 90.9619 138.976 92.15 129.363 94.9679C125.012 96.2242 116.847 99.5382 116.287 100.261C115.166 101.707 123.139 99.8837 137.88 95.3036C141.068 94.3031 144.139 93.4531 144.733 93.4322C147.504 93.2177 145.771 89.6067 143.546 90.4856Z" fill="black"/>
</svg>
